<?xml version="1.0" encoding="utf-8"?>
<!-- Generator: Adobe Illustrator 24.1.3, SVG Export Plug-In . SVG Version: 6.00 Build 0)  -->
<svg version="1.1" id="Capa_1" xmlns="http://www.w3.org/2000/svg" xmlns:xlink="http://www.w3.org/1999/xlink" x="0px" y="0px"
	 viewBox="0 0 50 50" style="enable-background:new 0 0 50 50;" xml:space="preserve">
<style type="text/css">
	.st0{fill:none;stroke:#FFFFFF;stroke-width:2;stroke-linecap:round;stroke-linejoin:round;stroke-miterlimit:10;}
	.st1{fill:#FFFFFF;}
	.st2{fill:none;stroke:#FFFFFF;stroke-width:1.5;stroke-linecap:round;stroke-linejoin:round;stroke-miterlimit:10;}
</style>
<g>
	<g>
		<path class="st0" d="M25,7.7V6.3c0-0.6-0.3-1.1-0.8-1.4c-0.5-0.3-1.1-0.2-1.6,0.1l-6.9,5.2c-0.4,0.3-0.6,0.7-0.6,1.2
			c0,0.5,0.2,0.9,0.6,1.2l6.9,5.2c0.5,0.3,1.1,0.4,1.6,0.1c0.5-0.3,0.8-0.8,0.8-1.4v-1.3c5.8,0.6,10.6,4.9,11.6,10.6
			c0.2,1.2,1.3,2.1,2.5,2.1h2.5c0.7,0,1.4-0.3,1.9-0.9c0.5-0.6,0.7-1.3,0.6-2C42.7,15.7,34.8,8.3,25,7.7z"/>
		<path class="st0" d="M34.3,37.3l-6.9-5.2c-0.5-0.3-1.1-0.4-1.6-0.1c-0.5,0.3-0.8,0.8-0.8,1.4v1.3c-5.8-0.6-10.6-4.9-11.6-10.6
			c-0.2-1.2-1.3-2.1-2.5-2.1H8.4c-0.7,0-1.4,0.3-1.9,0.9c-0.5,0.6-0.7,1.3-0.6,2c1.4,9.5,9.4,16.9,19.1,17.5v1.4
			c0,0.6,0.3,1.1,0.8,1.4c0.5,0.3,1.1,0.2,1.6-0.1l6.9-5.2c0.4-0.3,0.6-0.7,0.6-1.2C34.9,38,34.7,37.6,34.3,37.3z"/>
	</g>
</g>
</svg>
