<?xml version="1.0" encoding="utf-8"?>
<!-- Generator: Adobe Illustrator 24.1.3, SVG Export Plug-In . SVG Version: 6.00 Build 0)  -->
<svg version="1.1" id="Capa_1" xmlns="http://www.w3.org/2000/svg" xmlns:xlink="http://www.w3.org/1999/xlink" x="0px" y="0px"
	 viewBox="0 0 50 50" style="enable-background:new 0 0 50 50;" xml:space="preserve">
<style type="text/css">
	.st0{fill:none;stroke:#FFFFFF;stroke-width:2;stroke-linecap:round;stroke-linejoin:round;stroke-miterlimit:10;}
	.st1{fill:#FFFFFF;}
	.st2{fill:none;stroke:#FFFFFF;stroke-width:1.5;stroke-linecap:round;stroke-linejoin:round;stroke-miterlimit:10;}
</style>
<g>
	<g>
		<g id="Layer_33_37_">
			<path class="st0" d="M40.1,25.3l-9.4-6.1V5.1H7v8.7l-0.9-0.1v0.9l0,5l0,0v2.8L6,36l1,0.2v8.7h23.7v-5l12.2,2L44,27.7L40.1,25.3z"
				/>
		</g>
	</g>
	<path class="st1" d="M19.2,43.2c-0.8,0-1.4-0.6-1.4-1.4c0-0.8,0.6-1.4,1.4-1.4c0.8,0,1.4,0.6,1.4,1.4
		C20.5,42.6,19.9,43.2,19.2,43.2z"/>
	<rect x="17" y="7.6" class="st1" width="6.8" height="1.4"/>
	<path class="st1" d="M15,7.2c0.6,0,1.1,0.5,1.1,1.1S15.6,9.5,15,9.5c-0.6,0-1.1-0.5-1.1-1.1S14.3,7.2,15,7.2z"/>
	<path class="st0" d="M26.9,38.5c-6.2,0-13,0.1-16.1,0v-3.5l0.5-0.1c1.1,0,2-1,1.9-2.1v0c0-1.1-1-2-2.1-2l-0.3,0.1v-0.8l0.3,0
		c1-0.1,1.7-0.9,1.7-1.9l0-0.9c0-1-0.9-1.9-2-1.8h0v-1.1h0c1.1,0,2.1-1,2-2.1l0-0.5c0-1.1-0.9-2-2-2l0,0v-1c0,0,2-1,2-2.2l0-0.4
		c0-1.1-0.9-2-2-2.1h0v-3l16.1,0v8.4L21.1,21c-2.1,0.5-3.5,2.4-3.5,4.6v0c0,0.3,0.3,0.6,0.6,0.6l8.7,1L26.9,38.5L26.9,38.5
		L26.9,38.5z"/>
</g>
</svg>
