<?xml version="1.0" encoding="utf-8"?>
<!-- Generator: Adobe Illustrator 24.1.3, SVG Export Plug-In . SVG Version: 6.00 Build 0)  -->
<svg version="1.1" id="Capa_1" xmlns="http://www.w3.org/2000/svg" xmlns:xlink="http://www.w3.org/1999/xlink" x="0px" y="0px"
	 viewBox="0 0 50 50" style="enable-background:new 0 0 50 50;" xml:space="preserve">
<style type="text/css">
	.st0{fill:none;stroke:#FFFFFF;stroke-width:2;stroke-linecap:round;stroke-linejoin:round;stroke-miterlimit:10;}
	.st1{fill:#FFFFFF;}
	.st2{fill:none;stroke:#FFFFFF;stroke-width:1.5;stroke-linecap:round;stroke-linejoin:round;stroke-miterlimit:10;}
</style>
<g>
	<g>
		<path class="st1" d="M33.7,18.7c0.5,0,0.9-0.1,1.3-0.4l1,1l1-1l-1-1c0.2-0.4,0.4-0.8,0.4-1.3c0-1.5-1.2-2.7-2.7-2.7
			c-0.7,0-1.4,0.3-1.9,0.8c-0.5,0.5-0.8,1.2-0.8,1.9c0,0.7,0.3,1.4,0.8,1.9C32.3,18.5,33,18.7,33.7,18.7z M32.8,15.2
			c0.2-0.2,0.6-0.4,0.9-0.4c0.7,0,1.3,0.6,1.3,1.3c0,0.7-0.6,1.3-1.3,1.3c-0.3,0-0.7-0.1-0.9-0.4c-0.2-0.2-0.4-0.6-0.4-0.9
			C32.5,15.7,32.6,15.4,32.8,15.2z"/>
	</g>
	<g>
		<path class="st1" d="M9.9,10.7v11.6h30.3V10.7H9.9z M38,20.1H12v-7.3h26V20.1z"/>
	</g>
	<g>
		<rect x="14.2" y="15.6" class="st1" width="14.7" height="1.7"/>
	</g>
	<g>
		<rect x="10.9" y="28.7" class="st1" width="28.2" height="2.1"/>
	</g>
	<g>
		<rect x="10.9" y="24.4" class="st1" width="14.1" height="2.1"/>
	</g>
	<g>
		<rect x="10.9" y="37.2" class="st1" width="28.2" height="2.1"/>
	</g>
	<g>
		<rect x="10.9" y="32.9" class="st1" width="14.1" height="2.1"/>
	</g>
</g>
</svg>
