<?xml version="1.0" encoding="utf-8"?>
<!-- Generator: Adobe Illustrator 24.1.3, SVG Export Plug-In . SVG Version: 6.00 Build 0)  -->
<svg version="1.1" id="Capa_1" xmlns="http://www.w3.org/2000/svg" xmlns:xlink="http://www.w3.org/1999/xlink" x="0px" y="0px"
	 viewBox="0 0 345.6 354.4" style="enable-background:new 0 0 345.6 354.4;" xml:space="preserve">
<style type="text/css">
	.st0{fill:#EBBB00;}
	.st1{fill:#FFFFFF;}
	.st2{fill:#808385;}
	.st3{fill:url(#SVGID_1_);}
	.st4{fill:url(#SVGID_2_);}
	.st5{filter:url(#Adobe_OpacityMaskFilter);}
	.st6{filter:url(#Adobe_OpacityMaskFilter_1_);}
	.st7{mask:url(#SVGID_3_);fill:url(#SVGID_4_);}
	.st8{fill:url(#SVGID_5_);}
	.st9{filter:url(#Adobe_OpacityMaskFilter_2_);}
	.st10{filter:url(#Adobe_OpacityMaskFilter_3_);}
	.st11{mask:url(#SVGID_6_);fill:url(#SVGID_7_);}
	.st12{opacity:0.4;fill:url(#SVGID_8_);}
	.st13{filter:url(#Adobe_OpacityMaskFilter_4_);}
	.st14{filter:url(#Adobe_OpacityMaskFilter_5_);}
	.st15{mask:url(#SVGID_9_);fill:url(#SVGID_10_);}
	.st16{opacity:0.74;fill:url(#SVGID_11_);}
	.st17{fill:#828386;}
	.st18{fill:url(#SVGID_12_);}
	.st19{fill:url(#SVGID_13_);}
	.st20{filter:url(#Adobe_OpacityMaskFilter_6_);}
	.st21{filter:url(#Adobe_OpacityMaskFilter_7_);}
	.st22{mask:url(#SVGID_14_);fill:url(#SVGID_15_);}
	.st23{fill:url(#SVGID_16_);}
	.st24{filter:url(#Adobe_OpacityMaskFilter_8_);}
	.st25{filter:url(#Adobe_OpacityMaskFilter_9_);}
	.st26{mask:url(#SVGID_17_);fill:url(#SVGID_18_);}
	.st27{opacity:0.4;fill:url(#SVGID_19_);}
	.st28{filter:url(#Adobe_OpacityMaskFilter_10_);}
	.st29{filter:url(#Adobe_OpacityMaskFilter_11_);}
	.st30{mask:url(#SVGID_20_);fill:url(#SVGID_21_);}
	.st31{opacity:0.74;fill:url(#SVGID_22_);}
	.st32{fill:url(#SVGID_23_);}
	.st33{fill:url(#SVGID_24_);}
	.st34{filter:url(#Adobe_OpacityMaskFilter_12_);}
	.st35{filter:url(#Adobe_OpacityMaskFilter_13_);}
	.st36{mask:url(#SVGID_25_);fill:url(#SVGID_26_);}
	.st37{fill:url(#SVGID_27_);}
	.st38{filter:url(#Adobe_OpacityMaskFilter_14_);}
	.st39{filter:url(#Adobe_OpacityMaskFilter_15_);}
	.st40{mask:url(#SVGID_28_);fill:url(#SVGID_29_);}
	.st41{opacity:0.4;fill:url(#SVGID_30_);}
	.st42{filter:url(#Adobe_OpacityMaskFilter_16_);}
	.st43{filter:url(#Adobe_OpacityMaskFilter_17_);}
	.st44{mask:url(#SVGID_31_);fill:url(#SVGID_32_);}
	.st45{opacity:0.74;fill:url(#SVGID_33_);}
	.st46{fill:url(#SVGID_34_);}
	.st47{fill:url(#SVGID_35_);}
	.st48{filter:url(#Adobe_OpacityMaskFilter_18_);}
	.st49{filter:url(#Adobe_OpacityMaskFilter_19_);}
	.st50{mask:url(#SVGID_36_);fill:url(#SVGID_37_);}
	.st51{fill:url(#SVGID_38_);}
	.st52{filter:url(#Adobe_OpacityMaskFilter_20_);}
	.st53{filter:url(#Adobe_OpacityMaskFilter_21_);}
	.st54{mask:url(#SVGID_39_);fill:url(#SVGID_40_);}
	.st55{opacity:0.4;fill:url(#SVGID_41_);}
	.st56{filter:url(#Adobe_OpacityMaskFilter_22_);}
	.st57{filter:url(#Adobe_OpacityMaskFilter_23_);}
	.st58{mask:url(#SVGID_42_);fill:url(#SVGID_43_);}
	.st59{opacity:0.74;fill:url(#SVGID_44_);}
</style>
<g>
	<polygon class="st1" points="39.4,350.4 4.4,74.9 341.6,4.9 341.6,350.4 	"/>
	<path class="st0" d="M337.6,9.8v336.6H42.9L8.9,78.1L337.6,9.8 M345.6,0L0,71.8l35.9,282.7h309.7V0L345.6,0z"/>
</g>
<g>
	<g>
		<polygon class="st0" points="205.9,70.8 155.1,70.8 129.8,114.7 155.1,158.7 205.9,158.7 231.3,114.7 		"/>
	</g>
</g>
<g>
	<g>
		<g>
			<path class="st1" d="M180.5,129.7c-8.3,0-15-6.7-15-15s6.7-15,15-15c8.3,0,15,6.7,15,15S188.8,129.7,180.5,129.7z M180.5,101.9
				c-7.1,0-12.8,5.8-12.8,12.8c0,7.1,5.8,12.8,12.8,12.8c7.1,0,12.8-5.8,12.8-12.8C193.4,107.6,187.6,101.9,180.5,101.9z"/>
		</g>
		<g>
			<path class="st1" d="M180.5,135.8c-11.6,0-21.1-9.5-21.1-21.1s9.5-21.1,21.1-21.1c11.6,0,21.1,9.5,21.1,21.1
				S192.2,135.8,180.5,135.8z M180.5,96.6c-10,0-18.1,8.1-18.1,18.1s8.1,18.1,18.1,18.1c10,0,18.1-8.1,18.1-18.1
				S190.5,96.6,180.5,96.6z"/>
		</g>
		<g>
			<path class="st1" d="M180.5,143c-15.6,0-28.3-12.7-28.3-28.3s12.7-28.3,28.3-28.3c15.6,0,28.3,12.7,28.3,28.3
				S196.1,143,180.5,143z M180.5,90.5c-13.4,0-24.2,10.9-24.2,24.2s10.9,24.2,24.2,24.2c13.4,0,24.2-10.9,24.2-24.2
				S193.9,90.5,180.5,90.5z"/>
		</g>
	</g>
</g>
<g>
	<g>
		<polygon class="st0" points="202,174.1 159.1,174.1 137.6,211.3 159.1,248.4 202,248.4 223.4,211.3 		"/>
	</g>
</g>
<g>
	<g>
		<g>
			<path class="st1" d="M180.5,223.9c-7,0-12.7-5.7-12.7-12.7c0-7,5.7-12.7,12.7-12.7c7,0,12.7,5.7,12.7,12.7
				C193.2,218.2,187.5,223.9,180.5,223.9z M180.5,200.4c-6,0-10.8,4.9-10.8,10.8c0,6,4.9,10.8,10.8,10.8c6,0,10.8-4.9,10.8-10.8
				C191.4,205.3,186.5,200.4,180.5,200.4z"/>
		</g>
		<g>
			<path class="st1" d="M180.5,229.1c-9.8,0-17.9-8-17.9-17.9c0-9.8,8-17.9,17.9-17.9c9.8,0,17.9,8,17.9,17.9
				C198.4,221.1,190.4,229.1,180.5,229.1z M180.5,196c-8.4,0-15.3,6.9-15.3,15.3s6.9,15.3,15.3,15.3c8.4,0,15.3-6.9,15.3-15.3
				S189,196,180.5,196z"/>
		</g>
		<g>
			<path class="st1" d="M180.5,235.2c-13.2,0-23.9-10.7-23.9-23.9c0-13.2,10.7-23.9,23.9-23.9c13.2,0,23.9,10.7,23.9,23.9
				C204.4,224.5,193.7,235.2,180.5,235.2z M180.5,190.8c-11.3,0-20.5,9.2-20.5,20.5c0,11.3,9.2,20.5,20.5,20.5
				c11.3,0,20.5-9.2,20.5-20.5C201,200,191.8,190.8,180.5,190.8z"/>
		</g>
	</g>
</g>
<g>
	<g>
		<polygon class="st0" points="120.5,122.4 69.7,122.4 44.3,166.4 69.7,210.3 120.5,210.3 145.8,166.4 		"/>
	</g>
</g>
<g>
	<g>
		<g>
			<path class="st1" d="M95.1,181.4c-8.3,0-15-6.7-15-15c0-8.3,6.7-15,15-15c8.3,0,15,6.7,15,15C110.1,174.6,103.3,181.4,95.1,181.4
				z M95.1,153.6c-7.1,0-12.8,5.8-12.8,12.8s5.8,12.8,12.8,12.8c7.1,0,12.8-5.8,12.8-12.8S102.2,153.6,95.1,153.6z"/>
		</g>
		<g>
			<path class="st1" d="M95.1,187.5c-11.6,0-21.1-9.5-21.1-21.1c0-11.6,9.5-21.1,21.1-21.1s21.1,9.5,21.1,21.1
				C116.2,178,106.7,187.5,95.1,187.5z M95.1,148.3c-10,0-18.1,8.1-18.1,18.1s8.1,18.1,18.1,18.1c10,0,18.1-8.1,18.1-18.1
				S105.1,148.3,95.1,148.3z"/>
		</g>
		<g>
			<path class="st1" d="M95.1,194.7c-15.6,0-28.3-12.7-28.3-28.3s12.7-28.3,28.3-28.3c15.6,0,28.3,12.7,28.3,28.3
				S110.7,194.7,95.1,194.7z M95.1,142.1c-13.4,0-24.2,10.9-24.2,24.2c0,13.4,10.9,24.2,24.2,24.2c13.4,0,24.2-10.9,24.2-24.2
				C119.3,153,108.4,142.1,95.1,142.1z"/>
		</g>
	</g>
</g>
<g>
	<g>
		<polygon class="st0" points="291.3,122.4 240.6,122.4 215.2,166.4 240.6,210.3 291.3,210.3 316.7,166.4 		"/>
	</g>
</g>
<g>
	<g>
		<g>
			<path class="st1" d="M266,181.4c-8.3,0-15-6.7-15-15c0-8.3,6.7-15,15-15c8.3,0,15,6.7,15,15C280.9,174.6,274.2,181.4,266,181.4z
				 M266,153.6c-7.1,0-12.8,5.8-12.8,12.8s5.8,12.8,12.8,12.8c7.1,0,12.8-5.8,12.8-12.8S273,153.6,266,153.6z"/>
		</g>
		<g>
			<path class="st1" d="M266,187.5c-11.6,0-21.1-9.5-21.1-21.1c0-11.6,9.5-21.1,21.1-21.1c11.6,0,21.1,9.5,21.1,21.1
				C287.1,178,277.6,187.5,266,187.5z M266,148.3c-10,0-18.1,8.1-18.1,18.1s8.1,18.1,18.1,18.1c10,0,18.1-8.1,18.1-18.1
				S275.9,148.3,266,148.3z"/>
		</g>
		<g>
			<path class="st1" d="M266,194.7c-15.6,0-28.3-12.7-28.3-28.3s12.7-28.3,28.3-28.3c15.6,0,28.3,12.7,28.3,28.3
				S281.6,194.7,266,194.7z M266,142.1c-13.4,0-24.2,10.9-24.2,24.2c0,13.4,10.9,24.2,24.2,24.2c13.4,0,24.2-10.9,24.2-24.2
				C290.2,153,279.3,142.1,266,142.1z"/>
		</g>
	</g>
</g>
<g>
	<g>
		<polygon class="st0" points="267.4,221.8 236.2,221.8 220.7,248.8 236.2,275.8 267.4,275.8 283,248.8 		"/>
	</g>
</g>
<g>
	<g>
		<g>
			<path class="st1" d="M251.8,258c-5.1,0-9.2-4.1-9.2-9.2s4.1-9.2,9.2-9.2c5.1,0,9.2,4.1,9.2,9.2S256.9,258,251.8,258z
				 M251.8,240.9c-4.3,0-7.9,3.5-7.9,7.9s3.5,7.9,7.9,7.9c4.3,0,7.9-3.5,7.9-7.9S256.2,240.9,251.8,240.9z"/>
		</g>
		<g>
			<path class="st1" d="M251.8,261.8c-7.2,0-13-5.8-13-13s5.8-13,13-13s13,5.8,13,13S259,261.8,251.8,261.8z M251.8,237.7
				c-6.1,0-11.1,5-11.1,11.1s5,11.1,11.1,11.1c6.1,0,11.1-5,11.1-11.1S258,237.7,251.8,237.7z"/>
		</g>
		<g>
			<path class="st1" d="M251.8,266.2c-9.6,0-17.4-7.8-17.4-17.4c0-9.6,7.8-17.4,17.4-17.4c9.6,0,17.4,7.8,17.4,17.4
				C269.2,258.4,261.4,266.2,251.8,266.2z M251.8,233.9c-8.2,0-14.9,6.7-14.9,14.9s6.7,14.9,14.9,14.9c8.2,0,14.9-6.7,14.9-14.9
				S260,233.9,251.8,233.9z"/>
		</g>
	</g>
</g>
<g>
	<g>
		<polygon class="st0" points="263.1,286.1 240.6,286.1 229.3,305.6 240.6,325.1 263.1,325.1 274.3,305.6 		"/>
	</g>
</g>
<g>
	<g>
		<g>
			<path class="st1" d="M251.8,312.2c-3.7,0-6.6-3-6.6-6.6c0-3.7,3-6.6,6.6-6.6c3.7,0,6.6,3,6.6,6.6
				C258.5,309.3,255.5,312.2,251.8,312.2z M251.8,299.9c-3.1,0-5.7,2.6-5.7,5.7c0,3.1,2.6,5.7,5.7,5.7c3.1,0,5.7-2.6,5.7-5.7
				C257.5,302.5,255,299.9,251.8,299.9z"/>
		</g>
		<g>
			<path class="st1" d="M251.8,315c-5.2,0-9.4-4.2-9.4-9.4s4.2-9.4,9.4-9.4c5.2,0,9.4,4.2,9.4,9.4S257,315,251.8,315z M251.8,297.6
				c-4.4,0-8,3.6-8,8c0,4.4,3.6,8,8,8c4.4,0,8-3.6,8-8C259.8,301.2,256.2,297.6,251.8,297.6z"/>
		</g>
		<g>
			<path class="st1" d="M251.8,318.1c-6.9,0-12.5-5.6-12.5-12.5c0-6.9,5.6-12.5,12.5-12.5c6.9,0,12.5,5.6,12.5,12.5
				C264.4,312.5,258.7,318.1,251.8,318.1z M251.8,294.9c-5.9,0-10.7,4.8-10.7,10.7c0,5.9,4.8,10.7,10.7,10.7
				c5.9,0,10.7-4.8,10.7-10.7C262.6,299.7,257.7,294.9,251.8,294.9z"/>
		</g>
	</g>
</g>
<g>
	<g>
		<g>
			<path class="st2" d="M165.9,282.3c2.4,0,4.4,2,4.4,4.4v32.7c0,2.4-2,4.4-4.4,4.4H69c-2.4,0-4.4-2-4.4-4.4v-32.7
				c0-2.4,2-4.4,4.4-4.4H165.9 M165.9,280.2H69c-3.6,0-6.5,2.9-6.5,6.5v32.7c0,3.6,2.9,6.5,6.5,6.5h96.9c3.6,0,6.5-2.9,6.5-6.5
				v-32.7C172.4,283.1,169.5,280.2,165.9,280.2L165.9,280.2z"/>
		</g>
	</g>
	<g>
		<g>
			<path class="st2" d="M93,308.2c0,0.9-0.2,1.7-0.5,2.4s-0.9,1.3-1.5,1.7c-0.6,0.5-1.4,0.8-2.2,1.1c-0.8,0.2-1.7,0.4-2.7,0.4H75.7
				v-21.4h11.5c0.7,0,1.4,0.2,2,0.5c0.6,0.3,1.1,0.7,1.5,1.3c0.4,0.5,0.7,1.1,1,1.8c0.2,0.7,0.3,1.3,0.3,2c0,1-0.3,2-0.8,2.9
				c-0.5,0.9-1.3,1.6-2.3,2c1.2,0.4,2.2,1,2.9,1.9C92.7,305.6,93,306.8,93,308.2z M79.9,295.9v5.4h5.6c0.7,0,1.3-0.2,1.8-0.7
				c0.5-0.5,0.7-1.1,0.7-2c0-0.8-0.2-1.5-0.7-2c-0.5-0.5-1-0.7-1.7-0.7H79.9z M88.8,307.4c0-0.4-0.1-0.7-0.2-1.1
				c-0.1-0.4-0.3-0.7-0.5-0.9s-0.5-0.5-0.8-0.6c-0.3-0.2-0.6-0.2-1-0.2h-6.4v5.6h6.2c0.4,0,0.7-0.1,1.1-0.2c0.3-0.1,0.6-0.3,0.9-0.6
				c0.2-0.3,0.4-0.5,0.6-0.9C88.7,308.2,88.8,307.8,88.8,307.4z"/>
			<path class="st2" d="M101.9,292.3h3.7l8.1,21.4h-4.3l-2-5.3H100l-2,5.3h-4.3L101.9,292.3z M106.7,305.5l-3-8.4l-3.1,8.4H106.7z"
				/>
			<path class="st2" d="M128.5,297.9c-0.1-0.1-0.4-0.3-0.8-0.6c-0.4-0.2-0.8-0.5-1.4-0.7c-0.5-0.2-1.1-0.4-1.7-0.6
				c-0.6-0.2-1.3-0.2-1.9-0.2c-1.1,0-2,0.2-2.6,0.6c-0.6,0.4-0.8,1-0.8,1.8c0,0.4,0.1,0.8,0.3,1.1c0.2,0.3,0.5,0.5,0.9,0.8
				c0.4,0.2,0.9,0.4,1.5,0.6s1.3,0.4,2.1,0.6c1,0.3,2,0.6,2.9,0.9c0.9,0.3,1.6,0.7,2.2,1.2c0.6,0.5,1.1,1.1,1.4,1.7
				c0.3,0.7,0.5,1.5,0.5,2.5c0,1.1-0.2,2.1-0.6,2.9c-0.4,0.8-1,1.5-1.8,2c-0.7,0.5-1.6,0.9-2.5,1.1c-1,0.2-2,0.3-3,0.3
				c-1.6,0-3.2-0.2-4.8-0.7c-1.6-0.5-3-1.2-4.2-2.1l1.8-3.6c0.2,0.2,0.5,0.4,1,0.7c0.5,0.3,1,0.6,1.7,0.9c0.6,0.3,1.4,0.5,2.1,0.7
				c0.8,0.2,1.6,0.3,2.4,0.3c2.3,0,3.4-0.7,3.4-2.2c0-0.5-0.1-0.9-0.4-1.2c-0.3-0.3-0.6-0.6-1.1-0.8c-0.5-0.2-1.1-0.5-1.8-0.7
				c-0.7-0.2-1.4-0.4-2.3-0.7c-1-0.3-1.9-0.6-2.7-0.9c-0.8-0.3-1.4-0.7-1.9-1.2c-0.5-0.5-0.9-1-1.1-1.6c-0.3-0.6-0.4-1.3-0.4-2.1
				c0-1.1,0.2-2.1,0.6-2.9c0.4-0.8,1-1.5,1.7-2.1c0.7-0.6,1.5-1,2.5-1.3c0.9-0.3,2-0.4,3-0.4c1.5,0,2.9,0.2,4.2,0.7
				c1.3,0.5,2.4,1,3.3,1.7L128.5,297.9z"/>
			<path class="st2" d="M134.3,313.7v-21.4h4.2v21.4H134.3z"/>
			<path class="st2" d="M141.6,302.9c0-1.3,0.2-2.6,0.7-3.9c0.5-1.3,1.2-2.4,2.1-3.4c0.9-1,2-1.8,3.3-2.4c1.3-0.6,2.8-0.9,4.5-0.9
				c2,0,3.7,0.4,5.1,1.3c1.4,0.9,2.5,2,3.2,3.4l-3.2,2.2c-0.3-0.6-0.6-1.1-1-1.5c-0.4-0.4-0.8-0.7-1.3-1c-0.5-0.2-0.9-0.4-1.4-0.5
				c-0.5-0.1-1-0.2-1.5-0.2c-1,0-2,0.2-2.7,0.6c-0.8,0.4-1.4,1-1.9,1.6s-0.9,1.4-1.2,2.3c-0.3,0.9-0.4,1.7-0.4,2.5
				c0,0.9,0.2,1.9,0.5,2.7c0.3,0.9,0.7,1.6,1.3,2.3c0.6,0.7,1.2,1.2,2,1.6c0.8,0.4,1.6,0.6,2.5,0.6c0.5,0,1-0.1,1.5-0.2
				c0.5-0.1,1-0.3,1.5-0.6c0.5-0.3,0.9-0.6,1.3-1c0.4-0.4,0.7-0.9,1-1.5l3.4,2c-0.3,0.8-0.8,1.5-1.5,2.1s-1.3,1.1-2.1,1.6
				c-0.8,0.4-1.6,0.7-2.5,1c-0.9,0.2-1.8,0.3-2.7,0.3c-1.5,0-2.9-0.3-4.2-1c-1.3-0.6-2.4-1.5-3.3-2.5c-0.9-1-1.6-2.2-2.1-3.5
				C141.9,305.6,141.6,304.2,141.6,302.9z"/>
		</g>
	</g>
</g>
</svg>
