<?xml version="1.0" encoding="utf-8"?>
<!-- Generator: Adobe Illustrator 25.3.1, SVG Export Plug-In . SVG Version: 6.00 Build 0)  -->
<svg version="1.1" id="Layer_1" xmlns="http://www.w3.org/2000/svg" xmlns:xlink="http://www.w3.org/1999/xlink" x="0px" y="0px"
	 viewBox="0 0 50 50" style="enable-background:new 0 0 50 50;" xml:space="preserve">
<style type="text/css">
	.st0{fill:#FFFFFF;}
</style>
<g>
	<path class="st0" d="M29.6,47.5l-2.6,0c-8.2,0-16.3,0-24.4,0c0-12.6,0-25.1,0-37.5c3.9,0,7.6,0,11.5,0c0,1.6,0,3.1,0,4.6
		c0,1.4,0.4,1.7,1.8,1.7c3.9,0,7.9,0,11.8,0c1.4,0,1.8-0.4,1.8-1.8c0-1.5,0-3,0-4.5c3.9,0,7.7,0,11.6,0c0,2.1,0,17.8,0,19.8
		c0,0.9,0.2,1.7,1.3,1.7c1,0,1.2-0.8,1.2-1.7c0-2.2,0.1-18.1,0-20.3c0-0.7-0.3-1.5-0.8-2.1c-1.6-2.1-3.4-4.1-5-6.2
		C37.2,0.3,36.5,0,35.3,0c-5.9,0-11.8,0-17.8,0c-0.4,0-6.6-0.1-6.9,0.1c-0.4,0.3-1,0.8-0.9,1.1c0,0.4,0.6,0.9,1,1.2
		c0.1,0.1,2.8,0.1,4.8,0.1l-1.2,4.9l0,0.1c-3.4,0-6.9,0-10.4,0C4.3,7,4.6,6.6,4.8,6.3C6,4.9,7.1,3.5,8.3,2c0.5-0.6,0.5-1.3-0.1-1.7
		C7.5-0.2,6.9,0,6.3,0.6C6.2,0.8,6,1,5.8,1.3C3.9,3.6,1.9,5.9,0,8.3C0,22,0,35.6,0,49.3C0.6,49.6,1.1,50,1.7,50
		c13.4,0,26.8,0,40.3,0c1.3,0,1.7-0.4,1.7-1.7l-2.5-0.8C37.3,47.5,33.5,47.5,29.6,47.5z M35.8,2.6c1.4,1.5,2.6,3.1,4,4.8
		c-3.5,0-7,0-10.4,0l-1-5c2.1,0,4.1,0,6.2,0C35,2.4,35.6,2.4,35.8,2.6z M16.7,7.5l0.9-5c2.9,0,5.7,0,8.6,0L27,7.3l0,0.1c0,0,0,0,0,0
		v2.4c0,0,0,0,0,0c0,1.4,0,2.6,0,4c-1.7,0-3.4,0-5.1,0c-1.7,0-3.4,0-5.2,0c0-1.3,0-2.5,0-3.9h0L16.7,7.5C16.7,7.5,16.7,7.5,16.7,7.5
		L16.7,7.5z"/>
	<path class="st0" d="M49.9,39c-0.1-0.5-0.3-0.9-0.6-1.4c-0.6-1-2.6-2.3-3.8-2.8c-1.9-0.7-3.9-1.3-5.9-2c-3.2-1.1-3.2-1.1-4.5,2.2
		c0,0.1-0.2,0.2-0.7,0.6c-0.2-0.8-0.6-1.4-0.5-1.9c0.2-3.6-0.5-6.9-2.6-9.9c-4.6-6.6-13.9-8-20.3-2.9c-6.3,5-7.1,14.8-1.7,20.8
		c6.5,7.1,17.5,6.1,22.5-2.2c0.5-0.8,0.8-1.6,1.9-0.6c0,0.2-0.1,0.4-0.1,0.7c-0.8,2.8-0.7,3,1.9,3.9c2.9,1,3.5,1.3,6.5,2.1
		c1.4,0.4,3,0.4,4.3,0c1.3-0.4,2.4-1.3,2.9-2.6C49.9,41.7,50.2,40.3,49.9,39z M24.8,41.7c-5.4,2.8-11.7,0.6-14.4-4.9
		C7.8,31.5,9.9,25,15.2,22.4c5.3-2.7,11.6-0.4,14.3,5C32,32.7,29.9,39.1,24.8,41.7z M46.3,41c-0.1,1.2-1.2,1.8-2.4,1.5
		c-3-1-3.6-1.2-6.5-2.2c0.4-1.3,0.9-2.5,1.4-3.9c2.9,1,3.6,1,6.5,2.2C45.8,38.8,46.3,40.2,46.3,41z"/>
	<path class="st0" d="M22.9,23.6C22,23.2,21,23,19.8,23c-1.2,0-2.3,0.3-3.3,0.8c-0.9,0.5-1.6,1.2-2.1,2c-0.5,0.8-0.7,1.6-0.7,2.3
		c0,0.4,0.2,0.7,0.5,1c0.3,0.3,0.7,0.5,1.1,0.5c0.8,0,1.3-0.5,1.5-1.4c0.3-0.9,0.6-1.5,1.1-2c0.4-0.5,1.1-0.7,1.9-0.7
		c0.8,0,1.4,0.2,1.8,0.7c0.5,0.4,0.7,1,0.7,1.6c0,0.3-0.1,0.6-0.2,0.9c-0.2,0.3-0.3,0.5-0.6,0.8s-0.6,0.6-1.1,1
		c-0.6,0.5-1,1-1.4,1.3c-0.3,0.4-0.6,0.8-0.8,1.3c-0.2,0.5-0.3,1.1-0.3,1.8c0,0.5,0.1,1,0.4,1.2c0.3,0.3,0.6,0.4,1,0.4
		c0.8,0,1.3-0.4,1.4-1.3c0.1-0.4,0.2-0.7,0.2-0.8c0-0.2,0.1-0.3,0.2-0.5c0.1-0.2,0.2-0.3,0.4-0.5c0.2-0.2,0.4-0.4,0.7-0.7
		c1-0.9,1.7-1.5,2-1.9c0.4-0.4,0.7-0.8,1-1.3c0.3-0.5,0.4-1.1,0.4-1.8c0-0.9-0.2-1.7-0.7-2.4C24.5,24.6,23.8,24,22.9,23.6z"/>
	<path class="st0" d="M19.5,37.7c-0.5,0-0.9,0.2-1.3,0.5c-0.4,0.3-0.5,0.8-0.5,1.3c0,0.6,0.2,1,0.5,1.3c0.4,0.3,0.8,0.5,1.3,0.5
		c0.5,0,0.9-0.2,1.2-0.5c0.4-0.3,0.5-0.8,0.5-1.3c0-0.5-0.2-0.9-0.5-1.3C20.4,37.9,20,37.7,19.5,37.7z"/>
</g>
</svg>
