<svg id="Capa_1" data-name="Capa 1" xmlns="http://www.w3.org/2000/svg" viewBox="0 0 50 50"><defs><style>.cls-1{fill:none;}.cls-2{fill:#fff;}</style></defs><path class="cls-1" d="M10.23,43.91a.2.2,0,0,0,.09.16H14.2V40.59h-4Z"/><path class="cls-1" d="M42.34,19.53v-3.7a.18.18,0,0,0-.18-.18H33.89v3.88Z"/><rect class="cls-1" x="29.71" y="20.63" width="3.08" height="4.03"/><rect class="cls-1" x="10.23" y="32.89" width="3.97" height="1.9"/><rect class="cls-1" x="15.3" y="32.89" width="8.15" height="1.9"/><rect class="cls-1" x="29.71" y="15.65" width="3.08" height="3.88"/><rect class="cls-1" x="15.3" y="40.59" width="8.15" height="3.48"/><rect class="cls-1" x="10.23" y="35.88" width="3.97" height="3.61"/><rect class="cls-1" x="15.3" y="35.88" width="8.15" height="3.61"/><path class="cls-2" d="M29.65,31h2.47v-1.1H29.71v.57A2.33,2.33,0,0,1,29.65,31Z"/><path class="cls-2" d="M32.79,15.65v3.88H29.71v1.1h3.08v4H29.71v1.1h2.55a3,3,0,0,1,1.63-1.89V20.63h8.45v4h-.43a3,3,0,0,1,.72,2v9.2l.81-.32V15.83a1.28,1.28,0,0,0-1.28-1.28H29.71v1.1Zm1.1,0h8.27a.18.18,0,0,1,.18.18v3.7H33.89V15.65Z"/><path class="cls-2" d="M24.55,44.07h0V40.59h2.74l-.76-1-.07-.11H24.55V35.88h2a3,3,0,0,1,2-1.1h-4V32.89h-1.1v1.89H15.3V32.89H14.2v1.89h-4V32.89H9.14v11a1.24,1.24,0,0,0,.55,1v.21h.46a1.12,1.12,0,0,0,.27,0H30.83L30,44.07Zm-10.35,0H10.32a.2.2,0,0,1-.09-.16V40.59h4Zm0-4.58h-4V35.88h4Zm9.25,4.58H15.3V40.59h8.15Zm0-4.58H15.3V35.88h8.15Z"/><path class="cls-2" d="M46.2,37.5a.47.47,0,0,0-.53-.15l-5.6,2.21v-13a.45.45,0,0,0-.45-.45H35.13a.45.45,0,0,0-.44.45v13l-5.61-2.21a.46.46,0,0,0-.52.15.44.44,0,0,0-.09.27.39.39,0,0,0,.1.27l8.45,11a.47.47,0,0,0,.72,0l8.45-11A.44.44,0,0,0,46.2,37.5Z"/><path class="cls-2" d="M20.77.78v30h6.94V.78Zm2.68,3.68H25V14.73H23.45Zm.79,23a1.51,1.51,0,0,1-1.32-1.65,1.51,1.51,0,0,1,1.32-1.65,1.51,1.51,0,0,1,1.32,1.65A1.51,1.51,0,0,1,24.24,27.43Z"/><path class="cls-2" d="M12.24,30.78h6.94V.78H12.24ZM14.92,4.46H16.5V14.73H14.92Zm.79,19.67A1.51,1.51,0,0,1,17,25.78a1.51,1.51,0,0,1-1.32,1.65,1.51,1.51,0,0,1-1.32-1.65A1.51,1.51,0,0,1,15.71,24.13Z"/><path class="cls-2" d="M3.71,30.78h7V.78H3.71ZM6.39,4.46H8V14.73H6.39Zm.79,19.67A1.51,1.51,0,0,1,8.5,25.78a1.51,1.51,0,0,1-1.32,1.65,1.51,1.51,0,0,1-1.31-1.65A1.51,1.51,0,0,1,7.18,24.13Z"/></svg>