<?xml version="1.0" encoding="utf-8"?>
<!-- Generator: Adobe Illustrator 24.1.3, SVG Export Plug-In . SVG Version: 6.00 Build 0)  -->
<svg version="1.1" id="Capa_1" xmlns="http://www.w3.org/2000/svg" xmlns:xlink="http://www.w3.org/1999/xlink" x="0px" y="0px"
	 viewBox="0 0 50 50" style="enable-background:new 0 0 50 50;" xml:space="preserve">
<style type="text/css">
	.st0{fill:none;stroke:#FFFFFF;stroke-width:2;stroke-linecap:round;stroke-linejoin:round;stroke-miterlimit:10;}
	.st1{fill:#FFFFFF;}
	.st2{fill:none;stroke:#FFFFFF;stroke-width:1.5;stroke-linecap:round;stroke-linejoin:round;stroke-miterlimit:10;}
</style>
<g>
	<path class="st0" d="M9.2,28.5l-0.6,0c-2.9-0.8-5.1-3.5-5.1-6.6c0-3.8,3.1-6.9,6.9-6.9c0.2,0,0.4,0,0.6,0c1.1,0.1,2.1-0.6,2.4-1.7
		c0.9-3.7,4.2-6.3,8-6.3c2.2,0,4.2,0.8,5.8,2.4c0.5,0.5,1.3,0.7,2,0.6c0.5-0.1,0.9-0.1,1.4-0.1c2.7,0,5,1.5,6.2,3.9
		c0.4,0.8,1.3,1.3,2.2,1.3c0.2,0,0.5,0,0.7,0c3.8,0,6.9,3.1,6.9,6.9c0,3.4-2.4,6.2-5.6,6.8"/>
	<g>
		<path class="st1" d="M25,20.9v-0.8c0-0.3-0.2-0.6-0.5-0.8c-0.3-0.2-0.7-0.1-0.9,0.1l-4.1,3.1c-0.2,0.2-0.4,0.4-0.4,0.7
			c0,0.3,0.1,0.5,0.4,0.7l4.1,3.1c0.3,0.2,0.6,0.2,0.9,0.1c0.3-0.2,0.5-0.5,0.5-0.8v-0.8c3.4,0.3,6.2,2.9,6.8,6.2
			c0.1,0.7,0.8,1.2,1.5,1.2h1.5c0.4,0,0.9-0.2,1.1-0.5c0.3-0.3,0.4-0.8,0.3-1.2C35.4,25.6,30.8,21.3,25,20.9z"/>
	</g>
	<g>
		<path class="st1" d="M30.5,38.3l-4.1-3.1c-0.3-0.2-0.6-0.2-0.9-0.1C25.2,35.3,25,35.6,25,36v0.8c-3.4-0.3-6.2-2.9-6.8-6.2
			c-0.1-0.7-0.7-1.2-1.5-1.2h-1.5c-0.4,0-0.9,0.2-1.1,0.5c-0.3,0.3-0.4,0.8-0.3,1.2c0.8,5.6,5.5,9.9,11.3,10.3v0.8
			c0,0.3,0.2,0.6,0.5,0.8c0.3,0.2,0.7,0.1,0.9-0.1l4.1-3.1c0.2-0.2,0.4-0.4,0.4-0.7C30.8,38.8,30.7,38.5,30.5,38.3z"/>
	</g>
</g>
</svg>
