<?xml version="1.0" encoding="utf-8"?>
<!-- Generator: Adobe Illustrator 24.1.3, SVG Export Plug-In . SVG Version: 6.00 Build 0)  -->
<svg version="1.1" id="Capa_1" xmlns="http://www.w3.org/2000/svg" xmlns:xlink="http://www.w3.org/1999/xlink" x="0px" y="0px"
	 viewBox="0 0 50 50" style="enable-background:new 0 0 50 50;" xml:space="preserve">
<style type="text/css">
	.st0{fill:none;stroke:#FFFFFF;stroke-width:2;stroke-linecap:round;stroke-linejoin:round;stroke-miterlimit:10;}
	.st1{fill:#FFFFFF;}
	.st2{fill:none;stroke:#FFFFFF;stroke-width:1.5;stroke-linecap:round;stroke-linejoin:round;stroke-miterlimit:10;}
</style>
<g>
	<path class="st1" d="M21.8,37.2L21.8,37.2L21.8,37.2v-3.5h2.7l-0.8-1c0,0,0-0.1-0.1-0.1h-1.9V29h2c0.5-0.6,1.2-1,2-1.1h-4v-3.8h7.6
		V23h-7.6v-4.1h7.7c0.2-0.8,0.8-1.5,1.6-1.9v-3.2h8.5v4h-0.4c0.4,0.5,0.7,1.2,0.7,1.9v9.2l0.8-0.3V8.9c0-0.7-0.6-1.3-1.3-1.3H7.7
		C7,7.7,6.4,8.2,6.4,8.9V37c0,0.4,0.2,0.8,0.5,1v0.2h0.5c0.1,0,0.2,0,0.3,0h20.4l-0.9-1.1H21.8z M31.2,8.8h8.3
		c0.1,0,0.2,0.1,0.2,0.2v3.7h-8.5V8.8L31.2,8.8L31.2,8.8z M21.8,8.8h8.2v3.9h-8.2V8.8z M21.8,13.7h8.2v4h-8.2V13.7z M11.5,37.2H7.6
		c-0.1,0-0.1-0.1-0.1-0.2v-3.3h4V37.2z M11.5,32.6h-4V29h4V32.6z M11.5,27.9h-4v-3.8h4V27.9z M11.5,23h-4v-4.1h4V23z M11.5,17.8h-4
		v-4h4V17.8z M20.7,37.2h-8.1v-3.5h8.1V37.2z M20.7,32.6h-8.1V29h8.1V32.6z M20.7,27.9h-8.1v-3.8h8.1V27.9z M20.7,23h-8.1v-4.1h8.1
		V23z M20.7,17.8h-8.1v-4h8.1V17.8z M20.7,12.6h-8.1V8.8h8.1V12.6z"/>
	<g>
		<path class="st1" d="M43.5,31.2l-8.5,11c-0.1,0.1-0.2,0.2-0.4,0.2c-0.1,0-0.3-0.1-0.4-0.2l-8.5-11c-0.1-0.1-0.1-0.2-0.1-0.3
			c0-0.1,0-0.2,0.1-0.3c0.1-0.2,0.3-0.2,0.5-0.1l5.6,2.2v-13c0-0.2,0.2-0.4,0.4-0.4h4.5c0.2,0,0.4,0.2,0.4,0.4v13l5.6-2.2
			c0.2-0.1,0.4,0,0.5,0.1C43.6,30.8,43.6,31,43.5,31.2z"/>
	</g>
</g>
</svg>
