<svg id="Capa_1" data-name="Capa 1" xmlns="http://www.w3.org/2000/svg" viewBox="0 0 50 50"><defs><style>.cls-1{fill:none;}.cls-2{fill:#fff;}</style></defs><path class="cls-1" d="M8.84,43.86a.17.17,0,0,0,.09.15h3.88V40.53h-4Z"/><path class="cls-1" d="M41,19.47V15.78a.18.18,0,0,0-.18-.18H32.5v3.87Z"/><rect class="cls-1" x="28.32" y="20.57" width="3.08" height="4.03"/><rect class="cls-1" x="8.84" y="32.83" width="3.97" height="1.9"/><rect class="cls-1" x="28.32" y="15.6" width="3.08" height="3.88"/><rect class="cls-1" x="8.84" y="35.83" width="3.97" height="3.61"/><rect class="cls-1" x="13.91" y="35.83" width="8.15" height="3.61"/><rect class="cls-1" x="13.91" y="32.83" width="8.15" height="1.9"/><rect class="cls-1" x="13.91" y="40.53" width="8.15" height="3.48"/><path class="cls-2" d="M23.16,44h0V40.53H25.9l-.76-1a.75.75,0,0,1-.07-.12H23.16v-3.6h2a3,3,0,0,1,2-1.1h-4v-1.9h-1.1v1.9H13.91v-1.9h-1.1v1.9h-4v-1.9H7.75v11a1.27,1.27,0,0,0,.54,1v.2h.46a1.27,1.27,0,0,0,.28,0H29.44L28.57,44ZM12.81,44H8.93a.17.17,0,0,1-.09-.15V40.53h4Zm0-4.58h-4v-3.6h4ZM22.06,44H13.91V40.53h8.15Zm0-4.58H13.91v-3.6h8.15Z"/><path class="cls-2" d="M28.26,30.92h2.47v-1.1H28.32v.57A2.33,2.33,0,0,1,28.26,30.92Z"/><path class="cls-2" d="M31.4,15.6v3.87H28.32v1.1H31.4v4H28.32v1.1h2.55a3,3,0,0,1,1.63-1.89V20.57H41v4h-.44a3,3,0,0,1,.73,1.94v9.2l.81-.32V15.78a1.28,1.28,0,0,0-1.28-1.28H28.32v1.1Zm1.1,0h8.27a.18.18,0,0,1,.18.18v3.69H32.5V15.6Z"/><path class="cls-2" d="M44.81,37.44a.45.45,0,0,0-.53-.14l-5.6,2.21v-13a.45.45,0,0,0-.45-.45H33.74a.46.46,0,0,0-.45.45v13l-5.6-2.21a.43.43,0,0,0-.52.15.44.44,0,0,0-.09.27.46.46,0,0,0,.09.27l8.46,11a.45.45,0,0,0,.72,0L44.8,38A.45.45,0,0,0,44.81,37.44Z"/><polygon class="cls-2" points="20.6 12.57 21.26 0.83 10.19 0.83 10.85 12.57 20.6 12.57"/><polygon class="cls-2" points="16.71 23.25 14.73 23.25 14.73 26.22 8.73 26.22 8.73 30.83 10.71 30.83 10.71 28.2 14.73 28.2 14.73 30.83 16.71 30.83 16.71 28.2 20.73 28.2 20.73 30.83 22.71 30.83 22.71 26.22 16.71 26.22 16.71 23.25"/><polygon class="cls-2" points="26.33 13.56 26.33 11.58 22.38 11.58 22.38 17.18 16.71 17.18 16.71 14.55 14.73 14.55 14.73 17.18 9.06 17.18 9.06 11.58 5.1 11.58 5.1 13.56 7.08 13.56 7.08 17.18 7.08 21.27 24.36 21.27 24.36 17.18 24.36 13.56 26.33 13.56"/></svg>