<?xml version="1.0" encoding="utf-8"?>
<!-- Generator: Adobe Illustrator 24.1.3, SVG Export Plug-In . SVG Version: 6.00 Build 0)  -->
<svg version="1.1" id="Capa_1" xmlns="http://www.w3.org/2000/svg" xmlns:xlink="http://www.w3.org/1999/xlink" x="0px" y="0px"
	 viewBox="0 0 50 50" style="enable-background:new 0 0 50 50;" xml:space="preserve">
<style type="text/css">
	.st0{fill:none;stroke:#FFFFFF;stroke-width:2;stroke-linecap:round;stroke-linejoin:round;stroke-miterlimit:10;}
	.st1{fill:#FFFFFF;}
	.st2{fill:none;stroke:#FFFFFF;stroke-width:1.5;stroke-linecap:round;stroke-linejoin:round;stroke-miterlimit:10;}
</style>
<g>
	<g>
		<g>
			<path class="st1" d="M39.8,7.8l3.7,6.5h-37l3.7-6.5H39.8 M41,5.8H9L3.1,16.3h43.8L41,5.8L41,5.8z"/>
		</g>
	</g>
	<g>
		<path class="st1" d="M35.8,17.5c-0.4,2.3-2.4,4-4.7,4c-2.4,0-4.3-1.7-4.7-4H35.8z"/>
	</g>
	<g>
		<path class="st1" d="M23.7,17.5c-0.4,2.3-2.4,4-4.7,4s-4.3-1.7-4.8-4H23.7z"/>
	</g>
	<g>
		<path class="st1" d="M2,17.5h9.5c-0.4,2.3-2.4,4-4.8,4C4.4,21.5,2.4,19.8,2,17.5z"/>
	</g>
	<path class="st2" d="M23,44.2V30.6c0-2.4-1.9-4.3-4.3-4.3h-3.6c-2.4,0-4.3,1.9-4.3,4.3v13.5H6.3V24c0.1,0,0.3,0,0.4,0
		c2.5,0,4.8-1.3,6.1-3.2c1.3,2,3.6,3.2,6.1,3.2s4.8-1.3,6.1-3.2c1.3,2,3.6,3.2,6.1,3.2c2.5,0,4.8-1.3,6.1-3.2c1.3,2,3.6,3.2,6.1,3.2
		c0.1,0,0.3,0,0.4,0l0,20.2H23z"/>
	<g>
		<path class="st1" d="M43.2,21.5c-2.4,0-4.3-1.7-4.7-4H48C47.6,19.8,45.6,21.5,43.2,21.5z"/>
	</g>
	<path class="st0" d="M36.7,35.1c0,0.5-0.4,0.9-0.9,0.9h-6.9c-0.5,0-0.9-0.4-0.9-0.9v-5.3c0-0.5,0.4-0.9,0.9-0.9h6.9
		c0.5,0,0.9,0.4,0.9,0.9V35.1z"/>
</g>
</svg>
