<svg xmlns="http://www.w3.org/2000/svg" xmlns:xlink="http://www.w3.org/1999/xlink" viewBox="0 0 1080 377"><defs><style>.cls-1{mask:url(#mask);filter:url(#luminosity-noclip-4);}.cls-2,.cls-4,.cls-6{mix-blend-mode:multiply;}.cls-2{fill:url(#radial-gradient);}.cls-3{mask:url(#mask-2);filter:url(#luminosity-noclip-5);}.cls-4{fill:url(#radial-gradient-2);}.cls-5{mask:url(#mask-3);filter:url(#luminosity-noclip-6);}.cls-6{fill:url(#radial-gradient-3);}.cls-7{isolation:isolate;}.cls-8{fill:#fff;}.cls-9{fill:#ebbb00;}.cls-10{fill:#808385;}.cls-11{fill:url(#linear-gradient);}.cls-12{fill:url(#linear-gradient-2);}.cls-13{mask:url(#mask-4);}.cls-14,.cls-18{mix-blend-mode:overlay;}.cls-14{fill:url(#radial-gradient-4);}.cls-15{mask:url(#mask-5);}.cls-16{opacity:0.4;fill:url(#radial-gradient-5);}.cls-17{mask:url(#mask-6);}.cls-18{opacity:0.74;fill:url(#radial-gradient-6);}.cls-19{fill:#828386;}.cls-20{filter:url(#luminosity-noclip-3);}.cls-21{filter:url(#luminosity-noclip-2);}.cls-22{filter:url(#luminosity-noclip);}</style><filter id="luminosity-noclip" x="575.52" y="-7880" width="54.27" height="32766" filterUnits="userSpaceOnUse" color-interpolation-filters="sRGB"><feFlood flood-color="#fff" result="bg"/><feBlend in="SourceGraphic" in2="bg"/></filter><mask id="mask" x="575.52" y="-7880" width="54.27" height="32766" maskUnits="userSpaceOnUse"><g class="cls-22"/></mask><radialGradient id="radial-gradient" cx="-284.21" cy="-589.94" r="29.38" gradientTransform="matrix(-0.08, -1, 1, -0.08, 1162.02, -16.23)" gradientUnits="userSpaceOnUse"><stop offset="0" stop-color="#fff"/><stop offset="1"/></radialGradient><filter id="luminosity-noclip-2" x="575.53" y="-7880" width="54.27" height="32766" filterUnits="userSpaceOnUse" color-interpolation-filters="sRGB"><feFlood flood-color="#fff" result="bg"/><feBlend in="SourceGraphic" in2="bg"/></filter><mask id="mask-2" x="575.53" y="-7880" width="54.27" height="32766" maskUnits="userSpaceOnUse"><g class="cls-21"/></mask><radialGradient id="radial-gradient-2" cx="519.36" cy="213.21" r="61.83" gradientTransform="translate(198.67 -101.97) rotate(25.56)" xlink:href="#radial-gradient"/><filter id="luminosity-noclip-3" x="577.75" y="-7880" width="52.38" height="32766" filterUnits="userSpaceOnUse" color-interpolation-filters="sRGB"><feFlood flood-color="#fff" result="bg"/><feBlend in="SourceGraphic" in2="bg"/></filter><mask id="mask-3" x="577.75" y="-7880" width="52.38" height="32766" maskUnits="userSpaceOnUse"><g class="cls-20"/></mask><radialGradient id="radial-gradient-3" cx="556.09" cy="182.95" r="9.88" gradientTransform="translate(198.67 -101.97) rotate(25.56)" xlink:href="#radial-gradient"/><linearGradient id="linear-gradient" x1="-192.56" y1="9.03" x2="-202.28" y2="10.92" gradientTransform="translate(760.81 165.12) rotate(-44.44)" gradientUnits="userSpaceOnUse"><stop offset="0" stop-color="#edbd00"/><stop offset="0.88" stop-color="#cf5500"/></linearGradient><linearGradient id="linear-gradient-2" x1="936.89" y1="-778.17" x2="1011.77" y2="-778.17" gradientTransform="translate(756.53 -926.28) rotate(135.56)" gradientUnits="userSpaceOnUse"><stop offset="0" stop-color="#cf5500"/><stop offset="1" stop-color="#fbec27"/></linearGradient><filter id="luminosity-noclip-4" x="575.52" y="280.67" width="54.27" height="35.26" filterUnits="userSpaceOnUse" color-interpolation-filters="sRGB"><feFlood flood-color="#fff" result="bg"/><feBlend in="SourceGraphic" in2="bg"/></filter><mask id="mask-4" x="575.52" y="280.67" width="54.27" height="35.26" maskUnits="userSpaceOnUse"><g class="cls-1"><path class="cls-2" d="M629.27,298.78c.29,3.75.42,7.8.52,11.8a16.71,16.71,0,0,0-2.15-5.57c-2.09-3-6.24-3.53-10.83-1.26-6.94,3.2-11.42,5.13-21.07,8.79a36.76,36.76,0,0,1-3.64,1.31,59.05,59.05,0,0,1-6.29,1.55,26.16,26.16,0,0,1-6.71.49c-2.18-.14-2.94-.76-3.41-1.64a2,2,0,0,1-.16-.65,5,5,0,0,1,.09-1.22,10.19,10.19,0,0,1,2.43-3.91,56.27,56.27,0,0,1,7.86-6.78c1.51-1.16,3.22-2.43,5.1-3.82,2.74-2.05,5.85-4.36,9.16-6.93,2.1-1.57,4.26-3.11,5.08-3.7,8.57-5.82,14-7.66,17.6-6,3.43,1.62,5.42,6.63,6.28,15.82,0,.56.1,1.12.14,1.69Z"/></g></mask><radialGradient id="radial-gradient-4" cx="-284.21" cy="-589.94" r="29.38" gradientTransform="matrix(-0.08, -1, 1, -0.08, 1162.02, -16.23)" gradientUnits="userSpaceOnUse"><stop offset="0" stop-color="#fff"/><stop offset="1" stop-color="#fff"/></radialGradient><filter id="luminosity-noclip-5" x="575.53" y="280.67" width="54.27" height="33.69" filterUnits="userSpaceOnUse" color-interpolation-filters="sRGB"><feFlood flood-color="#fff" result="bg"/><feBlend in="SourceGraphic" in2="bg"/></filter><mask id="mask-5" x="575.53" y="280.67" width="54.27" height="33.69" maskUnits="userSpaceOnUse"><g class="cls-3"><path class="cls-4" d="M575.69,314.25l.07.11c1.79-1.3,4.11-2.77,6.89-4.49,4.27-2.61,9.81-5.81,15.89-9.6,2.2-1.31,4.45-2.59,5.46-3.15,16.34-8.84,23.23-6.92,25.42,10.79.08.67.15,1.37.22,2.06.05.2.11.4.16.61-.12-4.6-.28-9.25-.67-13.49-.86-9.15-2.84-14.18-6.25-15.8-3.6-1.72-9,.11-17.63,5.95-.83.59-3,2.13-5.08,3.7-3.31,2.57-6.41,4.88-9.15,6.92-1.88,1.4-3.6,2.67-5.11,3.83a56.87,56.87,0,0,0-7.86,6.78,10.19,10.19,0,0,0-2.43,3.91A3,3,0,0,0,575.69,314.25Z"/></g></mask><radialGradient id="radial-gradient-5" cx="519.36" cy="213.21" r="61.83" gradientTransform="translate(198.67 -101.97) rotate(25.56)" xlink:href="#radial-gradient-4"/><filter id="luminosity-noclip-6" x="577.75" y="302.35" width="52.38" height="14.13" filterUnits="userSpaceOnUse" color-interpolation-filters="sRGB"><feFlood flood-color="#fff" result="bg"/><feBlend in="SourceGraphic" in2="bg"/></filter><mask id="mask-6" x="577.75" y="302.35" width="52.38" height="14.13" maskUnits="userSpaceOnUse"><g class="cls-5"><path class="cls-6" d="M629.8,310.58a16.81,16.81,0,0,0-2.16-5.57,6.07,6.07,0,0,0-2.35-2c-2.24-1.07-5.34-.81-8.48.75-6.95,3.2-11.42,5.13-21.07,8.79a36.76,36.76,0,0,1-3.64,1.31,59.05,59.05,0,0,1-6.29,1.55,25.72,25.72,0,0,1-6.71.49,9,9,0,0,1-1.32-.18l0,.57a11.18,11.18,0,0,0,1.31.16,26.25,26.25,0,0,0,6.86-.5,59.52,59.52,0,0,0,6.35-1.57,33.31,33.31,0,0,0,3.67-1.32c9.59-3.62,14-5.55,21.12-8.8,3.89-1.94,8-2,10.12,1.08,1.38,2,2.24,5.44,2.94,10A19.81,19.81,0,0,0,629.8,310.58Z"/></g></mask><radialGradient id="radial-gradient-6" cx="556.09" cy="182.95" r="9.88" gradientTransform="translate(198.67 -101.97) rotate(25.56)" xlink:href="#radial-gradient-4"/></defs><g class="cls-7"><g id="Capa_1" data-name="Capa 1"><polygon class="cls-8" points="42.45 362.72 7.47 87.23 344.65 17.2 344.65 362.72 42.45 362.72"/><path class="cls-9" d="M340.65,22.11V358.72H46L11.9,90.39,340.65,22.11m8-9.83L3,84.07,38.93,366.72H348.65V12.28Z"/><polygon class="cls-9" points="208.93 83.05 158.18 83.05 132.81 127 158.18 170.95 208.93 170.95 234.31 127 208.93 83.05"/><path class="cls-8" d="M183.56,142a15,15,0,1,1,15-15A15,15,0,0,1,183.56,142Zm0-27.8A12.83,12.83,0,1,0,196.39,127,12.84,12.84,0,0,0,183.56,114.17Z"/><path class="cls-8" d="M183.56,148.11A21.12,21.12,0,1,1,204.68,127,21.14,21.14,0,0,1,183.56,148.11Zm0-39.21A18.1,18.1,0,1,0,201.65,127,18.11,18.11,0,0,0,183.56,108.9Z"/><path class="cls-8" d="M183.56,155.3a28.3,28.3,0,1,1,28.3-28.3A28.33,28.33,0,0,1,183.56,155.3Zm0-52.55A24.25,24.25,0,1,0,207.81,127,24.28,24.28,0,0,0,183.56,102.75Z"/><polygon class="cls-9" points="205.01 186.39 162.11 186.39 140.66 223.55 162.11 260.7 205.01 260.7 226.46 223.55 205.01 186.39"/><path class="cls-8" d="M183.56,236.21a12.66,12.66,0,1,1,12.66-12.66A12.68,12.68,0,0,1,183.56,236.21Zm0-23.51a10.85,10.85,0,1,0,10.85,10.85A10.86,10.86,0,0,0,183.56,212.7Z"/><path class="cls-8" d="M183.56,241.4a17.86,17.86,0,1,1,17.85-17.85A17.87,17.87,0,0,1,183.56,241.4Zm0-33.15a15.3,15.3,0,1,0,15.29,15.3A15.32,15.32,0,0,0,183.56,208.25Z"/><path class="cls-8" d="M183.56,247.47a23.93,23.93,0,1,1,23.92-23.92A24,24,0,0,1,183.56,247.47Zm0-44.42a20.5,20.5,0,1,0,20.5,20.5A20.52,20.52,0,0,0,183.56,203.05Z"/><polygon class="cls-9" points="123.49 134.72 72.74 134.72 47.37 178.67 72.74 222.62 123.49 222.62 148.87 178.67 123.49 134.72"/><path class="cls-8" d="M98.12,193.65a15,15,0,1,1,15-15A15,15,0,0,1,98.12,193.65Zm0-27.81A12.83,12.83,0,1,0,111,178.67,12.85,12.85,0,0,0,98.12,165.84Z"/><path class="cls-8" d="M98.12,199.79a21.12,21.12,0,1,1,21.11-21.12A21.14,21.14,0,0,1,98.12,199.79Zm0-39.21a18.09,18.09,0,1,0,18.09,18.09A18.11,18.11,0,0,0,98.12,160.58Z"/><path class="cls-8" d="M98.12,207a28.3,28.3,0,1,1,28.3-28.3A28.33,28.33,0,0,1,98.12,207Zm0-52.55a24.25,24.25,0,1,0,24.24,24.25A24.28,24.28,0,0,0,98.12,154.42Z"/><polygon class="cls-9" points="294.38 134.72 243.63 134.72 218.25 178.67 243.63 222.62 294.38 222.62 319.75 178.67 294.38 134.72"/><path class="cls-8" d="M269,193.65a15,15,0,1,1,15-15A15,15,0,0,1,269,193.65Zm0-27.81a12.83,12.83,0,1,0,12.83,12.83A12.84,12.84,0,0,0,269,165.84Z"/><path class="cls-8" d="M269,199.79a21.12,21.12,0,1,1,21.12-21.12A21.15,21.15,0,0,1,269,199.79Zm0-39.21a18.09,18.09,0,1,0,18.09,18.09A18.1,18.1,0,0,0,269,160.58Z"/><path class="cls-8" d="M269,207a28.3,28.3,0,1,1,28.3-28.3A28.34,28.34,0,0,1,269,207Zm0-52.55a24.25,24.25,0,1,0,24.25,24.25A24.28,24.28,0,0,0,269,154.42Z"/><polygon class="cls-9" points="270.45 234.1 239.28 234.1 223.69 261.1 239.28 288.09 270.45 288.09 286.03 261.1 270.45 234.1"/><path class="cls-8" d="M254.86,270.29a9.2,9.2,0,1,1,9.2-9.2A9.21,9.21,0,0,1,254.86,270.29Zm0-17.08a7.89,7.89,0,1,0,7.88,7.88A7.9,7.9,0,0,0,254.86,253.21Z"/><path class="cls-8" d="M254.86,274.06a13,13,0,1,1,13-13A13,13,0,0,1,254.86,274.06Zm0-24.08A11.12,11.12,0,1,0,266,261.09,11.12,11.12,0,0,0,254.86,250Z"/><path class="cls-8" d="M254.86,278.48a17.39,17.39,0,1,1,17.38-17.39A17.41,17.41,0,0,1,254.86,278.48Zm0-32.28a14.9,14.9,0,1,0,14.89,14.89A14.91,14.91,0,0,0,254.86,246.2Z"/><polygon class="cls-9" points="266.1 298.41 243.62 298.41 232.38 317.88 243.62 337.36 266.1 337.36 277.35 317.88 266.1 298.41"/><path class="cls-8" d="M254.86,324.52a6.64,6.64,0,1,1,6.64-6.64A6.64,6.64,0,0,1,254.86,324.52Zm0-12.32a5.69,5.69,0,1,0,5.69,5.68A5.69,5.69,0,0,0,254.86,312.2Z"/><path class="cls-8" d="M254.86,327.24a9.36,9.36,0,1,1,9.36-9.36A9.36,9.36,0,0,1,254.86,327.24Zm0-17.37a8,8,0,1,0,8,8A8,8,0,0,0,254.86,309.87Z"/><path class="cls-8" d="M254.86,330.42a12.54,12.54,0,1,1,12.54-12.54A12.55,12.55,0,0,1,254.86,330.42Zm0-23.28a10.75,10.75,0,1,0,10.74,10.74A10.75,10.75,0,0,0,254.86,307.14Z"/><path class="cls-10" d="M572.25,340a5.07,5.07,0,0,1-2.69-.76,5.58,5.58,0,0,1-2-1.93v2.46h-1.08V322.52h1.18v7.63a7.84,7.84,0,0,1,2.06-2.08,4.85,4.85,0,0,1,2.75-.8,4.94,4.94,0,0,1,2.35.56,5.5,5.5,0,0,1,1.78,1.46,6.89,6.89,0,0,1,1.11,2,7.21,7.21,0,0,1,.39,2.33,6.54,6.54,0,0,1-.45,2.42,6.41,6.41,0,0,1-1.24,2,5.94,5.94,0,0,1-1.87,1.38A5.23,5.23,0,0,1,572.25,340Zm-.23-1.06a4.36,4.36,0,0,0,2-.45,5.05,5.05,0,0,0,1.55-1.19,5.91,5.91,0,0,0,1-1.69,5.42,5.42,0,0,0,.36-1.94,5.78,5.78,0,0,0-.34-2,5.54,5.54,0,0,0-1-1.71,4.93,4.93,0,0,0-1.49-1.19,4,4,0,0,0-1.9-.45,3.91,3.91,0,0,0-1.46.28,5.14,5.14,0,0,0-1.27.72,6,6,0,0,0-1,1,6.85,6.85,0,0,0-.76,1.22v4.07a2.5,2.5,0,0,0,.52,1.28,4.41,4.41,0,0,0,1.07,1,6,6,0,0,0,1.36.7A4.18,4.18,0,0,0,572,338.94Z"/><path class="cls-10" d="M581.37,343.92a1.6,1.6,0,0,0,.36,0,2.9,2.9,0,0,0,.43,0,.89.89,0,0,0,.39-.12.7.7,0,0,0,.26-.2,2.49,2.49,0,0,0,.33-.53,11.9,11.9,0,0,0,.55-1.18l.9-2.12-5.48-12.29h1.22l4.89,11.13,4.56-11.13h1.16l-6.73,16.16a2.19,2.19,0,0,1-.84,1,3,3,0,0,1-1.57.36h-.2a.93.93,0,0,1-.23,0Z"/><path class="cls-11" d="M621.42,302.84c1.38,3.23,9.09,27,9,15.6-.13-.91,0-1.74-.14-2.48-.72-4.93-1.58-8.59-3-10.71A5.83,5.83,0,0,0,621.42,302.84Z"/><path class="cls-12" d="M629.68,297.05c-1.81-19.38-8.76-21.13-24.75-10.26-.95.68-3.06,2.19-5.11,3.71-5.55,4.32-10.52,7.89-14.25,10.75a57.83,57.83,0,0,0-8,6.85,10.65,10.65,0,0,0-2.54,4.18,3.51,3.51,0,0,0,.12,2.22c.66,1.26,1.78,1.81,3.86,1.94a26.25,26.25,0,0,0,6.86-.5,59.52,59.52,0,0,0,6.35-1.57,33.31,33.31,0,0,0,3.67-1.32c9.59-3.62,14-5.55,21.12-8.8,3.89-1.94,8-2,10.12,1.08,1.45,2.11,2.33,5.77,3.05,10.7.11.73.08,1.5.21,2.41C630.22,311.11,630.3,303.7,629.68,297.05Z"/><g class="cls-13"><path class="cls-14" d="M629.27,298.78c.29,3.75.42,7.8.52,11.8a16.71,16.71,0,0,0-2.15-5.57c-2.09-3-6.24-3.53-10.83-1.26-6.94,3.2-11.42,5.13-21.07,8.79a36.76,36.76,0,0,1-3.64,1.31,59.05,59.05,0,0,1-6.29,1.55,26.16,26.16,0,0,1-6.71.49c-2.18-.14-2.94-.76-3.41-1.64a2,2,0,0,1-.16-.65,5,5,0,0,1,.09-1.22,10.19,10.19,0,0,1,2.43-3.91,56.27,56.27,0,0,1,7.86-6.78c1.51-1.16,3.22-2.43,5.1-3.82,2.74-2.05,5.85-4.36,9.16-6.93,2.1-1.57,4.26-3.11,5.08-3.7,8.57-5.82,14-7.66,17.6-6,3.43,1.62,5.42,6.63,6.28,15.82,0,.56.1,1.12.14,1.69Z"/></g><g class="cls-15"><path class="cls-16" d="M575.69,314.25l.07.11c1.79-1.3,4.11-2.77,6.89-4.49,4.27-2.61,9.81-5.81,15.89-9.6,2.2-1.31,4.45-2.59,5.46-3.15,16.34-8.84,23.23-6.92,25.42,10.79.08.67.15,1.37.22,2.06.05.2.11.4.16.61-.12-4.6-.28-9.25-.67-13.49-.86-9.15-2.84-14.18-6.25-15.8-3.6-1.72-9,.11-17.63,5.95-.83.59-3,2.13-5.08,3.7-3.31,2.57-6.41,4.88-9.15,6.92-1.88,1.4-3.6,2.67-5.11,3.83a56.87,56.87,0,0,0-7.86,6.78,10.19,10.19,0,0,0-2.43,3.91A3,3,0,0,0,575.69,314.25Z"/></g><g class="cls-17"><path class="cls-18" d="M629.8,310.58a16.81,16.81,0,0,0-2.16-5.57,6.07,6.07,0,0,0-2.35-2c-2.24-1.07-5.34-.81-8.48.75-6.95,3.2-11.42,5.13-21.07,8.79a36.76,36.76,0,0,1-3.64,1.31,59.05,59.05,0,0,1-6.29,1.55,25.72,25.72,0,0,1-6.71.49,9,9,0,0,1-1.32-.18l0,.57a11.18,11.18,0,0,0,1.31.16,26.25,26.25,0,0,0,6.86-.5,59.52,59.52,0,0,0,6.35-1.57,33.31,33.31,0,0,0,3.67-1.32c9.59-3.62,14-5.55,21.12-8.8,3.89-1.94,8-2,10.12,1.08,1.38,2,2.24,5.44,2.94,10A19.81,19.81,0,0,0,629.8,310.58Z"/></g><path class="cls-19" d="M618.73,311.8l12.17,28h-3.62l-3.94-8.55h-9.87l1.31-2.63H622l-5.26-12.83-10.53,24h-3.94l12.49-28Z"/><path class="cls-19" d="M637.19,311.64h24.34a2.67,2.67,0,0,1,1.32.41,3.16,3.16,0,0,1,.86.78,2.1,2.1,0,0,1,.27.62,3.66,3.66,0,0,1,.14.72,5,5,0,0,1,0,.65v7h-3.61v-6.9H640.81v21.71h19.74V331h3.61v5.43a6.62,6.62,0,0,1-.06.84,3.74,3.74,0,0,1-.26.95,2.58,2.58,0,0,1-.58.84,2.46,2.46,0,0,1-.6.37,4.92,4.92,0,0,1-.69.27,3.73,3.73,0,0,1-.66.14,3.85,3.85,0,0,1-.44.05H637.19Z"/><path class="cls-19" d="M670.46,311.64h24.33a2.67,2.67,0,0,1,1.32.41,3.16,3.16,0,0,1,.86.78,2.1,2.1,0,0,1,.27.62,3.66,3.66,0,0,1,.14.72,5,5,0,0,1,0,.65v7h-3.61v-6.9H674.07v21.71h19.74V331h3.61v5.43a6.62,6.62,0,0,1-.06.84,3.74,3.74,0,0,1-.26.95,2.58,2.58,0,0,1-.58.84,2.67,2.67,0,0,1-.6.37,4.59,4.59,0,0,1-.7.27,3.46,3.46,0,0,1-.65.14,3.85,3.85,0,0,1-.44.05H670.46Z"/><polygon class="cls-19" points="703.72 311.8 725.42 311.8 725.42 314.76 707.33 314.76 707.33 337.13 725.75 337.13 725.75 339.76 703.72 339.76 703.72 311.8"/><rect class="cls-19" x="710.29" y="324.3" width="13.16" height="2.96"/><path class="cls-19" d="M736.65,314.6v11.18h20.72a10.45,10.45,0,0,1,1.29.11,4.08,4.08,0,0,1,1.59.55,2.47,2.47,0,0,1,.74.6,2.76,2.76,0,0,1,.43.7,2.54,2.54,0,0,1,.18.61,2.91,2.91,0,0,1,0,.39v7.57a7.73,7.73,0,0,1-.15,1.06,3.11,3.11,0,0,1-.84,1.57,2.7,2.7,0,0,1-.85.57,3.76,3.76,0,0,1-.9.29,4.82,4.82,0,0,1-.76.1l-.45,0H736l-.49,0a5.87,5.87,0,0,1-.85-.1,4.64,4.64,0,0,1-1-.27,3.27,3.27,0,0,1-.91-.51,1.23,1.23,0,0,1-.45-.7c-.08-.3-.15-.6-.2-.9a6.29,6.29,0,0,1-.08-1.11v-3h3.61V337H758v-8.22H736.32a6.15,6.15,0,0,1-1-.16,3.78,3.78,0,0,1-1.73-1.11,3.39,3.39,0,0,1-.49-.86,6.87,6.87,0,0,1-.25-.87,3.69,3.69,0,0,1-.12-.95v-9.53c0-.08,0-.23,0-.46a2.72,2.72,0,0,1,.17-.75,3.24,3.24,0,0,1,.43-.85,2.92,2.92,0,0,1,.78-.74,4.68,4.68,0,0,1,1.85-.74c.52-.05.86-.08,1-.08H757.7a5.29,5.29,0,0,1,1,.18,3.13,3.13,0,0,1,1.36.76,2.48,2.48,0,0,1,.8,1.36,6.17,6.17,0,0,1,.15,1v3h-3.62V314.6Z"/><path class="cls-19" d="M787.39,315.92a8.54,8.54,0,0,1,.16-1.42,3.28,3.28,0,0,1,.86-1.67,3.6,3.6,0,0,1,.83-.62,4.89,4.89,0,0,1,.9-.37,5.84,5.84,0,0,1,.86-.16,6.31,6.31,0,0,1,.66,0h20.39l.46,0a3.64,3.64,0,0,1,.76.14,6.9,6.9,0,0,1,.9.35,3.31,3.31,0,0,1,.84.6,2.55,2.55,0,0,1,.58.88,5.48,5.48,0,0,1,.29,1,7,7,0,0,1,.1.76,2.45,2.45,0,0,0,0,.27V336a5,5,0,0,1-.06.66,5.58,5.58,0,0,1-.19.84,3.91,3.91,0,0,1-.33.82,2.13,2.13,0,0,1-.49.64,4.2,4.2,0,0,1-1.62.78,6.34,6.34,0,0,1-1.26.21H791.66l-.55,0a6.08,6.08,0,0,1-.88-.1,4,4,0,0,1-1-.29,2.68,2.68,0,0,1-.87-.57,2.57,2.57,0,0,1-.57-.89,4.48,4.48,0,0,1-.29-1,6.37,6.37,0,0,1-.1-.89c0-.26,0-.43,0-.51ZM791,336.64h21.38v-22H791Z"/><rect class="cls-19" x="767.94" y="324.3" width="13.16" height="2.96"/><path class="cls-10" d="M439.89,178.61a19.62,19.62,0,0,0-4.17-3.52,37.12,37.12,0,0,0-5.87-3.06,41.4,41.4,0,0,0-7.11-2.22,37.55,37.55,0,0,0-8-.85q-10.83,0-15.85,4a13.44,13.44,0,0,0-5,11.08,12.29,12.29,0,0,0,1.43,6.26,11.79,11.79,0,0,0,4.5,4.24,34.06,34.06,0,0,0,7.63,3.07Q412,199,418.24,200.4a113.65,113.65,0,0,1,13,3.58,38,38,0,0,1,9.91,5,20,20,0,0,1,6.26,7.3,23.4,23.4,0,0,1,2.15,10.57,24.18,24.18,0,0,1-2.61,11.54,23.14,23.14,0,0,1-7.1,8.09,30.85,30.85,0,0,1-10.63,4.69,56,56,0,0,1-13.31,1.5,61.61,61.61,0,0,1-20.28-3.32,56.85,56.85,0,0,1-17.42-9.72l5.61-9.92a31.06,31.06,0,0,0,5.42,4.44,43.94,43.94,0,0,0,7.56,4,56.7,56.7,0,0,0,9.13,2.87,46.11,46.11,0,0,0,10.24,1.11q9.92,0,15.39-3.53c3.66-2.34,5.48-5.87,5.48-10.56a11.78,11.78,0,0,0-1.76-6.59,15,15,0,0,0-5.15-4.63,40,40,0,0,0-8.41-3.45q-5-1.5-11.42-3.07a115,115,0,0,1-12.39-3.65A33.69,33.69,0,0,1,389,202a17.62,17.62,0,0,1-5.42-6.65,22,22,0,0,1-1.82-9.39,26.5,26.5,0,0,1,2.47-11.74,24.74,24.74,0,0,1,6.92-8.61,30,30,0,0,1,10.56-5.28A47.82,47.82,0,0,1,415,158.53a46.66,46.66,0,0,1,30.39,10.56Z"/><path class="cls-10" d="M545,251.79V180.18l-30.78,54.91h-6.65l-30.92-54.91v71.61H464.93V159.18h12.4l33.52,60.13,33.65-60.13h12.26v92.61Z"/><path class="cls-10" d="M607.11,159.18H617l37.83,92.61H642.32l-11-27.13H592.5l-10.83,27.13H569.15Zm21.65,56.35-16.7-42.79-17.21,42.79Z"/><path class="cls-10" d="M667.24,251.79V159.18h39.65a25.17,25.17,0,0,1,11.28,2.54,28.48,28.48,0,0,1,8.87,6.79,32.47,32.47,0,0,1,5.81,9.52,29.07,29.07,0,0,1,2.08,10.76,31.57,31.57,0,0,1-1.37,9.32,28.77,28.77,0,0,1-3.91,8.16,26.41,26.41,0,0,1-6.13,6.26,23.87,23.87,0,0,1-8,3.78l22.43,35.48h-13.3L703.5,218.53H679v33.26ZM679,208.09h28a13.85,13.85,0,0,0,6.59-1.56,15.83,15.83,0,0,0,5-4.24,20.45,20.45,0,0,0,3.26-6.2,23,23,0,0,0,1.17-7.3,19.66,19.66,0,0,0-1.37-7.37,21.62,21.62,0,0,0-3.65-6.13,16.5,16.5,0,0,0-5.35-4.18,14.6,14.6,0,0,0-6.45-1.5H679Z"/><path class="cls-10" d="M818.93,169.61H787v82.18H775.24V169.61h-32V159.18h75.65Z"/><path class="cls-9" d="M405.75,147.33a30.47,30.47,0,0,1-10.9-1.92,26.33,26.33,0,0,1-8.76-5.38,25,25,0,0,1-5.76-8.07,24.3,24.3,0,0,1-2.08-10.14,22.36,22.36,0,0,1,2.54-10.52,24.16,24.16,0,0,1,7.06-8.22,35,35,0,0,1,10.84-5.3,47.16,47.16,0,0,1,13.82-1.92,60.11,60.11,0,0,1,10.53.92,43.72,43.72,0,0,1,9.14,2.61V94.78q0-8-4.54-12.29t-13.44-4.3a35.56,35.56,0,0,0-12.6,2.31A58.31,58.31,0,0,0,389,87.26l-6.3-13.06A59.44,59.44,0,0,1,416.2,63.91q17.35,0,27,8.52t9.6,24.66v25c0,2.15.39,3.69,1.15,4.61a5.07,5.07,0,0,0,3.77,1.54v17.51a46.35,46.35,0,0,1-9.07,1.07q-5.83,0-9-2.61a11.2,11.2,0,0,1-3.92-6.91l-.46-4.45a35.7,35.7,0,0,1-13.06,10.75A37.47,37.47,0,0,1,405.75,147.33Zm5.84-15.06a26.83,26.83,0,0,0,9.91-1.84,18.08,18.08,0,0,0,7.3-4.92q3.38-2.61,3.38-5.84v-9.21a49.5,49.5,0,0,0-8-2.23,43.39,43.39,0,0,0-8.3-.85q-8,0-13.06,3.61t-5.07,9.14a11,11,0,0,0,4,8.68A14.47,14.47,0,0,0,411.59,132.27Z"/><path class="cls-9" d="M466.89,105.54a44,44,0,0,1,2.92-16,39.06,39.06,0,0,1,8.45-13.21,41.15,41.15,0,0,1,13.37-9.06,44.06,44.06,0,0,1,17.67-3.38q13.2,0,22.5,5.68a36.38,36.38,0,0,1,13.91,14.9l-20.13,6.15a18.14,18.14,0,0,0-6.91-6.84,19.34,19.34,0,0,0-9.53-2.38,19.55,19.55,0,0,0-8.29,1.77,20.24,20.24,0,0,0-6.69,4.91,22.78,22.78,0,0,0-4.45,7.61,28.59,28.59,0,0,0-1.61,9.83,27.41,27.41,0,0,0,1.69,9.83,24.54,24.54,0,0,0,4.53,7.68,19.92,19.92,0,0,0,6.68,5,19.35,19.35,0,0,0,8.14,1.76,19.79,19.79,0,0,0,10.22-2.76,15.63,15.63,0,0,0,6.53-6.76L546,126.43a33.77,33.77,0,0,1-13.67,15.06q-9.52,5.83-22.89,5.84A44.26,44.26,0,0,1,491.78,144a40,40,0,0,1-21.89-22.51A42.94,42.94,0,0,1,466.89,105.54Z"/><path class="cls-9" d="M606.85,141.64a92.52,92.52,0,0,1-10.14,3.69,42.58,42.58,0,0,1-12.6,1.84,29.41,29.41,0,0,1-8.06-1.07,17.8,17.8,0,0,1-6.61-3.46,16.7,16.7,0,0,1-4.53-6.15,22.13,22.13,0,0,1-1.69-9.14V81.11h-10.6V65.29h10.6V39.17H583.8V65.29h16.9V81.11H583.8v39.33c0,2.87.75,4.89,2.23,6.07a8.52,8.52,0,0,0,5.46,1.77,18.78,18.78,0,0,0,6.29-1.08c2.05-.71,3.69-1.33,4.92-1.84Z"/><path class="cls-9" d="M617.6,54.07V33.64h20.59V54.07Zm0,91.72V65.29h20.59v80.5Z"/><path class="cls-9" d="M678.44,145.79l-29.65-80.5H670L690.42,129,711,65.29h19.35l-29.65,80.5Z"/><path class="cls-9" d="M775.68,147.33A44.69,44.69,0,0,1,758.17,144a39.39,39.39,0,0,1-21.89-22.2,42.3,42.3,0,0,1-3-15.82,45,45,0,0,1,2.92-16.21,39.54,39.54,0,0,1,8.45-13.36,40.37,40.37,0,0,1,13.44-9.14,44.66,44.66,0,0,1,17.75-3.38,43.53,43.53,0,0,1,17.59,3.38,40.44,40.44,0,0,1,13.21,9.06,38.68,38.68,0,0,1,8.3,13.21,44.1,44.1,0,0,1,2.84,15.67c0,1.33,0,2.61-.08,3.84a16,16,0,0,1-.38,3.08H755.1a23.64,23.64,0,0,0,2.3,8.44,21,21,0,0,0,4.76,6.3,20.61,20.61,0,0,0,6.61,4,21.75,21.75,0,0,0,7.68,1.38,23.81,23.81,0,0,0,11.6-3,15.89,15.89,0,0,0,7.45-7.92l17.67,4.92A35.94,35.94,0,0,1,799,141.41Q789.2,147.34,775.68,147.33Zm20.9-48.55q-.78-9.06-6.69-14.52a21.55,21.55,0,0,0-22.12-4,20.11,20.11,0,0,0-6.37,4.07,21,21,0,0,0-4.54,6.3,22.25,22.25,0,0,0-2.07,8.14Z"/><path class="cls-9" d="M840.36,252.05V40.94h26.76V252.05Z"/><path class="cls-9" d="M899.83,252.05V40.94H973q25.28,0,44.46,8.33a90.71,90.71,0,0,1,32,22.59,94.34,94.34,0,0,1,19.18,33.45A128.57,128.57,0,0,1,1075,146.2q0,24.09-7.13,43.56a93.4,93.4,0,0,1-20.52,33.3,91.8,91.8,0,0,1-32.26,21.41q-18.88,7.59-42.08,7.58ZM1047.9,146.2a105.38,105.38,0,0,0-4.9-32.86,70.63,70.63,0,0,0-14.57-25.72,68.21,68.21,0,0,0-23.64-16.8q-14-6.09-31.82-6.09H926.59V228.27H973q18.13,0,32.27-6.25a64.76,64.76,0,0,0,23.49-17.24,76.19,76.19,0,0,0,14.27-26A104.27,104.27,0,0,0,1047.9,146.2Z"/><path class="cls-10" d="M541.11,279.73a7.05,7.05,0,0,1,7,7v52.44a7.05,7.05,0,0,1-7,7H385.46a7.05,7.05,0,0,1-7-7V286.78a7.05,7.05,0,0,1,7-7H541.11m0-3.41H385.46A10.46,10.46,0,0,0,375,286.78v52.44a10.46,10.46,0,0,0,10.46,10.46H541.11a10.46,10.46,0,0,0,10.46-10.46V286.78a10.46,10.46,0,0,0-10.46-10.46Z"/><path class="cls-10" d="M424.05,321.26a8.07,8.07,0,0,1-.87,3.83,8,8,0,0,1-2.4,2.76,11.18,11.18,0,0,1-3.54,1.7,15.28,15.28,0,0,1-4.29.58H396.33V295.72h18.42a6.72,6.72,0,0,1,3.24.78,8.25,8.25,0,0,1,2.48,2,9.09,9.09,0,0,1,1.57,2.81,9.5,9.5,0,0,1,.56,3.17,9.36,9.36,0,0,1-1.26,4.73,7.68,7.68,0,0,1-3.68,3.27,8.82,8.82,0,0,1,4.67,3.13A9,9,0,0,1,424.05,321.26Zm-21-19.82v8.68h8.92a4,4,0,0,0,2.88-1.17,4.26,4.26,0,0,0,1.19-3.19,4.48,4.48,0,0,0-1.09-3.16,3.57,3.57,0,0,0-2.69-1.16ZM417.32,320a5.08,5.08,0,0,0-.32-1.77,4.84,4.84,0,0,0-.85-1.47,3.83,3.83,0,0,0-1.26-1,3.52,3.52,0,0,0-1.6-.36H403v9.06H413a4.34,4.34,0,0,0,1.73-.34,4.13,4.13,0,0,0,1.38-.94,4.81,4.81,0,0,0,.92-1.43A4.66,4.66,0,0,0,417.32,320Z"/><path class="cls-10" d="M438.35,295.72h5.91l13.09,34.41h-6.88l-3.2-8.58h-12l-3.15,8.58h-6.88Zm7.71,21.13-4.75-13.52-4.95,13.52Z"/><path class="cls-10" d="M481.1,304.74a7.69,7.69,0,0,0-1.24-.92,14.56,14.56,0,0,0-2.18-1.14,19,19,0,0,0-2.79-.95,12.09,12.09,0,0,0-3.05-.39,6.83,6.83,0,0,0-4.12,1,3.38,3.38,0,0,0-1.36,2.86,2.94,2.94,0,0,0,.51,1.77,4.42,4.42,0,0,0,1.48,1.24,13.42,13.42,0,0,0,2.45,1c1,.29,2.12.59,3.42.92,1.68.45,3.2.93,4.58,1.45a12.32,12.32,0,0,1,3.48,1.94,8,8,0,0,1,2.21,2.79,9.16,9.16,0,0,1,.78,4,9.89,9.89,0,0,1-1,4.73,8.62,8.62,0,0,1-2.81,3.17,12.1,12.1,0,0,1-4.07,1.77,20.46,20.46,0,0,1-4.82.56,26.07,26.07,0,0,1-7.66-1.16,23.74,23.74,0,0,1-6.78-3.3l2.95-5.77a8.94,8.94,0,0,0,1.58,1.14,23.59,23.59,0,0,0,2.69,1.41,21.3,21.3,0,0,0,3.44,1.19,15.68,15.68,0,0,0,3.88.48q5.52,0,5.52-3.54a2.91,2.91,0,0,0-.63-1.89,5.36,5.36,0,0,0-1.79-1.35,17.11,17.11,0,0,0-2.81-1.07l-3.69-1.07a32.28,32.28,0,0,1-4.29-1.47,11.23,11.23,0,0,1-3-1.9,6.9,6.9,0,0,1-1.82-2.52,8.59,8.59,0,0,1-.61-3.41,10.59,10.59,0,0,1,1-4.65,9.46,9.46,0,0,1,2.69-3.4,12.33,12.33,0,0,1,4-2.06,16.47,16.47,0,0,1,4.89-.7,18.94,18.94,0,0,1,6.69,1.14,24.58,24.58,0,0,1,5.33,2.69Z"/><path class="cls-10" d="M490.31,330.13V295.72H497v34.41Z"/><path class="cls-10" d="M502.08,312.69a17.81,17.81,0,0,1,1.14-6.23,17,17,0,0,1,3.32-5.5,16.79,16.79,0,0,1,5.33-3.93,16.49,16.49,0,0,1,7.18-1.5,15.63,15.63,0,0,1,8.21,2.08,13.31,13.31,0,0,1,5.16,5.43l-5.13,3.54a9.07,9.07,0,0,0-1.65-2.45,8.07,8.07,0,0,0-2.09-1.57,9.38,9.38,0,0,0-2.32-.85,10.93,10.93,0,0,0-2.38-.27,9,9,0,0,0-4.38,1,9.73,9.73,0,0,0-3.11,2.64,11.71,11.71,0,0,0-1.86,3.68,14,14,0,0,0-.63,4.1,13.51,13.51,0,0,0,.72,4.39,11.7,11.7,0,0,0,2.06,3.7,10.23,10.23,0,0,0,3.2,2.57,8.73,8.73,0,0,0,4.1,1,11,11,0,0,0,2.42-.29,9.09,9.09,0,0,0,2.4-.92,9.21,9.21,0,0,0,2.11-1.62,7.63,7.63,0,0,0,1.55-2.4l5.48,3.15a10.41,10.41,0,0,1-2.35,3.41,15.23,15.23,0,0,1-3.44,2.5,17.43,17.43,0,0,1-4.1,1.55,17.68,17.68,0,0,1-4.26.53,14.57,14.57,0,0,1-6.74-1.55,17.47,17.47,0,0,1-5.26-4,18.85,18.85,0,0,1-3.44-5.67A17.62,17.62,0,0,1,502.08,312.69Z"/></g></g></svg>