<?xml version="1.0" encoding="utf-8"?>
<!-- Generator: Adobe Illustrator 24.1.3, SVG Export Plug-In . SVG Version: 6.00 Build 0)  -->
<svg version="1.1" id="Capa_1" xmlns="http://www.w3.org/2000/svg" xmlns:xlink="http://www.w3.org/1999/xlink" x="0px" y="0px"
	 viewBox="0 0 599.5 599.5" style="enable-background:new 0 0 599.5 599.5;" xml:space="preserve">
<style type="text/css">
	.st0{fill:#FFFFFF;}
</style>
<g>
	<g>
		<path class="st0" d="M546.4,128.4c8.9,0,16.2,7.2,16.2,16.2V455c0,8.9-7.2,16.2-16.2,16.2H53.2c-8.9,0-16.2-7.2-16.2-16.2V144.5
			c0-8.9,7.2-16.2,16.2-16.2H546.4 M546.4,101.9H53.2c-23.5,0-42.6,19.1-42.6,42.6V455c0,23.5,19.1,42.6,42.6,42.6h493.2
			c23.5,0,42.6-19.1,42.6-42.6V144.5C589,121.1,569.9,101.9,546.4,101.9L546.4,101.9z"/>
	</g>
	<path class="st0" d="M182.8,178.8c31.4,0,56.9,25.5,56.9,56.8c0,15.9-6.8,31.4-18.6,42.1c-10.9,9.9-23.9,14.3-36.8,14.3
		c-29.5,0-58.2-23-58.2-56.4C125.9,204.2,151.4,178.8,182.8,178.8 M181.6,320.1c36.5,0,72.4,20.8,87.8,56.5c2,4.7,3.7,9.6,4.9,14.6
		c2.9,11.6-6,22.8-17.9,22.8H109.1c-11.9,0-20.8-11.2-17.9-22.8c5.3-21.4,18.3-40.6,36.2-53.6C143.7,325.6,162.8,320.1,181.6,320.1
		 M182.8,160.3c-20.1,0-39,7.8-53.2,22c-14.2,14.2-22,33.1-22,53.2c0,20.8,8.5,40.1,24,54.3c6.9,6.3,15.1,11.4,23.8,14.9
		c-13.9,3.3-27.1,9.4-38.8,17.9c-21.5,15.6-36.8,38.4-43.2,64c-2.7,11-0.3,22.5,6.7,31.5c7,9,17.6,14.1,29,14.1h147.4
		c11.4,0,22-5.2,29-14.1c7-9,9.5-20.4,6.7-31.5c-1.5-6-3.5-11.8-5.9-17.5c-8.9-20.6-23.8-37.9-43.2-49.9c-10.1-6.3-21-11-32.3-13.9
		c8.2-3.2,15.7-7.9,22.5-14.1c15.7-14.2,24.7-34.5,24.7-55.7C258,194.1,224.3,160.3,182.8,160.3L182.8,160.3z"/>
	<g>
		<g>
			<path class="st0" d="M497,365.3H334.3c-5.4,0-9.7,4.3-9.7,9.7c0,5.4,4.3,9.7,9.7,9.7H497c5.4,0,9.7-4.3,9.7-9.7
				C506.7,369.6,502.4,365.3,497,365.3z"/>
			<path class="st0" d="M497,384.9H334.3c-5.5,0-9.9-4.4-9.9-9.9c0-5.5,4.4-9.9,9.9-9.9H497c5.5,0,9.9,4.4,9.9,9.9
				C506.9,380.5,502.5,384.9,497,384.9z M334.3,365.5c-5.2,0-9.5,4.2-9.5,9.5s4.2,9.5,9.5,9.5H497c5.2,0,9.5-4.2,9.5-9.5
				s-4.2-9.5-9.5-9.5H334.3z"/>
		</g>
		<g>
			<path class="st0" d="M497,315.1H334.3c-5.4,0-9.7,4.3-9.7,9.7c0,5.4,4.3,9.7,9.7,9.7H497c5.4,0,9.7-4.3,9.7-9.7
				C506.7,319.4,502.4,315.1,497,315.1z"/>
			<path class="st0" d="M497,334.7H334.3c-5.5,0-9.9-4.4-9.9-9.9c0-5.5,4.4-9.9,9.9-9.9H497c5.5,0,9.9,4.4,9.9,9.9
				C506.9,330.2,502.5,334.7,497,334.7z M334.3,315.3c-5.2,0-9.5,4.2-9.5,9.5s4.2,9.5,9.5,9.5H497c5.2,0,9.5-4.2,9.5-9.5
				s-4.2-9.5-9.5-9.5H334.3z"/>
		</g>
		<g>
			<path class="st0" d="M497,265H334.3c-5.4,0-9.7,4.3-9.7,9.7s4.3,9.7,9.7,9.7H497c5.4,0,9.7-4.3,9.7-9.7S502.4,265,497,265z"/>
			<path class="st0" d="M497,284.6H334.3c-5.5,0-9.9-4.4-9.9-9.9c0-5.5,4.4-9.9,9.9-9.9H497c5.5,0,9.9,4.4,9.9,9.9
				C506.9,280.1,502.5,284.6,497,284.6z M334.3,265.2c-5.2,0-9.5,4.2-9.5,9.5s4.2,9.5,9.5,9.5H497c5.2,0,9.5-4.2,9.5-9.5
				s-4.2-9.5-9.5-9.5H334.3z"/>
		</g>
		<g>
			<path class="st0" d="M497,214.9H334.3c-5.4,0-9.7,4.3-9.7,9.7s4.3,9.7,9.7,9.7H497c5.4,0,9.7-4.3,9.7-9.7S502.4,214.9,497,214.9z
				"/>
			<path class="st0" d="M497,234.5H334.3c-5.5,0-9.9-4.4-9.9-9.9c0-5.5,4.4-9.9,9.9-9.9H497c5.5,0,9.9,4.4,9.9,9.9
				C506.9,230,502.5,234.5,497,234.5z M334.3,215.1c-5.2,0-9.5,4.2-9.5,9.5c0,5.2,4.2,9.5,9.5,9.5H497c5.2,0,9.5-4.2,9.5-9.5
				c0-5.2-4.2-9.5-9.5-9.5H334.3z"/>
		</g>
	</g>
</g>
</svg>
