<?xml version="1.0" encoding="utf-8"?>
<!-- Generator: Adobe Illustrator 24.1.3, SVG Export Plug-In . SVG Version: 6.00 Build 0)  -->
<svg version="1.1" id="Capa_1" xmlns="http://www.w3.org/2000/svg" xmlns:xlink="http://www.w3.org/1999/xlink" x="0px" y="0px"
	 viewBox="0 0 210.9 210.9" style="enable-background:new 0 0 210.9 210.9;" xml:space="preserve">
<style type="text/css">
	.st0{fill:#FFFFFF;}
</style>
<g>
	<path class="st0" d="M33,50.3c5.4-2.5,9.2-7.9,9.2-14.2c0-8.6-7-15.6-15.6-15.6c-8.6,0-15.6,7-15.6,15.6c0,6.3,3.8,11.8,9.2,14.2
		C12.2,51,6,57.6,6,65.6v5.7c0,2.9,2.4,5.3,5.3,5.3s5.3-2.4,5.3-5.3v-5.7c0-2.6,2.1-4.7,4.7-4.7h10.5c2.6,0,4.7,2.1,4.7,4.7v5.7
		c0,2.9,2.4,5.3,5.3,5.3c2.9,0,5.3-2.4,5.3-5.3v-5.7C47.1,57.5,40.9,50.9,33,50.3z"/>
	<path class="st0" d="M33,111.1c5.4-2.5,9.2-7.9,9.2-14.2c0-8.6-7-15.6-15.6-15.6c-8.6,0-15.6,7-15.6,15.6c0,6.3,3.8,11.8,9.2,14.2
		c-7.8,0.6-14,7.2-14,15.2v5.7c0,2.9,2.4,5.3,5.3,5.3s5.3-2.4,5.3-5.3v-5.7c0-2.6,2.1-4.7,4.7-4.7h10.5c2.6,0,4.7,2.1,4.7,4.7v5.7
		c0,2.9,2.4,5.3,5.3,5.3c2.9,0,5.3-2.4,5.3-5.3v-5.7C47.1,118.3,40.9,111.7,33,111.1z"/>
	<path class="st0" d="M33,171.8c5.4-2.5,9.2-7.9,9.2-14.2c0-8.6-7-15.6-15.6-15.6c-8.6,0-15.6,7-15.6,15.6c0,6.3,3.8,11.8,9.2,14.2
		c-7.8,0.6-14,7.2-14,15.2v5.7c0,2.9,2.4,5.3,5.3,5.3s5.3-2.4,5.3-5.3v-5.7c0-2.6,2.1-4.7,4.7-4.7h10.5c2.6,0,4.7,2.1,4.7,4.7v5.7
		c0,2.9,2.4,5.3,5.3,5.3c2.9,0,5.3-2.4,5.3-5.3v-5.7C47.1,179,40.9,172.4,33,171.8z"/>
	<path class="st0" d="M67.7,52.8h137.7V65H67.7V52.8z"/>
	<path class="st0" d="M203.9,125.7H67.7v-12.2h136.2V125.7z"/>
	<path class="st0" d="M202.4,186.4H67.7v-12.2h134.8V186.4z"/>
	<path class="st0" d="M67.7,35.6h70.2v12.2H67.7V35.6z"/>
	<path class="st0" d="M137.1,108.5H67.7V96.4h69.4V108.5z"/>
	<path class="st0" d="M136.3,169.2H67.7v-12.2h68.7V169.2z"/>
</g>
<g>
	<path class="st0" d="M641.3-121.4v437.8h146.9h146.5h140.6v-437.8H641.3z M1052.2,293.4H934.7h-137l-63.3-63.3V-28.2h316.8v259.9
		H839L791.4,184V40.3h207.4v137h-95.1l-17.8-17.8h48V78.8h-80.6v80.7h0.7l-0.4,0.3l40.5,40.5h127.7V17.2H768.3v176.3l61.2,61.2
		h222.8L1052.2,293.4L1052.2,293.4z M1052.2-51.3H711.3v290.9l53.8,53.8H664.4V-98.3h387.9V-51.3z"/>
</g>
</svg>
