<?xml version="1.0" encoding="utf-8"?>
<!-- Generator: Adobe Illustrator 24.1.3, SVG Export Plug-In . SVG Version: 6.00 Build 0)  -->
<svg version="1.1" id="Capa_1" xmlns="http://www.w3.org/2000/svg" xmlns:xlink="http://www.w3.org/1999/xlink" x="0px" y="0px"
	 viewBox="0 0 423.8 423.8" style="enable-background:new 0 0 423.8 423.8;" xml:space="preserve">
<style type="text/css">
	.st0{fill:#444444;}
</style>
<g id="XMLID_86_">
	<path id="XMLID_87_" class="st0" d="M421.2,200.9c-4.9-10-19.2-36.2-45.1-62.1c-19.4-19.4-41.4-34.9-65.5-46
		c-30.1-13.9-63.3-20.9-98.7-20.9c-35.2,0-68.3,7-98.2,20.7c-24,11-46,26.3-65.4,45.6c-26.1,25.9-40.7,52.5-45.7,62.7
		c-3.4,7-3.4,15.1,0,22.1c4.9,10,19.2,36.2,45.1,62.1c19.4,19.4,41.4,34.9,65.5,46c30.1,13.9,63.3,20.9,98.7,20.9
		c35.2,0,68.3-7,98.2-20.7c24-11,46-26.3,65.4-45.6c26.1-25.9,40.7-52.5,45.7-62.7C424.6,216,424.6,207.8,421.2,200.9z M211.9,321.9
		c-60.8,0-110-49.2-110-110s49.2-110,110-110s110,49.2,110,110S272.6,321.9,211.9,321.9z"/>
	<circle id="XMLID_90_" class="st0" cx="211.9" cy="211.9" r="80"/>
</g>
</svg>
