<?xml version="1.0" encoding="utf-8"?>
<!-- Generator: Adobe Illustrator 24.1.3, SVG Export Plug-In . SVG Version: 6.00 Build 0)  -->
<svg version="1.1" id="Capa_1" xmlns="http://www.w3.org/2000/svg" xmlns:xlink="http://www.w3.org/1999/xlink" x="0px" y="0px"
	 viewBox="0 0 311.5 311.5" style="enable-background:new 0 0 311.5 311.5;" xml:space="preserve">
<style type="text/css">
	.st0{fill:#0B8F01;}
	.st1{fill:#C20003;}
</style>
<g>
	<g>
		<path class="st1" d="M155.8,0C69.7,0,0,69.7,0,155.8s69.7,155.8,155.8,155.8s155.8-69.7,155.8-155.8S241.8,0,155.8,0z
			 M155.8,271.5c-64,0-115.8-51.8-115.8-115.8C40,91.8,91.8,40,155.8,40c64,0,115.8,51.8,115.8,115.8
			C271.5,219.8,219.8,271.5,155.8,271.5z"/>
	</g>
	<g>
		<polygon class="st1" points="196.7,86.5 114.8,168.5 114.8,168.5 86.5,196.7 114.8,225 225,114.8 		"/>
		<polygon class="st1" points="86.5,114.8 196.7,225 225,196.7 196.7,168.5 196.7,168.5 114.8,86.5 		"/>
	</g>
</g>
</svg>
