<?xml version="1.0" encoding="utf-8"?>
<!-- Generator: Adobe Illustrator 25.3.1, SVG Export Plug-In . SVG Version: 6.00 Build 0)  -->
<svg version="1.1" id="Capa_1" xmlns="http://www.w3.org/2000/svg" xmlns:xlink="http://www.w3.org/1999/xlink" x="0px" y="0px"
	 viewBox="0 0 311.5 311.5" style="enable-background:new 0 0 311.5 311.5;" xml:space="preserve">
<style type="text/css">
	.st0{fill:#444444;}
</style>
<path class="st0" d="M155.8,0C69.7,0,0,69.7,0,155.8s69.7,155.8,155.8,155.8s155.8-69.7,155.8-155.8S241.8,0,155.8,0z M155.8,271.5
	c-64,0-115.8-51.8-115.8-115.8C40,91.8,91.8,40,155.8,40s115.8,51.8,115.8,115.8C271.5,219.8,219.8,271.5,155.8,271.5z"/>
<g>
	<path class="st0" d="M135.4,164.1l40.9,0c3,0,5.5-1.4,5.5-3.2l0-90.4c0-1.8-2.5-3.2-5.5-3.2h-40.9c-3,0-5.5,1.4-5.5,3.2l0,0l0,90.4
		C129.9,162.7,132.3,164.1,135.4,164.1z"/>
	<circle class="st0" cx="155.8" cy="212.9" r="31.4"/>
</g>
</svg>
