<?xml version="1.0" encoding="utf-8"?>
<!-- Generator: Adobe Illustrator 25.3.1, SVG Export Plug-In . SVG Version: 6.00 Build 0)  -->
<svg version="1.1" id="Layer_1" xmlns="http://www.w3.org/2000/svg" xmlns:xlink="http://www.w3.org/1999/xlink" x="0px" y="0px"
	 viewBox="0 0 345 115" style="enable-background:new 0 0 345 115;" xml:space="preserve">
<style type="text/css">
	.st0{fill:#A4C639;}
	.st1{fill:#FFFFFF;}
	.st2{font-family:'ArialMT';}
	.st3{font-size:60.2293px;}
</style>
<g>
	<rect width="345" height="115"/>
	<g>
		<g>
			<path class="st0" d="M36.5,47.3c-1,0-1.8,0.3-2.5,1c-0.7,0.7-1,1.5-1,2.5v15c0,1,0.3,1.8,1,2.5c0.7,0.7,1.5,1,2.5,1
				c1,0,1.8-0.3,2.5-1c0.7-0.7,1-1.5,1-2.5v-15c0-1-0.3-1.8-1-2.5C38.3,47.6,37.5,47.3,36.5,47.3z"/>
			<path class="st0" d="M65.4,33.8l2.5-4.6c0.2-0.3,0.1-0.5-0.2-0.7c-0.3-0.1-0.5-0.1-0.7,0.2l-2.5,4.6c-2.2-1-4.5-1.5-7-1.5
				c-2.5,0-4.8,0.5-7,1.5L48,28.8c-0.2-0.3-0.4-0.3-0.7-0.2c-0.3,0.2-0.3,0.4-0.2,0.7l2.5,4.6c-2.5,1.3-4.5,3.1-6,5.3
				c-1.5,2.3-2.2,4.8-2.2,7.5h32.2c0-2.7-0.7-5.2-2.2-7.5C69.9,36.9,67.9,35.1,65.4,33.8z M51.1,40.5c-0.3,0.3-0.6,0.4-1,0.4
				c-0.4,0-0.7-0.1-0.9-0.4c-0.3-0.3-0.4-0.6-0.4-1c0-0.4,0.1-0.7,0.4-1c0.3-0.3,0.6-0.4,0.9-0.4s0.7,0.1,1,0.4
				c0.3,0.3,0.4,0.6,0.4,1C51.5,39.9,51.3,40.2,51.1,40.5z M65.8,40.5c-0.3,0.3-0.6,0.4-0.9,0.4c-0.4,0-0.7-0.1-1-0.4
				c-0.3-0.3-0.4-0.6-0.4-1c0-0.4,0.1-0.7,0.4-1c0.3-0.3,0.6-0.4,1-0.4c0.4,0,0.7,0.1,0.9,0.4c0.3,0.3,0.4,0.6,0.4,1
				C66.1,39.9,66,40.2,65.8,40.5z"/>
			<path class="st0" d="M41.5,71.2c0,1.1,0.4,2,1.1,2.7c0.7,0.7,1.6,1.1,2.7,1.1h2.6l0,7.9c0,1,0.3,1.8,1,2.5c0.7,0.7,1.5,1,2.5,1
				c1,0,1.8-0.3,2.5-1c0.7-0.7,1-1.5,1-2.5V75h4.8v7.9c0,1,0.3,1.8,1,2.5c0.7,0.7,1.5,1,2.5,1c1,0,1.8-0.3,2.5-1
				c0.7-0.7,1-1.5,1-2.5V75h2.6c1,0,1.9-0.4,2.7-1.1c0.7-0.7,1.1-1.6,1.1-2.7V48h-32V71.2z"/>
			<path class="st0" d="M78.4,47.3c-1,0-1.8,0.3-2.5,1c-0.7,0.7-1,1.5-1,2.5v15c0,1,0.3,1.8,1,2.5s1.5,1,2.5,1c1,0,1.8-0.3,2.5-1
				c0.7-0.7,1-1.5,1-2.5v-15c0-1-0.3-1.8-1-2.5C80.3,47.6,79.4,47.3,78.4,47.3z"/>
		</g>
	</g>
	<g>
		<g>
			<path class="st1" d="M103.5,24.1h7.3c1.8,0,3.4,0.3,4.8,1s2.5,1.7,3.2,3c0.8,1.3,1.2,2.7,1.2,4.4c0,1.7-0.4,3.1-1.2,4.4
				c-0.8,1.3-1.8,2.3-3.2,3s-3,1-4.8,1h-7.3V24.1z M110.7,38.2c1.2,0,2.3-0.2,3.3-0.7s1.7-1.1,2.2-2s0.8-1.9,0.8-3
				c0-1.2-0.3-2.2-0.8-3s-1.2-1.5-2.2-2c-0.9-0.5-2-0.7-3.3-0.7h-4.1v11.5H110.7z"/>
			<path class="st1" d="M123.3,24.1h3.1v16.8h-3.1V24.1z"/>
			<path class="st1" d="M132.4,40.6c-1.2-0.4-2.2-0.9-2.9-1.5l1.1-2.4c0.7,0.5,1.5,1,2.5,1.3c1,0.3,2,0.5,3,0.5
				c1.2,0,2.2-0.2,2.8-0.6c0.6-0.4,0.9-0.9,0.9-1.6c0-0.5-0.2-0.9-0.5-1.2c-0.3-0.3-0.8-0.6-1.3-0.7c-0.5-0.2-1.2-0.4-2.2-0.6
				c-1.3-0.3-2.3-0.6-3.1-0.9s-1.5-0.8-2-1.4c-0.6-0.6-0.9-1.5-0.9-2.6c0-0.9,0.3-1.8,0.8-2.5s1.3-1.4,2.3-1.8
				c1-0.4,2.3-0.7,3.7-0.7c1,0,2,0.1,3,0.4c1,0.3,1.8,0.6,2.6,1.1l-1,2.4c-0.7-0.4-1.5-0.8-2.3-1c-0.8-0.2-1.6-0.3-2.3-0.3
				c-1.2,0-2.1,0.2-2.7,0.6c-0.6,0.4-0.9,1-0.9,1.7c0,0.5,0.2,0.9,0.5,1.2c0.3,0.3,0.8,0.5,1.3,0.7c0.5,0.2,1.2,0.4,2.2,0.6
				c1.2,0.3,2.3,0.6,3.1,0.9c0.8,0.3,1.5,0.8,2.1,1.4c0.6,0.6,0.9,1.5,0.9,2.6c0,0.9-0.3,1.8-0.8,2.5c-0.5,0.8-1.3,1.4-2.3,1.8
				c-1,0.4-2.3,0.7-3.7,0.7C134.9,41.1,133.6,40.9,132.4,40.6z"/>
			<path class="st1" d="M156.8,24.8c1.1,0.5,1.9,1.2,2.5,2.1c0.6,0.9,0.9,2,0.9,3.2c0,1.2-0.3,2.3-0.9,3.2c-0.6,0.9-1.4,1.6-2.5,2.1
				c-1.1,0.5-2.3,0.7-3.8,0.7h-3.8v4.8h-3.1V24.1h6.9C154.4,24.1,155.7,24.3,156.8,24.8z M155.9,32.5c0.7-0.6,1.1-1.4,1.1-2.5
				c0-1.1-0.4-1.9-1.1-2.5s-1.7-0.9-3.1-0.9h-3.6v6.7h3.6C154.2,33.4,155.2,33.1,155.9,32.5z"/>
			<path class="st1" d="M166.7,40c-1.4-0.7-2.5-1.8-3.2-3.1c-0.8-1.3-1.2-2.8-1.2-4.4c0-1.6,0.4-3.1,1.2-4.4
				c0.8-1.3,1.9-2.4,3.2-3.1s2.9-1.1,4.6-1.1s3.3,0.4,4.6,1.1c1.4,0.7,2.5,1.8,3.2,3.1s1.2,2.8,1.2,4.4c0,1.6-0.4,3.1-1.2,4.4
				c-0.8,1.3-1.9,2.3-3.2,3.1c-1.4,0.7-2.9,1.1-4.6,1.1S168.1,40.7,166.7,40z M174.4,37.6c0.9-0.5,1.6-1.2,2.1-2.1
				c0.5-0.9,0.8-1.9,0.8-3c0-1.1-0.3-2.1-0.8-3c-0.5-0.9-1.2-1.6-2.1-2.1c-0.9-0.5-1.9-0.8-3-0.8s-2.1,0.3-3,0.8
				c-0.9,0.5-1.6,1.2-2.1,2.1c-0.5,0.9-0.8,1.9-0.8,3c0,1.1,0.3,2.1,0.8,3c0.5,0.9,1.2,1.6,2.1,2.1c0.9,0.5,1.9,0.8,3,0.8
				S173.5,38.1,174.4,37.6z"/>
			<path class="st1" d="M198.6,24.1v16.8h-2.6l-9.3-11.4v11.4h-3.1V24.1h2.6l9.3,11.4V24.1H198.6z"/>
			<path class="st1" d="M203.1,24.1h3.1v16.8h-3.1V24.1z"/>
			<path class="st1" d="M224.9,33.7c0.5,0.7,0.8,1.6,0.8,2.7c0,1.5-0.6,2.6-1.7,3.4s-2.8,1.2-4.9,1.2h-8.4V24.1h7.9
				c2,0,3.5,0.4,4.6,1.2s1.6,1.8,1.6,3.2c0,0.8-0.2,1.6-0.6,2.2s-0.9,1.1-1.6,1.5C223.6,32.4,224.4,32.9,224.9,33.7z M213.9,26.5
				v4.6h4.4c1.1,0,1.9-0.2,2.5-0.6c0.6-0.4,0.9-1,0.9-1.7c0-0.8-0.3-1.3-0.9-1.7c-0.6-0.4-1.4-0.6-2.5-0.6H213.9z M222.6,36
				c0-1.6-1.2-2.4-3.6-2.4h-5v4.8h5C221.4,38.4,222.6,37.6,222.6,36z"/>
			<path class="st1" d="M229.1,24.1h3.1v14.2h8.8v2.6h-11.9V24.1z"/>
			<path class="st1" d="M256,38.2v2.6h-12.6V24.1h12.3v2.6h-9.1V31h8.1v2.6h-8.1v4.6H256z"/>
			<path class="st1" d="M278.7,38.2v2.6h-12.6V24.1h12.3v2.6h-9.1V31h8.1v2.6h-8.1v4.6H278.7z"/>
			<path class="st1" d="M297.1,24.1v16.8h-2.6l-9.3-11.4v11.4h-3.1V24.1h2.6l9.3,11.4V24.1H297.1z"/>
		</g>
	</g>
	<g id="g16" transform="scale(10,10)">
		<text transform="matrix(0.1 0 0 0.1 9.1441 9.3282)" class="st1 st2 st3">A</text>
		<text transform="matrix(0.1 0 0 0.1 13.1614 9.3282)" class="st1 st2 st3">n</text>
		<text transform="matrix(0.1 0 0 0.1 16.5102 9.3282)" class="st1 st2 st3">d</text>
		<text transform="matrix(0.1 0 0 0.1 19.859 9.3282)" class="st1 st2 st3">r</text>
		<text transform="matrix(0.1 0 0 0.1 21.8646 9.3282)" class="st1 st2 st3">o</text>
		<text transform="matrix(0.1 0 0 0.1 25.2134 9.3282)" class="st1 st2 st3">i</text>
		<text transform="matrix(0.1 0 0 0.1 26.5504 9.3282)" class="st1 st2 st3">d</text>
	</g>
</g>
</svg>
