<svg id="Layer_1" data-name="Layer 1" xmlns="http://www.w3.org/2000/svg" viewBox="0 0 345 115"><defs><style>.cls-1{fill:#fff;}</style></defs><rect width="345" height="115"/><path class="cls-1" d="M109.19,25.63h7a9.93,9.93,0,0,1,4.55,1,7.32,7.32,0,0,1,3.09,2.81,7.93,7.93,0,0,1,1.1,4.2,7.88,7.88,0,0,1-1.1,4.2,7.41,7.41,0,0,1-3.09,2.82,10.05,10.05,0,0,1-4.55,1h-7Zm6.86,13.5a6.77,6.77,0,0,0,3.1-.67,4.79,4.79,0,0,0,2.06-1.92,6.18,6.18,0,0,0,0-5.79,4.79,4.79,0,0,0-2.06-1.92,6.77,6.77,0,0,0-3.1-.68h-3.89v11Z"/><path class="cls-1" d="M128.09,25.63h3v16h-3Z"/><path class="cls-1" d="M136.77,41.35A7.43,7.43,0,0,1,134,40l1-2.31a8.07,8.07,0,0,0,2.41,1.27,8.75,8.75,0,0,0,2.87.49,5,5,0,0,0,2.67-.57,1.73,1.73,0,0,0,.88-1.51,1.47,1.47,0,0,0-.49-1.14,3.41,3.41,0,0,0-1.25-.69c-.5-.17-1.19-.36-2.06-.58a23.68,23.68,0,0,1-3-.87,4.89,4.89,0,0,1-1.95-1.36,3.67,3.67,0,0,1-.81-2.5,4.3,4.3,0,0,1,.72-2.42A4.94,4.94,0,0,1,137.28,26a8.9,8.9,0,0,1,3.55-.64,11.74,11.74,0,0,1,2.89.37,7.92,7.92,0,0,1,2.45,1.05l-.94,2.31a9,9,0,0,0-2.2-.93,7.94,7.94,0,0,0-2.22-.32,4.62,4.62,0,0,0-2.62.59,1.84,1.84,0,0,0-.86,1.58,1.42,1.42,0,0,0,.5,1.12,3.52,3.52,0,0,0,1.24.69c.51.17,1.19.36,2.06.57a20.56,20.56,0,0,1,2.93.86,5,5,0,0,1,2,1.36,3.59,3.59,0,0,1,.81,2.47,4.19,4.19,0,0,1-.72,2.4,4.9,4.9,0,0,1-2.19,1.72,8.8,8.8,0,0,1-3.57.64A12.31,12.31,0,0,1,136.77,41.35Z"/><path class="cls-1" d="M160,26.32a5.26,5.26,0,0,1,2.37,2,6,6,0,0,1,0,6.07,5.28,5.28,0,0,1-2.37,2,8.84,8.84,0,0,1-3.63.69h-3.61v4.62h-3v-16h6.59A8.84,8.84,0,0,1,160,26.32Zm-.81,7.37a2.88,2.88,0,0,0,1-2.36,2.88,2.88,0,0,0-1-2.36,4.57,4.57,0,0,0-2.95-.82h-3.48v6.36h3.48A4.57,4.57,0,0,0,159.19,33.69Z"/><path class="cls-1" d="M169.46,40.82a7.93,7.93,0,0,1-3.09-3,8.51,8.51,0,0,1,0-8.44,7.9,7.9,0,0,1,3.09-3,9.66,9.66,0,0,1,8.84,0,7.85,7.85,0,0,1,3.08,2.94,8.5,8.5,0,0,1,0,8.47,7.85,7.85,0,0,1-3.08,2.94,9.75,9.75,0,0,1-8.84,0Zm7.3-2.27a5.2,5.2,0,0,0,2-2,6.11,6.11,0,0,0,0-5.79,5.23,5.23,0,0,0-2-2,6.12,6.12,0,0,0-5.76,0,5.23,5.23,0,0,0-2,2,6.11,6.11,0,0,0,0,5.79,5.2,5.2,0,0,0,2,2,6.12,6.12,0,0,0,5.76,0Z"/><path class="cls-1" d="M199.9,25.63v16h-2.45L188.62,30.8V41.65h-3v-16h2.45L197,36.48V25.63Z"/><path class="cls-1" d="M204.2,25.63h3v16h-3Z"/><path class="cls-1" d="M225,34.77a4.06,4.06,0,0,1,.78,2.53,3.71,3.71,0,0,1-1.6,3.22,8.09,8.09,0,0,1-4.67,1.13h-8v-16H219a7.4,7.4,0,0,1,4.38,1.11,3.57,3.57,0,0,1,1.53,3.06,4,4,0,0,1-.55,2.1,3.76,3.76,0,0,1-1.51,1.42A4.25,4.25,0,0,1,225,34.77ZM214.47,28v4.41h4.21a4.26,4.26,0,0,0,2.4-.56,2,2,0,0,0,0-3.29,4.26,4.26,0,0,0-2.4-.56Zm8.27,9c0-1.55-1.16-2.32-3.46-2.32h-4.81v4.63h4.81C221.58,39.32,222.74,38.55,222.74,37Z"/><path class="cls-1" d="M228.91,25.63h3v13.5h8.37v2.52H228.91Z"/><path class="cls-1" d="M254.64,39.16v2.49h-12v-16h11.69v2.5H245.6v4.16h7.73v2.45H245.6v4.42Z"/><path class="cls-1" d="M276.28,39.16v2.49h-12v-16H276v2.5h-8.72v4.16H275v2.45h-7.74v4.42Z"/><path class="cls-1" d="M293.83,25.63v16h-2.44L282.55,30.8V41.65H279.6v-16h2.45l8.83,10.85V25.63Z"/><path class="cls-1" d="M135.36,80.54h-5.29l-2.9-9.11H117.1l-2.76,9.11h-5.15l10-31h6.16ZM126.3,67.61l-2.62-8.09c-.28-.83-.8-2.77-1.57-5.84H122q-.47,2-1.47,5.84L118,67.61ZM161,69.09q0,5.7-3.09,9A9.1,9.1,0,0,1,151,81c-3,0-5.09-1.05-6.39-3.17V89.6h-5V65.53q0-3.57-.19-7.34h4.37l.28,3.54h.09a8.84,8.84,0,0,1,14.14-.88A12.37,12.37,0,0,1,161,69.09Zm-5.06.18a9.14,9.14,0,0,0-1.47-5.38,5.08,5.08,0,0,0-4.32-2.21,5.13,5.13,0,0,0-3.33,1.22,5.68,5.68,0,0,0-2,3.2,7,7,0,0,0-.23,1.51v3.73a6,6,0,0,0,1.5,4.11A4.94,4.94,0,0,0,150,77.13,5.09,5.09,0,0,0,154.35,75,9.52,9.52,0,0,0,155.91,69.27Zm30.77-.18q0,5.7-3.1,9A9.08,9.08,0,0,1,176.69,81c-3,0-5.09-1.05-6.38-3.17V89.6h-5V65.53q0-3.57-.18-7.34h4.37l.27,3.54h.1A8.84,8.84,0,0,1,184,60.85a12.37,12.37,0,0,1,2.64,8.24Zm-5.06.18a9.21,9.21,0,0,0-1.47-5.38,5.09,5.09,0,0,0-4.32-2.21,5.18,5.18,0,0,0-3.34,1.22,5.62,5.62,0,0,0-2,3.2,6.6,6.6,0,0,0-.23,1.51v3.73a6,6,0,0,0,1.49,4.11,5,5,0,0,0,3.89,1.68A5.09,5.09,0,0,0,180.06,75,9.52,9.52,0,0,0,181.62,69.27Zm33.81,2.57a8.28,8.28,0,0,1-2.76,6.44q-3,2.72-8.44,2.71a14.73,14.73,0,0,1-8-1.93l1.15-4.13a13.82,13.82,0,0,0,7.17,1.93,6.77,6.77,0,0,0,4.37-1.27,4.13,4.13,0,0,0,1.57-3.37A4.36,4.36,0,0,0,209.17,69a12.16,12.16,0,0,0-4.28-2.39q-8.14-3-8.14-8.87a7.86,7.86,0,0,1,2.87-6.26,11.41,11.41,0,0,1,7.61-2.43,15.08,15.08,0,0,1,7,1.47l-1.25,4a12.26,12.26,0,0,0-6-1.43A6,6,0,0,0,203,54.47a3.67,3.67,0,0,0-1.25,2.81,3.8,3.8,0,0,0,1.43,3,16.32,16.32,0,0,0,4.51,2.39,15.24,15.24,0,0,1,5.88,3.77,7.82,7.82,0,0,1,1.9,5.37Zm16.46-9.92h-5.48V72.76q0,4.14,2.9,4.14a8.61,8.61,0,0,0,2.21-.23l.13,3.77a11.09,11.09,0,0,1-3.86.55,6,6,0,0,1-4.6-1.8q-1.65-1.78-1.65-6V61.91h-3.27V58.18h3.27V54.09l4.87-1.47v5.56h5.48v3.74Zm24.65,7.26a12.28,12.28,0,0,1-3,8.46,10.49,10.49,0,0,1-8.18,3.4,10,10,0,0,1-7.85-3.26,11.92,11.92,0,0,1-2.92-8.23,12.17,12.17,0,0,1,3-8.5,10.44,10.44,0,0,1,8.12-3.31A10.23,10.23,0,0,1,253.68,61,11.71,11.71,0,0,1,256.54,69.18Zm-5.15.11A10.08,10.08,0,0,0,250.06,64a4.92,4.92,0,0,0-4.47-2.66A5,5,0,0,0,241,64a10.19,10.19,0,0,0-1.33,5.37A10,10,0,0,0,241,74.66a5.1,5.1,0,0,0,9,0,10.11,10.11,0,0,0,1.37-5.33Zm21.29-6.73a8.16,8.16,0,0,0-1.56-.14,4.67,4.67,0,0,0-4.05,2,7.46,7.46,0,0,0-1.24,4.41V80.54h-5V65.23c0-2.35-.05-4.69-.15-7h4.33l.18,4.28h.14a7.58,7.58,0,0,1,2.48-3.54,5.94,5.94,0,0,1,3.59-1.2,7.76,7.76,0,0,1,1.24.09v4.74Zm22.21,5.75a10.68,10.68,0,0,1-.18,2.25h-14.9A6.48,6.48,0,0,0,282,75.62a7.36,7.36,0,0,0,4.87,1.56,16.42,16.42,0,0,0,6-1.06l.77,3.45A18.65,18.65,0,0,1,286.16,81,10.87,10.87,0,0,1,278,77.89a11.29,11.29,0,0,1-3-8.2,12.81,12.81,0,0,1,2.76-8.41,9.53,9.53,0,0,1,7.82-3.59,8.32,8.32,0,0,1,7.31,3.59A12.06,12.06,0,0,1,294.89,68.31ZM290.16,67a6.7,6.7,0,0,0-1-3.82,4.34,4.34,0,0,0-3.95-2.07,4.7,4.7,0,0,0-3.95,2A7.42,7.42,0,0,0,279.82,67Z"/><path class="cls-1" d="M72.15,59.35c-.07-7.35,6-10.92,6.29-11.09A13.54,13.54,0,0,0,67.78,42.5C63.3,42,59,45.19,56.66,45.19S50.82,42.55,47,42.63a14.18,14.18,0,0,0-12,7.28c-5.16,8.94-1.31,22.08,3.64,29.3,2.47,3.55,5.37,7.49,9.15,7.36s5.09-2.36,9.56-2.36,5.73,2.36,9.59,2.27,6.48-3.56,8.87-7.13a28.84,28.84,0,0,0,4-8.26,12.76,12.76,0,0,1-7.79-11.74Zm-7.3-21.6a13,13,0,0,0,3-9.32,13.27,13.27,0,0,0-8.57,4.43c-1.83,2.15-3.47,5.67-3,9C59.45,42.08,62.77,40.2,64.85,37.75Z"/></svg>