<?xml version="1.0" encoding="utf-8"?>
<!-- Generator: Adobe Illustrator 25.3.1, SVG Export Plug-In . SVG Version: 6.00 Build 0)  -->
<svg version="1.1" id="Layer_1" xmlns="http://www.w3.org/2000/svg" xmlns:xlink="http://www.w3.org/1999/xlink" x="0px" y="0px"
	 viewBox="0 0 859 1280" style="enable-background:new 0 0 859 1280;" xml:space="preserve">
<style type="text/css">
	.st0{fill:#888888;}
</style>
<g transform="translate(0.000000,1280.000000) scale(0.100000,-0.100000)">
	<path class="st0" d="M3845,12794c-566-53-1005-219-1445-548c-132-98-397-365-503-507c-221-296-369-604-457-953
		c-76-302-74-266-80-1366l-5-985l-480-5c-536-6-528-5-641-78c-111-72-185-176-219-307C2,7992,0,7568,0,4215C0,84-5,400,58,272
		C93,198,198,93,272,58C400-5,76,0,4295,0s3895-5,4023,58c74,35,179,140,214,214c63,128,58-188,58,3943c0,3353-2,3777-15,3830
		c-34,131-108,235-219,307c-113,73-106,72-639,78l-477,5v805c0,1077-10,1243-96,1569c-88,336-236,642-451,930
		c-106,142-371,409-503,507c-334,250-695,416-1069,493c-243,50-282,53-771,56C4094,12796,3867,12796,3845,12794z M4870,12396
		c252-41,472-111,695-221c673-332,1145-966,1269-1705c31-184,36-342,36-1188v-852l-242,2l-243,3l-5,900c-6,979-4,936-66,1164
		c-182,669-734,1193-1415,1345c-172,38-280,46-604,46s-432-8-604-46c-682-152-1233-676-1415-1346c-62-227-60-184-66-1163l-5-900
		h-240h-240l-3,825c-3,1012,2,1110,79,1414c78,311,234,618,446,881c89,111,250,271,359,357c316,251,725,427,1119,482
		c169,24,163,24,615,21C4684,12413,4785,12410,4870,12396z M4752,11596c346-66,641-221,883-463c249-249,405-553,465-906
		c19-113,20-163,20-958v-839H4295H2470v839c0,805,1,843,21,962c103,609,534,1114,1113,1304c224,73,319,84,726,81
		C4593,11614,4684,11609,4752,11596z M7838,8035c34-8,86-27,114-41c67-34,158-125,192-192c60-118,56,134,56-3585
		c0-3782,5-3484-66-3604c-62-103-138-165-249-203c-58-20-82-20-3590-20s-3532,0-3590,20c-111,38-187,100-249,203
		c-71,120-66-178-66,3604c0,3719-4,3467,56,3585c34,67,126,158,192,192c114,58-130,54,3652,55C7332,8050,7783,8048,7838,8035z"/>
	<path class="st0" d="M2256,5980c-16-5-40-19-53-32c-81-76-68-196,27-252c35-21,35-21,2065-21s2030,0,2065,21c104,61,108,193,7,268
		l-28,21l-2027,2C3190,5988,2272,5985,2256,5980z"/>
	<path class="st0" d="M2232,4333c-105-51-109-209-7-269l42-24h2028h2028l42,24c103,61,97,219-9,270c-31,15-211,16-2063,16
		C2445,4350,2262,4348,2232,4333z"/>
	<path class="st0" d="M2256,2640c-16-5-40-19-53-32c-81-76-68-196,27-252c35-21,35-21,2065-21s2030,0,2065,21c104,61,108,193,7,268
		l-28,21l-2027,2C3190,2648,2272,2645,2256,2640z"/>
</g>
</svg>
