<?xml version="1.0" encoding="utf-8"?>
<!-- Generator: Adobe Illustrator 25.3.1, SVG Export Plug-In . SVG Version: 6.00 Build 0)  -->
<svg version="1.1" id="Layer_1" xmlns="http://www.w3.org/2000/svg" xmlns:xlink="http://www.w3.org/1999/xlink" x="0px" y="0px"
	 viewBox="0 0 80 80" style="enable-background:new 0 0 80 80;" xml:space="preserve">
<style type="text/css">
	.st0{fill:#888888;}
</style>
<g>
	<g>
		<g>
			<path class="st0" d="M13.6,59.4h29.8c3.7,0,6.7-3,6.7-6.7v-0.1c0-3.7-3-6.7-6.7-6.7H13.6c-1,0-1.7,0.8-1.7,1.7
				c0,1,0.8,1.7,1.7,1.7h29.8c1.7,0,3.2,1.4,3.2,3.2v0.1c0,1.7-1.4,3.2-3.2,3.2H13.6c-1,0-1.7,0.8-1.7,1.7
				C11.8,58.7,12.6,59.4,13.6,59.4z"/>
		</g>
	</g>
	<g>
		<g>
			<path class="st0" d="M46.4,49.5c0.6,0,1.1-0.4,1.2-0.9l9.1-30.1H6l5.8,30c0.1,0.7,0.8,1.2,1.5,1c0.7-0.1,1.2-0.8,1-1.5L9.1,21
				h44.2l-8.1,26.8c-0.2,0.7,0.2,1.4,0.9,1.6C46.2,49.5,46.3,49.5,46.4,49.5z"/>
		</g>
	</g>
	<g>
		<g>
			<path class="st0" d="M55,21c0.5,0,1-0.3,1.2-0.9l2.9-8.2h6.6c0.7,0,1.3-0.6,1.3-1.3s-0.6-1.3-1.3-1.3h-8.4l-3.5,9.9
				c-0.2,0.7,0.1,1.4,0.8,1.7C54.7,21,54.9,21,55,21z"/>
		</g>
	</g>
	<g>
		<g>
			<path class="st0" d="M65.8,12.9h7.1c1.2,0,2.2-1,2.2-2.2s-1-2.2-2.2-2.2h-7.1c-1.2,0-2.2,1-2.2,2.2
				C63.6,11.9,64.6,12.9,65.8,12.9z"/>
		</g>
	</g>
	<path class="st0" d="M44.2,60.5c-3.3,0-6,2.7-6,6c0,3.3,2.7,6,6,6s6-2.7,6-6C50.2,63.2,47.5,60.5,44.2,60.5z M44.2,69.3
		c-1.5,0-2.8-1.2-2.8-2.8s1.2-2.8,2.8-2.8S47,65,47,66.5S45.7,69.3,44.2,69.3z"/>
	<path class="st0" d="M16.1,60.5c-3.3,0-6,2.7-6,6c0,3.3,2.7,6,6,6s6-2.7,6-6C22.1,63.2,19.4,60.5,16.1,60.5z M15.8,69.3
		c-1.5,0-2.8-1.2-2.8-2.8s1.2-2.8,2.8-2.8c1.5,0,2.8,1.2,2.8,2.8S17.3,69.3,15.8,69.3z"/>
	<g>
		<g>
			<path class="st0" d="M40.4,48.8c0.6,0,1.2-0.4,1.3-1.1L46.4,21c0.1-0.7-0.4-1.4-1.1-1.5c-0.7-0.1-1.4,0.4-1.5,1.1l-4.6,26.7
				C39.1,48,39.6,48.7,40.4,48.8C40.3,48.8,40.4,48.8,40.4,48.8z"/>
		</g>
	</g>
	<g>
		<g>
			<path class="st0" d="M33.9,48.2c0.7,0,1.3-0.5,1.3-1.2L37,20.6c0-0.7-0.5-1.3-1.2-1.4s-1.3,0.5-1.4,1.2l-1.7,26.4
				C32.6,47.5,33.1,48.1,33.9,48.2L33.9,48.2z"/>
		</g>
	</g>
	<g>
		<g>
			<path class="st0" d="M20.3,48.8c0.1,0,0.1,0,0.2,0c0.7-0.1,1.2-0.8,1.1-1.5l-4.2-26.7c-0.1-0.7-0.8-1.2-1.5-1.1
				c-0.7,0.1-1.2,0.8-1.1,1.5L19,47.7C19.1,48.3,19.7,48.8,20.3,48.8z"/>
		</g>
	</g>
	<g>
		<g>
			<path class="st0" d="M27.3,48.2L27.3,48.2c0.8,0,1.3-0.6,1.3-1.4l-1.3-26.4c0-0.7-0.7-1.3-1.4-1.2c-0.7,0-1.3,0.6-1.2,1.4
				L26,46.9C26,47.6,26.6,48.2,27.3,48.2z"/>
		</g>
	</g>
	<g>
		<g>
			<path class="st0" d="M10.4,30.2h41.7c0.7,0,1.3-0.6,1.3-1.3c0-0.7-0.6-1.3-1.3-1.3H10.4c-0.7,0-1.3,0.6-1.3,1.3
				C9.1,29.6,9.7,30.2,10.4,30.2z"/>
		</g>
	</g>
	<g>
		<g>
			<path class="st0" d="M11.9,39.5h36.8c0.7,0,1.3-0.6,1.3-1.3s-0.6-1.3-1.3-1.3H11.9c-0.7,0-1.3,0.6-1.3,1.3
				C10.6,38.9,11.2,39.5,11.9,39.5z"/>
		</g>
	</g>
</g>
</svg>
