<?xml version="1.0" encoding="utf-8"?>
<!-- Generator: Adobe Illustrator 24.1.3, SVG Export Plug-In . SVG Version: 6.00 Build 0)  -->
<svg version="1.1" id="Capa_1" xmlns="http://www.w3.org/2000/svg" xmlns:xlink="http://www.w3.org/1999/xlink" x="0px" y="0px"
	 viewBox="0 0 324 324" style="enable-background:new 0 0 324 324;" xml:space="preserve">
<style type="text/css">
	.st0{fill:#FFFFFF;}
</style>
<g>
	<path class="st0" d="M162,0C72.7,0,0,72.7,0,162s72.7,162,162,162c89.3,0,162-72.7,162-162S251.4,0,162,0z M177.4,287.1v-19.3
		c0-6.6-5.4-12-12-12h-9c-6.6,0-12,5.4-12,12v19c-56.7-8-101.4-53.8-107.7-111h16.7c6.6,0,12-5.4,12-12v-9c0-6.6-5.4-12-12-12H37.5
		c8.4-54.7,52.1-97.9,106.9-105.6v14.6c0,6.6,5.4,12,12,12h9c6.6,0,12-5.4,12-12V36.9c55.9,6.8,100.7,50.5,109.2,105.9h-17.2
		c-6.6,0-12,5.4-12,12v9c0,6.6,5.4,12,12,12h17.9C280.9,233.8,235.2,280,177.4,287.1z"/>
	<path class="st0" d="M239,199.4l-47.1-32.1c0.4-1.9,0.6-3.9,0.6-6c0-13.6-8.9-25.1-21.1-29.2V94.8c0-8.3-6.7-15-15-15
		s-15,6.7-15,15v43.5c-6.3,5.6-10.3,13.8-10.3,23c0,16.9,13.8,30.7,30.7,30.7c3.7,0,7.2-0.7,10.5-1.8l49.8,34
		c2.6,1.8,5.5,2.6,8.4,2.6c4.8,0,9.5-2.3,12.4-6.5C247.6,213.4,245.9,204.1,239,199.4z"/>
</g>
</svg>
