<?xml version="1.0" encoding="utf-8"?>
<!-- Generator: Adobe Illustrator 24.1.3, SVG Export Plug-In . SVG Version: 6.00 Build 0)  -->
<svg version="1.1" id="Capa_1" xmlns="http://www.w3.org/2000/svg" xmlns:xlink="http://www.w3.org/1999/xlink" x="0px" y="0px"
	 viewBox="0 0 418.8 418.8" style="enable-background:new 0 0 418.8 418.8;" xml:space="preserve">
<style type="text/css">
	.st0{fill:none;}
	.st1{fill:#FFFFFF;}
</style>
<polygon class="st0" points="542,299.5 542,299.5 583.6,257.9 "/>
<g>
	<polygon class="st0" points="112.2,216.3 231.6,335.7 201.6,365.7 231.6,335.7 112.2,216.3 	"/>
	<polygon class="st0" points="248.6,318.7 389.8,177.5 389.8,177.5 248.6,318.7 129.2,199.3 129.2,199.3 	"/>
	<polygon class="st1" points="112.2,216.3 70.6,257.9 29,299.5 95.2,365.7 201.6,365.7 231.6,335.7 	"/>
	<path class="st1" d="M406.8,365.7H235.6L415.3,186c4.7-4.7,4.7-12.3,0-17L278.9,32.6c-2.3-2.2-5.3-3.5-8.5-3.5
		c-3.2,0-6.2,1.3-8.5,3.5L3.5,291c-4.7,4.7-4.7,12.3,0,17l78.2,78.2c2.2,2.3,5.3,3.5,8.5,3.5h316.6c6.6,0,12-5.4,12-12
		C418.8,371.1,413.4,365.7,406.8,365.7z M129.2,199.3L270.4,58.1l119.4,119.4l0,0l0,0L248.6,318.7L129.2,199.3L129.2,199.3
		L129.2,199.3z M201.6,365.7H95.2L29,299.5l0,0v0l41.6-41.6l41.6-41.6l0,0l0,0l119.4,119.4L201.6,365.7z"/>
	<polygon class="st1" points="389.8,177.5 389.8,177.5 270.4,58.1 129.2,199.3 129.2,199.3 270.4,58.1 	"/>
	<polygon class="st1" points="112.2,216.3 70.6,257.9 112.2,216.3 	"/>
	<polygon class="st1" points="29,299.5 95.2,365.7 29,299.5 	"/>
</g>
</svg>
