<?xml version="1.0" encoding="utf-8"?>
<!-- Generator: Adobe Illustrator 25.3.1, SVG Export Plug-In . SVG Version: 6.00 Build 0)  -->
<svg version="1.1" id="Layer_1" xmlns="http://www.w3.org/2000/svg" xmlns:xlink="http://www.w3.org/1999/xlink" x="0px" y="0px"
	 viewBox="0 0 66.5 66.5" style="enable-background:new 0 0 66.5 66.5;" xml:space="preserve">
<style type="text/css">
	.st0{fill:#FFFFFF;}
	.st1{fill:#444444;}
</style>
<circle class="st0" cx="33.3" cy="33.2" r="30"/>
<path class="st1" d="M33.3,0C14.9,0,0,14.9,0,33.2s14.9,33.3,33.2,33.3s33.3-14.9,33.3-33.2c0,0,0,0,0,0C66.5,14.9,51.6,0,33.3,0z
	 M42.1,35.4h-6.7v21.7h-10V35.4h-4.7V27h4.7v-5.5c0-3.9,1.9-10.1,10.1-10.1h7.4v8.2h-5.4c-1.1-0.1-2.1,0.7-2.1,1.8
	c0,0.2,0,0.3,0,0.5v5h7.6L42.1,35.4z"/>
</svg>
