<?xml version="1.0" encoding="utf-8"?>
<!-- Generator: Adobe Illustrator 25.3.1, SVG Export Plug-In . SVG Version: 6.00 Build 0)  -->
<svg version="1.1" id="Layer_1" xmlns="http://www.w3.org/2000/svg" xmlns:xlink="http://www.w3.org/1999/xlink" x="0px" y="0px"
	 viewBox="0 0 100 100" style="enable-background:new 0 0 100 100;" xml:space="preserve">
<style type="text/css">
	.st0{fill-rule:evenodd;clip-rule:evenodd;fill:#FFFFFF;}
</style>
<path class="st0" d="M85,0c8.3,0,15,6.7,15,15v70c0,8.3-6.7,15-15,15H15c-8.3,0-15-6.7-15-15V15C0,6.7,6.7,0,15,0H85z M90,51.5
	L69.2,82.8c-1.5,2.3-4.6,2.9-6.9,1.4l-0.5-0.3L35.9,62.3L16.1,90H85c2.8,0,5-2.2,5-5V51.5z M85,10H15c-2.8,0-5,2.2-5,5v66.4
	l20.9-29.3c1.6-2.2,4.6-2.7,6.8-1.3l0.5,0.4l25.7,21.4L90,33.5V15C90,12.2,87.8,10,85,10z M30,20c5.5,0,10,4.5,10,10s-4.5,10-10,10
	s-10-4.5-10-10S24.5,20,30,20z"/>
</svg>
