<?xml version="1.0" encoding="utf-8"?>
<!-- Generator: Adobe Illustrator 25.3.1, SVG Export Plug-In . SVG Version: 6.00 Build 0)  -->
<svg version="1.1" id="Layer_2" xmlns="http://www.w3.org/2000/svg" xmlns:xlink="http://www.w3.org/1999/xlink" x="0px" y="0px"
	 viewBox="0 0 345 115" style="enable-background:new 0 0 345 115;" xml:space="preserve">
<style type="text/css">
	.st0{fill:url(#path70_2_);}
	.st1{fill:url(#path94_2_);}
	.st2{fill:url(#path114_2_);}
	.st3{fill:url(#path140_2_);}
	.st4{fill:#FFFFFF;}
</style>
<g>
	<rect width="345" height="115"/>
	<g>
		<g id="g44_1_">
			<g id="g46_1_">
				<g id="g52_1_">
					<g id="g54_1_">
						
							<linearGradient id="path70_2_" gradientUnits="userSpaceOnUse" x1="-31.9397" y1="323.3179" x2="-30.3207" y2="323.3179" gradientTransform="matrix(-22.3765 22.3765 -22.3765 -22.3765 6568.9297 7982.5596)">
							<stop  offset="0" style="stop-color:#00A0FF"/>
							<stop  offset="6.574450e-03" style="stop-color:#00A1FF"/>
							<stop  offset="0.2601" style="stop-color:#00BEFF"/>
							<stop  offset="0.5122" style="stop-color:#00D2FF"/>
							<stop  offset="0.7604" style="stop-color:#00DFFF"/>
							<stop  offset="1" style="stop-color:#00E3FF"/>
						</linearGradient>
						<path id="path70_1_" class="st0" d="M24.4,30.6c-0.6,0.7-1,1.7-1,3l0,0v47.7c0,1.3,0.4,2.4,1,3l0,0l0.2,0.2l26.7-26.7v-0.3
							v-0.3L24.5,30.4L24.4,30.6z"/>
					</g>
				</g>
			</g>
		</g>
		<g id="g72_1_">
			<g id="g74_1_">
				<g id="g80_1_">
					<g id="g82_1_">
						
							<linearGradient id="path94_2_" gradientUnits="userSpaceOnUse" x1="-36.6269" y1="322.4005" x2="-35.0079" y2="322.4005" gradientTransform="matrix(-32.2625 0 0 -32.2625 -1106.8042 10458.958)">
							<stop  offset="0" style="stop-color:#FFE000"/>
							<stop  offset="0.4087" style="stop-color:#FFBD00"/>
							<stop  offset="0.7754" style="stop-color:#FFA500"/>
							<stop  offset="1" style="stop-color:#FF9C00"/>
						</linearGradient>
						<path id="path94_1_" class="st1" d="M51.3,57.2v0.3v0.3l8.9,8.9l0.2-0.1l10.6-6c3-1.7,3-4.5,0-6.2l0,0l-10.6-6l-0.2-0.1
							L51.3,57.2z"/>
					</g>
				</g>
			</g>
		</g>
		<g id="g96_1_">
			<g id="g98_1_">
				<g id="g104_1_">
					<g id="g106_1_">
						
							<linearGradient id="path114_2_" gradientUnits="userSpaceOnUse" x1="-32.608" y1="324.3912" x2="-30.989" y2="324.3912" gradientTransform="matrix(-30.3444 30.3444 -30.3444 -30.3444 8909.4062 10895.3721)">
							<stop  offset="0" style="stop-color:#FF3A44"/>
							<stop  offset="1" style="stop-color:#C31162"/>
						</linearGradient>
						<path id="path114_1_" class="st2" d="M24.4,84.4c1,1.1,2.6,1.2,4.5,0.1l0,0l31.5-17.9l-9.1-9.1L24.4,84.4z"/>
					</g>
				</g>
			</g>
		</g>
		<g id="g116_1_">
			<g id="g118_1_">
				<g id="g124_1_">
					<g id="g126_1_">
						
							<linearGradient id="path140_2_" gradientUnits="userSpaceOnUse" x1="-27.5622" y1="333.5543" x2="-25.9432" y2="333.5543" gradientTransform="matrix(13.55 13.55 -13.55 13.55 4910.728 -4131.4956)">
							<stop  offset="0" style="stop-color:#32A071"/>
							<stop  offset="6.850000e-02" style="stop-color:#2DA771"/>
							<stop  offset="0.4762" style="stop-color:#15CF74"/>
							<stop  offset="0.8009" style="stop-color:#06E775"/>
							<stop  offset="1" style="stop-color:#00F076"/>
						</linearGradient>
						<path id="path140_1_" class="st3" d="M24.4,30.6l26.9,26.9l9.1-9.1L28.9,30.5c-0.9-0.5-1.7-0.7-2.4-0.7l0,0
							C25.6,29.7,24.9,30,24.4,30.6"/>
					</g>
				</g>
			</g>
		</g>
	</g>
	<g>
		<path id="path42_1_" class="st4" d="M255,78.7h4.3V50.1H255V78.7z M293.4,60.4l-4.9,12.4h-0.1l-5.1-12.4h-4.6l7.6,17.3l-4.3,9.6
			h4.4l11.7-26.9L293.4,60.4z M269.2,75.4c-1.4,0-3.3-0.7-3.3-2.4c0-2.2,2.4-3,4.5-3c1.9,0,2.8,0.4,3.9,1
			C273.9,73.6,271.7,75.4,269.2,75.4 M269.7,59.8c-3.1,0-6.3,1.4-7.6,4.4l3.8,1.6c0.8-1.6,2.3-2.1,3.9-2.1c2.2,0,4.4,1.3,4.5,3.7
			v0.3c-0.8-0.4-2.4-1.1-4.4-1.1c-4.1,0-8.2,2.2-8.2,6.4c0,3.8,3.3,6.3,7.1,6.3c2.9,0,4.4-1.3,5.4-2.8h0.1v2.2h4.1v-11
			C278.4,62.6,274.6,59.8,269.7,59.8 M243.4,63.9h-6.1v-9.8h6.1c3.2,0,5,2.6,5,4.9C248.4,61.2,246.5,63.9,243.4,63.9 M243.2,50.1
			H233v28.6h4.3V67.9h6c4.7,0,9.4-3.4,9.4-8.9S248,50.1,243.2,50.1 M187.5,75.4c-2.9,0-5.4-2.5-5.4-5.9c0-3.4,2.5-5.9,5.4-5.9
			c2.9,0,5.2,2.5,5.2,5.9C192.7,73,190.4,75.4,187.5,75.4 M192.4,62h-0.1c-1-1.1-2.8-2.2-5.1-2.2c-4.9,0-9.3,4.3-9.3,9.8
			c0,5.4,4.5,9.7,9.3,9.7c2.3,0,4.2-1,5.1-2.2h0.1v1.4c0,3.7-2,5.7-5.2,5.7c-2.6,0-4.2-1.9-4.9-3.5l-3.7,1.5
			c1.1,2.6,3.9,5.7,8.6,5.7c5,0,9.2-2.9,9.2-10.1V60.4h-4V62z M199.4,78.7h4.3V50.1h-4.3V78.7z M210,69.3c-0.1-3.8,2.9-5.7,5.1-5.7
			c1.7,0,3.1,0.8,3.6,2.1L210,69.3z M223.2,66c-0.8-2.2-3.3-6.2-8.3-6.2c-5,0-9.2,3.9-9.2,9.7c0,5.4,4.1,9.7,9.6,9.7
			c4.5,0,7-2.7,8.1-4.3l-3.3-2.2c-1.1,1.6-2.6,2.7-4.8,2.7c-2.2,0-3.7-1-4.7-2.9l13-5.4L223.2,66z M119.7,62.8v4.1h9.9
			c-0.3,2.3-1.1,4-2.2,5.2c-1.4,1.4-3.7,3-7.6,3c-6.1,0-10.8-4.9-10.8-11c0-6.1,4.7-11,10.8-11c3.3,0,5.7,1.3,7.4,2.9l2.9-2.9
			c-2.5-2.4-5.7-4.2-10.3-4.2c-8.3,0-15.3,6.8-15.3,15.1s7,15.1,15.3,15.1c4.5,0,7.9-1.5,10.5-4.2c2.7-2.7,3.6-6.6,3.6-9.6
			c0-1-0.1-1.8-0.2-2.6L119.7,62.8z M145,75.4c-2.9,0-5.5-2.4-5.5-5.9c0-3.5,2.5-5.9,5.5-5.9c2.9,0,5.5,2.4,5.5,5.9
			C150.5,73,148,75.4,145,75.4 M145,59.8c-5.4,0-9.8,4.1-9.8,9.7c0,5.6,4.4,9.7,9.8,9.7c5.4,0,9.8-4.1,9.8-9.7
			C154.8,63.9,150.4,59.8,145,59.8 M166.3,75.4c-2.9,0-5.5-2.4-5.5-5.9c0-3.5,2.5-5.9,5.5-5.9s5.5,2.4,5.5,5.9
			C171.8,73,169.2,75.4,166.3,75.4 M166.3,59.8c-5.4,0-9.8,4.1-9.8,9.7c0,5.6,4.4,9.7,9.8,9.7s9.8-4.1,9.8-9.7
			C176.1,63.9,171.7,59.8,166.3,59.8"/>
		<g>
			<path class="st4" d="M105.4,27.2h7.3c1.8,0,3.4,0.3,4.8,1c1.4,0.7,2.5,1.7,3.2,2.9c0.8,1.3,1.1,2.7,1.1,4.4
				c0,1.7-0.4,3.1-1.1,4.4c-0.8,1.3-1.8,2.2-3.2,2.9s-3,1-4.8,1h-7.3V27.2z M112.6,41.3c1.2,0,2.3-0.2,3.2-0.7
				c0.9-0.5,1.6-1.1,2.2-2s0.8-1.9,0.8-3c0-1.1-0.3-2.2-0.8-3c-0.5-0.9-1.2-1.5-2.2-2c-0.9-0.5-2-0.7-3.2-0.7h-4.1v11.5H112.6z"/>
			<path class="st4" d="M125.1,27.2h3.1V44h-3.1V27.2z"/>
			<path class="st4" d="M134.2,43.7c-1.2-0.4-2.2-0.9-2.9-1.5l1.1-2.4c0.7,0.5,1.5,1,2.5,1.3c1,0.3,2,0.5,3,0.5
				c1.2,0,2.2-0.2,2.8-0.6c0.6-0.4,0.9-0.9,0.9-1.6c0-0.5-0.2-0.9-0.5-1.2c-0.3-0.3-0.8-0.6-1.3-0.7c-0.5-0.2-1.2-0.4-2.2-0.6
				c-1.3-0.3-2.3-0.6-3.1-0.9c-0.8-0.3-1.5-0.8-2-1.4c-0.6-0.6-0.8-1.5-0.8-2.6c0-0.9,0.3-1.8,0.8-2.5c0.5-0.8,1.3-1.4,2.3-1.8
				c1-0.4,2.3-0.7,3.7-0.7c1,0,2,0.1,3,0.4c1,0.3,1.8,0.6,2.6,1.1l-1,2.4c-0.7-0.4-1.5-0.8-2.3-1c-0.8-0.2-1.6-0.3-2.3-0.3
				c-1.2,0-2.1,0.2-2.7,0.6c-0.6,0.4-0.9,1-0.9,1.6c0,0.5,0.2,0.9,0.5,1.2c0.3,0.3,0.8,0.5,1.3,0.7c0.5,0.2,1.2,0.4,2.2,0.6
				c1.2,0.3,2.3,0.6,3.1,0.9c0.8,0.3,1.5,0.8,2,1.4c0.6,0.6,0.8,1.5,0.8,2.6c0,0.9-0.3,1.8-0.8,2.5c-0.5,0.7-1.3,1.3-2.3,1.8
				c-1,0.4-2.3,0.7-3.7,0.7C136.7,44.2,135.4,44,134.2,43.7z"/>
			<path class="st4" d="M158.5,28c1.1,0.5,1.9,1.2,2.5,2.1c0.6,0.9,0.9,2,0.9,3.2c0,1.2-0.3,2.3-0.9,3.2c-0.6,0.9-1.4,1.6-2.5,2.1
				c-1.1,0.5-2.3,0.7-3.8,0.7h-3.8V44h-3.1V27.2h6.9C156.1,27.2,157.4,27.5,158.5,28z M157.6,35.7c0.7-0.6,1.1-1.4,1.1-2.5
				c0-1.1-0.4-1.9-1.1-2.5c-0.7-0.6-1.7-0.9-3.1-0.9h-3.6v6.6h3.6C155.9,36.5,156.9,36.2,157.6,35.7z"/>
			<path class="st4" d="M168.4,43.1c-1.4-0.7-2.4-1.8-3.2-3.1c-0.8-1.3-1.2-2.8-1.2-4.4c0-1.6,0.4-3.1,1.2-4.4
				c0.8-1.3,1.9-2.3,3.2-3.1c1.4-0.7,2.9-1.1,4.6-1.1s3.2,0.4,4.6,1.1c1.4,0.7,2.4,1.8,3.2,3.1c0.8,1.3,1.2,2.8,1.2,4.4
				c0,1.6-0.4,3.1-1.2,4.4c-0.8,1.3-1.9,2.3-3.2,3.1c-1.4,0.7-2.9,1.1-4.6,1.1S169.7,43.8,168.4,43.1z M176,40.7
				c0.9-0.5,1.6-1.2,2.1-2.1c0.5-0.9,0.8-1.9,0.8-3c0-1.1-0.3-2.1-0.8-3c-0.5-0.9-1.2-1.6-2.1-2.1c-0.9-0.5-1.9-0.8-3-0.8
				s-2.1,0.3-3,0.8c-0.9,0.5-1.6,1.2-2.1,2.1c-0.5,0.9-0.8,1.9-0.8,3c0,1.1,0.3,2.1,0.8,3c0.5,0.9,1.2,1.6,2.1,2.1
				c0.9,0.5,1.9,0.8,3,0.8S175.1,41.2,176,40.7z"/>
			<path class="st4" d="M200.1,27.2V44h-2.6l-9.2-11.3V44h-3.1V27.2h2.6l9.2,11.3V27.2H200.1z"/>
			<path class="st4" d="M204.6,27.2h3.1V44h-3.1V27.2z"/>
			<path class="st4" d="M226.3,36.8c0.5,0.7,0.8,1.6,0.8,2.6c0,1.4-0.6,2.6-1.7,3.4c-1.1,0.8-2.7,1.2-4.9,1.2h-8.3V27.2h7.8
				c2,0,3.5,0.4,4.6,1.2c1.1,0.8,1.6,1.8,1.6,3.2c0,0.8-0.2,1.6-0.6,2.2c-0.4,0.6-0.9,1.1-1.6,1.5C225,35.6,225.8,36.1,226.3,36.8z
				 M215.4,29.7v4.6h4.4c1.1,0,1.9-0.2,2.5-0.6c0.6-0.4,0.9-1,0.9-1.7c0-0.8-0.3-1.3-0.9-1.7c-0.6-0.4-1.4-0.6-2.5-0.6H215.4z
				 M224,39.1c0-1.6-1.2-2.4-3.6-2.4h-5v4.8h5C222.8,41.5,224,40.7,224,39.1z"/>
			<path class="st4" d="M230.4,27.2h3.1v14.1h8.7V44h-11.9V27.2z"/>
			<path class="st4" d="M257.3,41.4V44h-12.5V27.2H257v2.6h-9.1v4.3h8.1v2.6h-8.1v4.6H257.3z"/>
			<path class="st4" d="M279.9,41.4V44h-12.5V27.2h12.2v2.6h-9.1v4.3h8.1v2.6h-8.1v4.6H279.9z"/>
			<path class="st4" d="M298.3,27.2V44h-2.6l-9.2-11.3V44h-3.1V27.2h2.6l9.2,11.3V27.2H298.3z"/>
		</g>
	</g>
</g>
</svg>
