<svg xmlns="http://www.w3.org/2000/svg" viewBox="0 0 70 70"><defs><style>.cls-1{fill:#fff;}.cls-2{fill:#dfbb17;}</style></defs><g id="Capa_3" data-name="Capa 3"><circle class="cls-1" cx="35" cy="35" r="30"/><path class="cls-2" d="M46,19.45H24a4.75,4.75,0,0,0-4.75,4.74V45.81A4.75,4.75,0,0,0,24,50.55H46a4.75,4.75,0,0,0,4.75-4.74V24.19A4.75,4.75,0,0,0,46,19.45ZM25.49,51.13ZM35,46.87A11.87,11.87,0,1,1,46.87,35,11.88,11.88,0,0,1,35,46.87ZM46.63,26.33a2.28,2.28,0,1,1,2.28-2.27A2.27,2.27,0,0,1,46.63,26.33Z"/><path class="cls-2" d="M35,27.48A7.52,7.52,0,1,0,42.52,35,7.52,7.52,0,0,0,35,27.48Z"/><path class="cls-2" d="M35,1.75A33.25,33.25,0,1,0,68.24,35,33.25,33.25,0,0,0,35,1.75ZM54.9,46.66a8.07,8.07,0,0,1-8.06,8.06H23.16a8.07,8.07,0,0,1-8.06-8.06V23.34a8.07,8.07,0,0,1,8.06-8.06H46.84a8.07,8.07,0,0,1,8.06,8.06Z"/></g></svg>