<svg xmlns="http://www.w3.org/2000/svg" viewBox="0 0 70 70"><defs><style>.cls-1{fill:#fff;}.cls-2{fill:#dfbb17;}</style></defs><g id="Capa_2" data-name="Capa 2"><circle class="cls-1" cx="35" cy="35" r="30"/><polygon class="cls-2" points="28.64 43.38 41.36 35 28.64 26.62 28.64 43.38"/><path class="cls-2" d="M35,1.8A33.2,33.2,0,1,0,68.2,35,33.19,33.19,0,0,0,35,1.8ZM54.29,42.73a5.77,5.77,0,0,1-5.77,5.77h-27a5.77,5.77,0,0,1-5.77-5.77V27.27a5.77,5.77,0,0,1,5.77-5.77h27a5.77,5.77,0,0,1,5.77,5.77Z"/></g></svg>