<?xml version="1.0" encoding="utf-8"?>
<!-- Generator: Adobe Illustrator 24.1.3, SVG Export Plug-In . SVG Version: 6.00 Build 0)  -->
<svg version="1.1" id="Capa_1" xmlns="http://www.w3.org/2000/svg" xmlns:xlink="http://www.w3.org/1999/xlink" x="0px" y="0px"
	 viewBox="0 0 20 20" style="enable-background:new 0 0 20 20;" xml:space="preserve">
<style type="text/css">
	.st0{fill:#FFFFFF;}
</style>
<g>
	<g>
		<path class="st0" d="M19.2,16.6l-4.5-4.5c-0.7,1-1.5,1.9-2.6,2.6l4.5,4.5c0.7,0.7,1.9,0.7,2.6,0C19.9,18.5,19.9,17.3,19.2,16.6z"
			/>
		<path class="st0" d="M14.9,7.6c0-4-3.3-7.3-7.3-7.3c-4,0-7.3,3.3-7.3,7.3s3.3,7.3,7.3,7.3C11.6,14.9,14.9,11.6,14.9,7.6z M7.6,13
			c-3,0-5.5-2.5-5.5-5.5s2.5-5.5,5.5-5.5c3,0,5.5,2.5,5.5,5.5S10.6,13,7.6,13z"/>
		<path class="st0" d="M3.3,7.6h1.2c0-1.7,1.4-3,3-3V3.3C5.2,3.3,3.3,5.2,3.3,7.6z"/>
	</g>
</g>
</svg>
