<?xml version="1.0" encoding="utf-8"?>
<!-- Generator: Adobe Illustrator 24.1.3, SVG Export Plug-In . SVG Version: 6.00 Build 0)  -->
<svg version="1.1" id="Capa_1" xmlns="http://www.w3.org/2000/svg" xmlns:xlink="http://www.w3.org/1999/xlink" x="0px" y="0px"
	 viewBox="0 0 50 50" style="enable-background:new 0 0 50 50;" xml:space="preserve">
<style type="text/css">
	.st0{fill:none;stroke:#FFFFFF;stroke-width:2;stroke-linecap:round;stroke-linejoin:round;stroke-miterlimit:10;}
	.st1{fill:#FFFFFF;}
	.st2{fill:none;stroke:#FFFFFF;stroke-width:1.5;stroke-linecap:round;stroke-linejoin:round;stroke-miterlimit:10;}
</style>
<g>
	<g>
		<path class="st1" d="M25,4.6c6,0,10.8,4.8,10.8,10.8S31,26.2,25,26.2s-10.8-4.8-10.8-10.8S19,4.6,25,4.6 M25,2.6
			c-7.1,0-12.8,5.7-12.8,12.8S17.9,28.2,25,28.2s12.8-5.7,12.8-12.8S32.1,2.6,25,2.6L25,2.6z"/>
	</g>
	<g>
		<g>
			<path class="st1" d="M12.3,30.1c3.7,3.3,8.1,5,12.7,5c4.6,0,9.1-1.8,12.7-5c3.2,5.1,4.9,9.9,5.5,15.4H6.8
				C7.4,39.9,9.1,35.1,12.3,30.1 M38.1,26.9c-3.6,4-8.2,6.2-13.1,6.2c-4.9,0-9.5-2.2-13.1-6.2C7.6,33.1,5,39.2,4.6,47.4h40.8
				C45,39.2,42.4,33.1,38.1,26.9L38.1,26.9z"/>
		</g>
	</g>
</g>
</svg>
