<?xml version="1.0" encoding="utf-8"?>
<!-- Generator: Adobe Illustrator 25.3.1, SVG Export Plug-In . SVG Version: 6.00 Build 0)  -->
<svg version="1.1" id="Capa_1" xmlns="http://www.w3.org/2000/svg" xmlns:xlink="http://www.w3.org/1999/xlink" x="0px" y="0px"
	 viewBox="0 0 311.5 311.5" style="enable-background:new 0 0 311.5 311.5;" xml:space="preserve">
<style type="text/css">
	.st0{fill:#444444;}
</style>
<g>
	<path class="st0" d="M168.5,128.9h-25.3c-1.9,0-3.4,1.6-3.4,3.4V229c0,1.9,1.6,3.4,3.4,3.4h25.3c1.9,0,3.4-1.6,3.4-3.4l0,0v-96.6
		C171.9,130.5,170.4,128.9,168.5,128.9z"/>
	<circle class="st0" cx="155.8" cy="99.1" r="19.9"/>
</g>
<path class="st0" d="M155.8,0C69.7,0,0,69.7,0,155.8s69.7,155.8,155.8,155.8s155.8-69.7,155.8-155.8S241.8,0,155.8,0z M155.8,285
	c-71.4,0-129.2-57.8-129.2-129.2S84.4,26.6,155.8,26.6S285,84.4,285,155.8S227.2,285,155.8,285z"/>
</svg>
