<?xml version="1.0" encoding="utf-8"?>
<!-- Generator: Adobe Illustrator 25.3.1, SVG Export Plug-In . SVG Version: 6.00 Build 0)  -->
<svg version="1.1" id="Layer_1" xmlns="http://www.w3.org/2000/svg" xmlns:xlink="http://www.w3.org/1999/xlink" x="0px" y="0px"
	 viewBox="0 0 66.5 66.5" style="enable-background:new 0 0 66.5 66.5;" xml:space="preserve">
<style type="text/css">
	.st0{fill:#FFFFFF;}
	.st1{fill:#444444;}
</style>
<circle class="st0" cx="33.3" cy="33.2" r="30"/>
<path class="st1" d="M44.3,17.7h-22c-2.6,0-4.7,2.1-4.8,4.7v21.6c0,2.6,2.1,4.7,4.8,4.7h22c2.6,0,4.7-2.1,4.8-4.7V22.4
	C49,19.8,46.9,17.7,44.3,17.7z M33.3,45.1c-6.6,0-11.9-5.3-11.9-11.9s5.3-11.9,11.9-11.9s11.9,5.3,11.9,11.9l0,0
	C45.1,39.8,39.8,45.1,33.3,45.1z M44.9,24.6c-1.3,0-2.3-1-2.3-2.3c0-1.3,1-2.3,2.3-2.3s2.3,1,2.3,2.3c0,0,0,0,0,0
	C47.2,23.6,46.2,24.6,44.9,24.6C44.9,24.6,44.9,24.6,44.9,24.6z"/>
<path class="st1" d="M33.3,25.7c-4.2,0-7.5,3.4-7.5,7.5s3.4,7.5,7.5,7.5s7.5-3.4,7.5-7.5S37.4,25.7,33.3,25.7L33.3,25.7z"/>
<path class="st1" d="M33.3,0C14.9,0,0,14.9,0,33.2s14.9,33.3,33.2,33.3s33.3-14.9,33.3-33.2c0,0,0,0,0,0C66.5,14.9,51.6,0,33.3,0z
	 M53.2,44.9c0,4.4-3.6,8.1-8.1,8.1H21.4c-4.4,0-8.1-3.6-8.1-8.1V21.6c0-4.4,3.6-8.1,8.1-8.1h23.7c4.4,0,8.1,3.6,8.1,8.1V44.9z"/>
</svg>
