<svg xmlns="http://www.w3.org/2000/svg" xmlns:xlink="http://www.w3.org/1999/xlink" viewBox="0 0 1080 377"><defs><style>.cls-1{mask:url(#mask);filter:url(#luminosity-noclip-4);}.cls-2,.cls-4,.cls-6{mix-blend-mode:multiply;}.cls-2{fill:url(#radial-gradient);}.cls-3{mask:url(#mask-2);filter:url(#luminosity-noclip-5);}.cls-4{fill:url(#radial-gradient-2);}.cls-5{mask:url(#mask-3);filter:url(#luminosity-noclip-6);}.cls-6{fill:url(#radial-gradient-3);}.cls-7{isolation:isolate;}.cls-8{fill:#fff;}.cls-9{fill:url(#linear-gradient);}.cls-10{fill:url(#linear-gradient-2);}.cls-11{mask:url(#mask-4);}.cls-12,.cls-16{mix-blend-mode:overlay;}.cls-12{fill:url(#radial-gradient-4);}.cls-13{mask:url(#mask-5);}.cls-14{opacity:0.4;fill:url(#radial-gradient-5);}.cls-15{mask:url(#mask-6);}.cls-16{opacity:0.74;fill:url(#radial-gradient-6);}.cls-17{fill:#ebbb00;}.cls-18{filter:url(#luminosity-noclip-3);}.cls-19{filter:url(#luminosity-noclip-2);}.cls-20{filter:url(#luminosity-noclip);}</style><filter id="luminosity-noclip" x="390.04" y="-6854" width="51.32" height="32766" filterUnits="userSpaceOnUse" color-interpolation-filters="sRGB"><feFlood flood-color="#fff" result="bg"/><feBlend in="SourceGraphic" in2="bg"/></filter><mask id="mask" x="390.04" y="-6854" width="51.32" height="32766" maskUnits="userSpaceOnUse"><g class="cls-20"/></mask><radialGradient id="radial-gradient" cx="-1289.97" cy="-1881.17" r="27.78" gradientTransform="matrix(-0.08, -1, 1, -0.08, 2184.94, -1121.64)" gradientUnits="userSpaceOnUse"><stop offset="0" stop-color="#fff"/><stop offset="1"/></radialGradient><filter id="luminosity-noclip-2" x="390.04" y="-6854" width="51.32" height="32766" filterUnits="userSpaceOnUse" color-interpolation-filters="sRGB"><feFlood flood-color="#fff" result="bg"/><feBlend in="SourceGraphic" in2="bg"/></filter><mask id="mask-2" x="390.04" y="-6854" width="51.32" height="32766" maskUnits="userSpaceOnUse"><g class="cls-19"/></mask><radialGradient id="radial-gradient-2" cx="793.56" cy="190.28" r="58.47" gradientTransform="translate(-244.05 -202.42) rotate(25.56)" xlink:href="#radial-gradient"/><filter id="luminosity-noclip-3" x="392.15" y="-6854" width="49.54" height="32766" filterUnits="userSpaceOnUse" color-interpolation-filters="sRGB"><feFlood flood-color="#fff" result="bg"/><feBlend in="SourceGraphic" in2="bg"/></filter><mask id="mask-3" x="392.15" y="-6854" width="49.54" height="32766" maskUnits="userSpaceOnUse"><g class="cls-18"/></mask><radialGradient id="radial-gradient-3" cx="828.29" cy="161.66" r="9.34" gradientTransform="translate(-244.05 -202.42) rotate(25.56)" xlink:href="#radial-gradient"/><linearGradient id="linear-gradient" x1="-1043.77" y1="-418.08" x2="-1052.96" y2="-416.3" gradientTransform="translate(1479.22 -128.32) rotate(-44.44)" gradientUnits="userSpaceOnUse"><stop offset="0" stop-color="#edbd00"/><stop offset="0.88" stop-color="#cf5500"/></linearGradient><linearGradient id="linear-gradient-2" x1="1789.01" y1="-2403.77" x2="1859.83" y2="-2403.77" gradientTransform="translate(38.12 -2684.85) rotate(135.56)" gradientUnits="userSpaceOnUse"><stop offset="0" stop-color="#cf5500"/><stop offset="1" stop-color="#fbec27"/></linearGradient><filter id="luminosity-noclip-4" x="390.04" y="279.69" width="51.32" height="33.35" filterUnits="userSpaceOnUse" color-interpolation-filters="sRGB"><feFlood flood-color="#fff" result="bg"/><feBlend in="SourceGraphic" in2="bg"/></filter><mask id="mask-4" x="390.04" y="279.69" width="51.32" height="33.35" maskUnits="userSpaceOnUse"><g class="cls-1"><path class="cls-2" d="M440.86,296.81c.28,3.55.4,7.38.5,11.16a16,16,0,0,0-2-5.27c-2-2.87-5.9-3.33-10.24-1.19-6.57,3-10.79,4.86-19.92,8.31a34,34,0,0,1-3.44,1.24,56.2,56.2,0,0,1-6,1.47,24.7,24.7,0,0,1-6.35.46c-2.06-.13-2.78-.71-3.22-1.54a1.71,1.71,0,0,1-.15-.62,4.46,4.46,0,0,1,.08-1.16,9.72,9.72,0,0,1,2.3-3.69,53.09,53.09,0,0,1,7.43-6.41c1.43-1.1,3.05-2.3,4.82-3.62,2.6-1.93,5.53-4.12,8.66-6.55,2-1.48,4-2.94,4.81-3.5,8.11-5.5,13.24-7.24,16.64-5.64,3.24,1.52,5.13,6.27,5.94,14.95,0,.54.09,1.06.13,1.6Z"/></g></mask><radialGradient id="radial-gradient-4" cx="-1289.97" cy="-1881.17" r="27.78" gradientTransform="matrix(-0.08, -1, 1, -0.08, 2184.94, -1121.64)" gradientUnits="userSpaceOnUse"><stop offset="0" stop-color="#fff"/><stop offset="1" stop-color="#fff"/></radialGradient><filter id="luminosity-noclip-5" x="390.04" y="279.69" width="51.32" height="31.86" filterUnits="userSpaceOnUse" color-interpolation-filters="sRGB"><feFlood flood-color="#fff" result="bg"/><feBlend in="SourceGraphic" in2="bg"/></filter><mask id="mask-5" x="390.04" y="279.69" width="51.32" height="31.86" maskUnits="userSpaceOnUse"><g class="cls-3"><path class="cls-4" d="M390.2,311.45l.06.1c1.7-1.23,3.89-2.62,6.52-4.25,4-2.47,9.28-5.49,15-9.08,2.08-1.23,4.21-2.44,5.16-3,15.45-8.36,22-6.54,24,10.21.08.63.15,1.29.22,1.95,0,.19.1.37.14.58-.11-4.36-.26-8.75-.63-12.77-.81-8.65-2.69-13.4-5.91-14.93-3.4-1.63-8.54.1-16.67,5.62-.79.56-2.83,2-4.81,3.5-3.12,2.43-6.06,4.61-8.65,6.54-1.77,1.33-3.4,2.53-4.83,3.63a52.42,52.42,0,0,0-7.43,6.41,9.72,9.72,0,0,0-2.3,3.69A2.86,2.86,0,0,0,390.2,311.45Z"/></g></mask><radialGradient id="radial-gradient-5" cx="793.56" cy="190.28" r="58.47" gradientTransform="translate(-244.05 -202.42) rotate(25.56)" xlink:href="#radial-gradient-4"/><filter id="luminosity-noclip-6" x="392.15" y="300.19" width="49.54" height="13.37" filterUnits="userSpaceOnUse" color-interpolation-filters="sRGB"><feFlood flood-color="#fff" result="bg"/><feBlend in="SourceGraphic" in2="bg"/></filter><mask id="mask-6" x="392.15" y="300.19" width="49.54" height="13.37" maskUnits="userSpaceOnUse"><g class="cls-5"><path class="cls-6" d="M441.36,308a15.91,15.91,0,0,0-2-5.28,5.63,5.63,0,0,0-2.22-1.89c-2.12-1-5.05-.77-8,.7-6.57,3-10.8,4.86-19.92,8.31a34,34,0,0,1-3.44,1.24,56.2,56.2,0,0,1-6,1.47,24.26,24.26,0,0,1-6.35.46,9.61,9.61,0,0,1-1.25-.16c0,.17,0,.35,0,.53a10,10,0,0,0,1.23.16,25.12,25.12,0,0,0,6.49-.48,54.86,54.86,0,0,0,6-1.48,31.27,31.27,0,0,0,3.47-1.25c9.08-3.42,13.29-5.25,20-8.33,3.69-1.83,7.6-1.85,9.57,1,1.31,1.9,2.12,5.14,2.79,9.46A18.11,18.11,0,0,0,441.36,308Z"/></g></mask><radialGradient id="radial-gradient-6" cx="828.29" cy="161.66" r="9.34" gradientTransform="translate(-244.05 -202.42) rotate(25.56)" xlink:href="#radial-gradient-4"/></defs><g class="cls-7"><g id="Capa_1" data-name="Capa 1"><path class="cls-8" d="M387,335.8a4.82,4.82,0,0,1-2.55-.72,5.23,5.23,0,0,1-1.85-1.83v2.32h-1v-16.3h1.12v7.21a7.27,7.27,0,0,1,1.95-2,4.52,4.52,0,0,1,2.6-.76,4.73,4.73,0,0,1,2.23.52,5.12,5.12,0,0,1,1.67,1.39,6.38,6.38,0,0,1,1.05,1.94,6.69,6.69,0,0,1,.37,2.2,6.29,6.29,0,0,1-.42,2.29,6.15,6.15,0,0,1-1.18,1.9,5.87,5.87,0,0,1-1.76,1.31A5.1,5.1,0,0,1,387,335.8Zm-.23-1a4.19,4.19,0,0,0,1.88-.42,4.77,4.77,0,0,0,1.46-1.13,5.29,5.29,0,0,0,1-1.6,5,5,0,0,0,.35-1.83,5.73,5.73,0,0,0-.32-1.89,5.23,5.23,0,0,0-.92-1.61,4.4,4.4,0,0,0-1.41-1.12,3.9,3.9,0,0,0-3.18-.17,4.83,4.83,0,0,0-1.19.68,5.4,5.4,0,0,0-1,1,6.52,6.52,0,0,0-.72,1.16v3.85a2.4,2.4,0,0,0,.49,1.21,4.36,4.36,0,0,0,1,1,5.74,5.74,0,0,0,1.28.66A3.94,3.94,0,0,0,386.72,334.79Z"/><path class="cls-8" d="M395.57,339.5a1.4,1.4,0,0,0,.34,0,2.73,2.73,0,0,0,.41,0,1,1,0,0,0,.37-.11.72.72,0,0,0,.24-.19,2.73,2.73,0,0,0,.32-.5c.13-.25.3-.62.51-1.12l.85-2L393.43,324h1.16l4.62,10.52L403.52,324h1.1l-6.37,15.28a2,2,0,0,1-.79,1,2.79,2.79,0,0,1-1.49.34h-.19a.78.78,0,0,1-.21,0Z"/><path class="cls-9" d="M433.44,300.65c1.31,3.06,8.6,25.58,8.53,14.75-.12-.85,0-1.64-.13-2.34-.68-4.66-1.5-8.12-2.86-10.13A5.55,5.55,0,0,0,433.44,300.65Z"/><path class="cls-10" d="M441.25,295.17c-1.71-18.32-8.28-20-23.4-9.69-.9.64-2.9,2.06-4.83,3.51-5.25,4.08-9.95,7.45-13.48,10.16a54.65,54.65,0,0,0-7.52,6.48,10,10,0,0,0-2.4,3.95,3.28,3.28,0,0,0,.12,2.1c.62,1.19,1.68,1.71,3.64,1.84a25.12,25.12,0,0,0,6.49-.48,54.86,54.86,0,0,0,6-1.48,31.27,31.27,0,0,0,3.47-1.25c9.08-3.42,13.29-5.25,20-8.33,3.69-1.83,7.6-1.85,9.57,1,1.38,2,2.21,5.45,2.89,10.11.11.7.07,1.42.2,2.28C441.76,308.48,441.84,301.47,441.25,295.17Z"/><g class="cls-11"><path class="cls-12" d="M440.86,296.81c.28,3.55.4,7.38.5,11.16a16,16,0,0,0-2-5.27c-2-2.87-5.9-3.33-10.24-1.19-6.57,3-10.79,4.86-19.92,8.31a34,34,0,0,1-3.44,1.24,56.2,56.2,0,0,1-6,1.47,24.7,24.7,0,0,1-6.35.46c-2.06-.13-2.78-.71-3.22-1.54a1.71,1.71,0,0,1-.15-.62,4.46,4.46,0,0,1,.08-1.16,9.72,9.72,0,0,1,2.3-3.69,53.09,53.09,0,0,1,7.43-6.41c1.43-1.1,3.05-2.3,4.82-3.62,2.6-1.93,5.53-4.12,8.66-6.55,2-1.48,4-2.94,4.81-3.5,8.11-5.5,13.24-7.24,16.64-5.64,3.24,1.52,5.13,6.27,5.94,14.95,0,.54.09,1.06.13,1.6Z"/></g><g class="cls-13"><path class="cls-14" d="M390.2,311.45l.06.1c1.7-1.23,3.89-2.62,6.52-4.25,4-2.47,9.28-5.49,15-9.08,2.08-1.23,4.21-2.44,5.16-3,15.45-8.36,22-6.54,24,10.21.08.63.15,1.29.22,1.95,0,.19.1.37.14.58-.11-4.36-.26-8.75-.63-12.77-.81-8.65-2.69-13.4-5.91-14.93-3.4-1.63-8.54.1-16.67,5.62-.79.56-2.83,2-4.81,3.5-3.12,2.43-6.06,4.61-8.65,6.54-1.77,1.33-3.4,2.53-4.83,3.63a52.42,52.42,0,0,0-7.43,6.41,9.72,9.72,0,0,0-2.3,3.69A2.86,2.86,0,0,0,390.2,311.45Z"/></g><g class="cls-15"><path class="cls-16" d="M441.36,308a15.91,15.91,0,0,0-2-5.28,5.63,5.63,0,0,0-2.22-1.89c-2.12-1-5.05-.77-8,.7-6.57,3-10.8,4.86-19.92,8.31a34,34,0,0,1-3.44,1.24,56.2,56.2,0,0,1-6,1.47,24.26,24.26,0,0,1-6.35.46,9.61,9.61,0,0,1-1.25-.16c0,.17,0,.35,0,.53a10,10,0,0,0,1.23.16,25.12,25.12,0,0,0,6.49-.48,54.86,54.86,0,0,0,6-1.48,31.27,31.27,0,0,0,3.47-1.25c9.08-3.42,13.29-5.25,20-8.33,3.69-1.83,7.6-1.85,9.57,1,1.31,1.9,2.12,5.14,2.79,9.46A18.11,18.11,0,0,0,441.36,308Z"/></g><path class="cls-8" d="M430.9,309.13l11.51,26.44H439l-3.74-8.09h-9.33l1.25-2.49H434l-5-12.13-9.95,22.71h-3.73l11.82-26.44Z"/><path class="cls-8" d="M448.36,309h23a2.63,2.63,0,0,1,1.25.39,3,3,0,0,1,.81.74,2,2,0,0,1,.26.59,4.28,4.28,0,0,1,.13.68,4.49,4.49,0,0,1,0,.62v6.63h-3.42v-6.53H451.78v20.52h18.66v-5.28h3.42v5.13a5.91,5.91,0,0,1-.06.79,3,3,0,0,1-.25.9,2.69,2.69,0,0,1-.54.8,3.73,3.73,0,0,1-.57.35,5.92,5.92,0,0,1-.66.25,3.82,3.82,0,0,1-.62.13,2.83,2.83,0,0,1-.41,0H448.36Z"/><path class="cls-8" d="M479.81,309h23a2.59,2.59,0,0,1,1.24.39,3,3,0,0,1,.82.74,2,2,0,0,1,.25.59,4.33,4.33,0,0,1,.14.68c0,.22,0,.42,0,.62v6.63h-3.42v-6.53H483.23v20.52h18.66v-5.28h3.42v5.13c0,.23,0,.5-.05.79a3.4,3.4,0,0,1-.26.9,2.69,2.69,0,0,1-.54.8,4.15,4.15,0,0,1-.56.35,6.07,6.07,0,0,1-.67.25,3.82,3.82,0,0,1-.62.13,2.83,2.83,0,0,1-.41,0H479.81Z"/><polygon class="cls-8" points="511.26 309.13 531.79 309.13 531.79 311.93 514.68 311.93 514.68 333.08 532.1 333.08 532.1 335.57 511.26 335.57 511.26 309.13"/><rect class="cls-8" x="517.49" y="320.95" width="12.44" height="2.8"/><path class="cls-8" d="M542.41,311.78v10.57H562a9.34,9.34,0,0,1,1.23.1,3.8,3.8,0,0,1,1.49.52,2.22,2.22,0,0,1,.7.57,2.47,2.47,0,0,1,.41.66,2.88,2.88,0,0,1,.18.58,3.51,3.51,0,0,1,0,.37v7.15a7.4,7.4,0,0,1-.13,1,2.9,2.9,0,0,1-.8,1.48,2.57,2.57,0,0,1-.8.54,3.84,3.84,0,0,1-.85.28,5.42,5.42,0,0,1-.72.09,4.2,4.2,0,0,1-.43,0H541.78c-.07,0-.23,0-.46,0a6.52,6.52,0,0,1-.8-.09,4.63,4.63,0,0,1-.91-.26,3.16,3.16,0,0,1-.86-.48,1.15,1.15,0,0,1-.42-.66c-.08-.29-.15-.57-.2-.86a6.6,6.6,0,0,1-.08-1.05v-2.8h3.42v3.42h21.15v-7.77H542.1a5.69,5.69,0,0,1-1-.16,3.48,3.48,0,0,1-1.63-1.05,2.76,2.76,0,0,1-.46-.81,5,5,0,0,1-.24-.82,3.24,3.24,0,0,1-.12-.89v-9c0-.08,0-.22,0-.43a3.27,3.27,0,0,1,.16-.72,3.2,3.2,0,0,1,.41-.8,2.77,2.77,0,0,1,.74-.7,4.36,4.36,0,0,1,1.75-.7c.49-.05.81-.08,1-.08h19.59a4.62,4.62,0,0,1,.93.18,3,3,0,0,1,1.29.72,2.43,2.43,0,0,1,.76,1.28,6,6,0,0,1,.13.94v2.8H562v-3.11Z"/><path class="cls-8" d="M590.39,313a8.54,8.54,0,0,1,.15-1.34,3,3,0,0,1,.82-1.58,3.17,3.17,0,0,1,.78-.58,3.82,3.82,0,0,1,.85-.35,5.37,5.37,0,0,1,.82-.16c.26,0,.46,0,.62,0h19.28l.43,0a3.77,3.77,0,0,1,.72.14,6.25,6.25,0,0,1,.86.33,2.74,2.74,0,0,1,.79.57,2.28,2.28,0,0,1,.55.83,4.49,4.49,0,0,1,.27.92c0,.28.08.52.1.71a2,2,0,0,0,0,.26V332a4.22,4.22,0,0,1-.06.62,6.09,6.09,0,0,1-.18.8,3.73,3.73,0,0,1-.31.78,2.17,2.17,0,0,1-.46.6,4,4,0,0,1-1.54.74,6,6,0,0,1-1.19.19H594.43c-.1,0-.28,0-.52,0a7.11,7.11,0,0,1-.84-.09,4.12,4.12,0,0,1-.93-.28,2.44,2.44,0,0,1-.82-.54,2.29,2.29,0,0,1-.54-.84,4.44,4.44,0,0,1-.28-.95,7.18,7.18,0,0,1-.09-.83c0-.25,0-.41,0-.49Zm3.42,19.59H614V311.78H593.81Z"/><rect class="cls-8" x="572" y="320.95" width="12.44" height="2.8"/><path class="cls-17" d="M441.89,178.61a19.37,19.37,0,0,0-4.17-3.52,37.12,37.12,0,0,0-5.87-3.06,41.4,41.4,0,0,0-7.11-2.22,37.55,37.55,0,0,0-8-.85q-10.83,0-15.85,4a13.44,13.44,0,0,0-5,11.08,12.29,12.29,0,0,0,1.43,6.26,11.79,11.79,0,0,0,4.5,4.24,34.06,34.06,0,0,0,7.63,3.07c3,.87,6.65,1.78,10.83,2.74a113.65,113.65,0,0,1,13,3.58,37.85,37.85,0,0,1,9.91,5,20,20,0,0,1,6.26,7.3,23.4,23.4,0,0,1,2.15,10.57,24.18,24.18,0,0,1-2.61,11.54,23.14,23.14,0,0,1-7.1,8.09,30.85,30.85,0,0,1-10.63,4.69,56,56,0,0,1-13.31,1.5,61.61,61.61,0,0,1-20.28-3.32,56.85,56.85,0,0,1-17.42-9.72l5.61-9.92a31.06,31.06,0,0,0,5.42,4.44,44.32,44.32,0,0,0,7.56,4,56.7,56.7,0,0,0,9.13,2.87,46.18,46.18,0,0,0,10.24,1.11q9.92,0,15.39-3.53c3.66-2.34,5.48-5.87,5.48-10.56a11.78,11.78,0,0,0-1.76-6.59,15,15,0,0,0-5.15-4.63,40,40,0,0,0-8.41-3.45q-5-1.5-11.42-3.07a115.64,115.64,0,0,1-12.39-3.65A33.69,33.69,0,0,1,391,202a17.62,17.62,0,0,1-5.42-6.65,22,22,0,0,1-1.82-9.39,26.5,26.5,0,0,1,2.47-11.74,24.74,24.74,0,0,1,6.92-8.61,30,30,0,0,1,10.56-5.28A47.82,47.82,0,0,1,417,158.53a46.66,46.66,0,0,1,30.39,10.56Z"/><path class="cls-17" d="M547,251.79V180.18l-30.78,54.91h-6.65l-30.92-54.91v71.61H466.93V159.18h12.4l33.52,60.13,33.65-60.13h12.26v92.61Z"/><path class="cls-17" d="M609.11,159.18H619l37.83,92.61H644.32l-11-27.13H594.5l-10.83,27.13H571.15Zm21.65,56.35-16.7-42.79-17.21,42.79Z"/><path class="cls-17" d="M669.24,251.79V159.18h39.65a25.17,25.17,0,0,1,11.28,2.54,28.37,28.37,0,0,1,8.87,6.79,32.47,32.47,0,0,1,5.81,9.52,29.07,29.07,0,0,1,2.08,10.76,31.57,31.57,0,0,1-1.37,9.32,28.77,28.77,0,0,1-3.91,8.16,26.41,26.41,0,0,1-6.13,6.26,23.87,23.87,0,0,1-8,3.78l22.43,35.48h-13.3L705.5,218.53H681v33.26ZM681,208.09h28a13.85,13.85,0,0,0,6.59-1.56,15.83,15.83,0,0,0,5-4.24,20.45,20.45,0,0,0,3.26-6.2,23,23,0,0,0,1.17-7.3,19.66,19.66,0,0,0-1.37-7.37,21.62,21.62,0,0,0-3.65-6.13,16.5,16.5,0,0,0-5.35-4.18,14.6,14.6,0,0,0-6.45-1.5H681Z"/><path class="cls-17" d="M820.93,169.61H789v82.18H777.24V169.61h-32V159.18h75.65Z"/><path class="cls-8" d="M407.75,147.33a30.51,30.51,0,0,1-10.9-1.92,26.33,26.33,0,0,1-8.76-5.38,25,25,0,0,1-5.76-8.07,24.3,24.3,0,0,1-2.08-10.14,22.36,22.36,0,0,1,2.54-10.52,24.08,24.08,0,0,1,7.07-8.22,35,35,0,0,1,10.83-5.3,47.16,47.16,0,0,1,13.82-1.92,60.11,60.11,0,0,1,10.53.92,43.72,43.72,0,0,1,9.14,2.61V94.78q0-8-4.54-12.29t-13.44-4.3a35.47,35.47,0,0,0-12.59,2.31A58.14,58.14,0,0,0,391,87.26l-6.3-13.06A59.44,59.44,0,0,1,418.2,63.91q17.35,0,27,8.52t9.6,24.66v25c0,2.15.39,3.69,1.16,4.61a5,5,0,0,0,3.76,1.54v17.51a46.44,46.44,0,0,1-9.07,1.08c-3.89,0-6.88-.88-9-2.62a11.2,11.2,0,0,1-3.92-6.91l-.46-4.45a35.7,35.7,0,0,1-13.06,10.75A37.47,37.47,0,0,1,407.75,147.33Zm5.84-15.06a26.83,26.83,0,0,0,9.91-1.84,18.08,18.08,0,0,0,7.3-4.92q3.38-2.61,3.38-5.84v-9.21a49.5,49.5,0,0,0-8-2.23,43.39,43.39,0,0,0-8.3-.85q-8,0-13.06,3.61t-5.07,9.14a11,11,0,0,0,4,8.68A14.47,14.47,0,0,0,413.59,132.27Z"/><path class="cls-8" d="M468.9,105.54a44,44,0,0,1,2.91-16,39.06,39.06,0,0,1,8.45-13.21,41.15,41.15,0,0,1,13.37-9.06,44.06,44.06,0,0,1,17.67-3.38q13.2,0,22.5,5.68a36.38,36.38,0,0,1,13.91,14.9l-20.13,6.15a18.14,18.14,0,0,0-6.91-6.84,19.34,19.34,0,0,0-9.53-2.38,19.55,19.55,0,0,0-8.29,1.77,20.49,20.49,0,0,0-6.69,4.91,22.78,22.78,0,0,0-4.45,7.61,28.59,28.59,0,0,0-1.61,9.83,27.41,27.41,0,0,0,1.69,9.83,24.54,24.54,0,0,0,4.53,7.68,19.92,19.92,0,0,0,6.68,5,19.35,19.35,0,0,0,8.14,1.76,19.79,19.79,0,0,0,10.22-2.76,15.63,15.63,0,0,0,6.53-6.76L548,126.43a33.77,33.77,0,0,1-13.67,15.06q-9.52,5.83-22.89,5.84A44.26,44.26,0,0,1,493.78,144a40,40,0,0,1-21.89-22.51A42.93,42.93,0,0,1,468.9,105.54Z"/><path class="cls-8" d="M608.85,141.64a92.52,92.52,0,0,1-10.14,3.69,42.53,42.53,0,0,1-12.6,1.84,29.46,29.46,0,0,1-8.06-1.07,17.8,17.8,0,0,1-6.61-3.46,16.7,16.7,0,0,1-4.53-6.15,22.13,22.13,0,0,1-1.69-9.14V81.11h-10.6V65.29h10.6V39.17h20.59V65.29H602.7V81.11H585.81v39.33q0,4.31,2.22,6.07a8.52,8.52,0,0,0,5.46,1.77,18.78,18.78,0,0,0,6.29-1.08c2.05-.71,3.69-1.33,4.92-1.84Z"/><path class="cls-8" d="M619.6,54.07V33.64h20.59V54.07Zm0,91.72V65.29h20.59v80.5Z"/><path class="cls-8" d="M680.44,145.79l-29.65-80.5H672L692.42,129,713,65.29h19.35l-29.65,80.5Z"/><path class="cls-8" d="M777.68,147.33A44.69,44.69,0,0,1,760.17,144a39.39,39.39,0,0,1-21.89-22.2,42.3,42.3,0,0,1-3-15.82,45,45,0,0,1,2.92-16.21,39.54,39.54,0,0,1,8.45-13.36,40.37,40.37,0,0,1,13.44-9.14,44.66,44.66,0,0,1,17.75-3.38,43.53,43.53,0,0,1,17.59,3.38,40.44,40.44,0,0,1,13.21,9.06,38.68,38.68,0,0,1,8.3,13.21,44.1,44.1,0,0,1,2.84,15.67c0,1.33,0,2.61-.08,3.84a16,16,0,0,1-.38,3.08H757.1a23.64,23.64,0,0,0,2.3,8.44,21,21,0,0,0,4.76,6.3,20.61,20.61,0,0,0,6.61,4,21.75,21.75,0,0,0,7.68,1.38,23.81,23.81,0,0,0,11.6-3,15.85,15.85,0,0,0,7.45-7.92l17.67,4.92A35.94,35.94,0,0,1,801,141.41Q791.2,147.34,777.68,147.33Zm20.9-48.55q-.78-9.06-6.69-14.52a21.55,21.55,0,0,0-22.12-4,20.11,20.11,0,0,0-6.37,4.07,21,21,0,0,0-4.54,6.3,22.25,22.25,0,0,0-2.07,8.14Z"/><path class="cls-17" d="M352.65,369.72H42.93a4,4,0,0,1-4-3.5L3.07,83.57a4,4,0,0,1,3.15-4.42L351.84,7.36a4,4,0,0,1,4.81,3.92V365.72A4,4,0,0,1,352.65,369.72Zm-306.2-8h302.2V16.2l-337.18,70Z"/><path class="cls-8" d="M842.36,252.05V40.94h26.76V252.05Z"/><path class="cls-8" d="M901.83,252.05V40.94H975q25.26,0,44.45,8.33a90.71,90.71,0,0,1,32,22.59,94.19,94.19,0,0,1,19.18,33.45A128.57,128.57,0,0,1,1077,146.2q0,24.09-7.13,43.56a93.4,93.4,0,0,1-20.52,33.3,91.8,91.8,0,0,1-32.26,21.41q-18.88,7.59-42.07,7.58ZM1049.9,146.2a105.38,105.38,0,0,0-4.9-32.86,70.63,70.63,0,0,0-14.57-25.72,68.21,68.21,0,0,0-23.64-16.8q-14-6.09-31.81-6.09H928.59V228.27H975q18.12,0,32.26-6.25a64.76,64.76,0,0,0,23.49-17.24,76.19,76.19,0,0,0,14.27-26A104.27,104.27,0,0,0,1049.9,146.2Z"/><path class="cls-17" d="M187.56,150.24A24.25,24.25,0,1,0,163.31,126,24.27,24.27,0,0,0,187.56,150.24Zm0-45.36A21.12,21.12,0,1,1,166.44,126,21.14,21.14,0,0,1,187.56,104.88Z"/><path class="cls-17" d="M212.93,170,238.31,126,212.93,82.05H162.18l-25.37,44L162.18,170ZM187.56,97.7a28.3,28.3,0,1,1-28.3,28.3A28.33,28.33,0,0,1,187.56,97.7Z"/><path class="cls-17" d="M187.56,138.83A12.83,12.83,0,1,0,174.73,126,12.85,12.85,0,0,0,187.56,138.83Z"/><path class="cls-17" d="M187.56,144.09A18.1,18.1,0,1,0,169.47,126,18.11,18.11,0,0,0,187.56,144.09Zm0-33.07a15,15,0,1,1-15,15A15,15,0,0,1,187.56,111Z"/><path class="cls-17" d="M187.56,207.25a15.3,15.3,0,1,0,15.29,15.3A15.32,15.32,0,0,0,187.56,207.25Zm0,28a12.66,12.66,0,1,1,12.66-12.66A12.68,12.68,0,0,1,187.56,235.21Z"/><path class="cls-17" d="M187.56,202.05a20.5,20.5,0,1,0,20.5,20.5A20.52,20.52,0,0,0,187.56,202.05Zm0,38.35a17.86,17.86,0,1,1,17.85-17.85A17.87,17.87,0,0,1,187.56,240.4Z"/><path class="cls-17" d="M187.56,211.7a10.85,10.85,0,1,0,10.85,10.85A10.86,10.86,0,0,0,187.56,211.7Z"/><path class="cls-17" d="M209,185.39h-42.9l-21.45,37.16,21.45,37.15H209l21.45-37.15Zm-21.45,61.08a23.93,23.93,0,1,1,23.92-23.92A23.95,23.95,0,0,1,187.56,246.47Z"/><path class="cls-17" d="M127.49,133.72H76.74L51.37,177.67l25.37,44h50.75l25.38-44ZM102.12,206a28.3,28.3,0,1,1,28.3-28.3A28.33,28.33,0,0,1,102.12,206Z"/><path class="cls-17" d="M102.12,153.42a24.25,24.25,0,1,0,24.24,24.25A24.28,24.28,0,0,0,102.12,153.42Zm0,45.37a21.12,21.12,0,1,1,21.11-21.12A21.14,21.14,0,0,1,102.12,198.79Z"/><path class="cls-17" d="M102.12,164.84A12.83,12.83,0,1,0,115,177.67,12.84,12.84,0,0,0,102.12,164.84Z"/><path class="cls-17" d="M102.12,159.58a18.09,18.09,0,1,0,18.09,18.09A18.11,18.11,0,0,0,102.12,159.58Zm0,33.07a15,15,0,1,1,15-15A15,15,0,0,1,102.12,192.65Z"/><path class="cls-17" d="M298.38,133.72H247.63l-25.38,43.95,25.38,44h50.75l25.37-44ZM273,206a28.3,28.3,0,1,1,28.3-28.3A28.34,28.34,0,0,1,273,206Z"/><path class="cls-17" d="M273,164.84a12.83,12.83,0,1,0,12.83,12.83A12.84,12.84,0,0,0,273,164.84Z"/><path class="cls-17" d="M273,159.58a18.09,18.09,0,1,0,18.09,18.09A18.11,18.11,0,0,0,273,159.58Zm0,33.07a15,15,0,1,1,15-15A15,15,0,0,1,273,192.65Z"/><path class="cls-17" d="M273,153.42a24.25,24.25,0,1,0,24.25,24.25A24.28,24.28,0,0,0,273,153.42Zm0,45.37a21.12,21.12,0,1,1,21.12-21.12A21.15,21.15,0,0,1,273,198.79Z"/><path class="cls-17" d="M258.86,252.21a7.89,7.89,0,1,0,7.88,7.89A7.9,7.9,0,0,0,258.86,252.21Z"/><path class="cls-17" d="M258.86,249A11.12,11.12,0,1,0,270,260.1,11.13,11.13,0,0,0,258.86,249Zm0,20.31a9.2,9.2,0,1,1,9.2-9.19A9.21,9.21,0,0,1,258.86,269.29Z"/><path class="cls-17" d="M243.28,233.1l-15.59,27,15.59,27h31.17l15.58-27-15.58-27Zm15.58,44.38a17.39,17.39,0,1,1,17.38-17.38A17.4,17.4,0,0,1,258.86,277.48Z"/><path class="cls-17" d="M258.86,245.2a14.9,14.9,0,1,0,14.89,14.9A14.91,14.91,0,0,0,258.86,245.2Zm0,27.86a13,13,0,1,1,13-13A13,13,0,0,1,258.86,273.06Z"/><path class="cls-17" d="M258.86,306.14a10.75,10.75,0,1,0,10.74,10.74A10.75,10.75,0,0,0,258.86,306.14Zm0,20.1a9.36,9.36,0,1,1,9.36-9.36A9.36,9.36,0,0,1,258.86,326.24Z"/><path class="cls-17" d="M258.86,308.87a8,8,0,1,0,8,8A8,8,0,0,0,258.86,308.87Zm0,14.65a6.64,6.64,0,1,1,6.64-6.64A6.64,6.64,0,0,1,258.86,323.52Z"/><path class="cls-17" d="M258.86,311.2a5.69,5.69,0,1,0,5.69,5.68A5.69,5.69,0,0,0,258.86,311.2Z"/><path class="cls-17" d="M247.62,297.41l-11.24,19.47,11.24,19.48H270.1l11.25-19.48L270.1,297.41Zm11.24,32a12.54,12.54,0,1,1,12.54-12.54A12.55,12.55,0,0,1,258.86,329.42Z"/></g></g></svg>