<?xml version="1.0" encoding="utf-8"?>
<!-- Generator: Adobe Illustrator 25.3.1, SVG Export Plug-In . SVG Version: 6.00 Build 0)  -->
<svg version="1.1" id="Capa_1" xmlns="http://www.w3.org/2000/svg" xmlns:xlink="http://www.w3.org/1999/xlink" x="0px" y="0px"
	 viewBox="0 0 324 324" style="enable-background:new 0 0 324 324;" xml:space="preserve">
<style type="text/css">
	.st0{fill:#FFFFFF;}
</style>
<g>
	<path class="st0" d="M127.2,288.3c24.3,0,47.2,0,70.2,0c-0.2,20.8-13.3,34.8-32.4,35.6C144.7,325,131,313,127.2,288.3z"/>
	<path class="st0" d="M271.8,235.4c-26-24.5-22.1-54.8-21.9-84.9c0-8.4,0.2-16.9-0.2-25.3c-1.2-34.8-20.9-63.1-49.8-76.3
		c0.8-3.2,1.3-6.4,1.3-10c0-21.6-17.5-39-39-39s-39.1,17.4-39.1,39c0,3.9,0.5,7.4,1.5,11C97.1,63.4,78.1,91.3,77,124.7
		c-0.7,22.1,0.7,44.2-0.7,66.3c-0.5,8.8-5.1,17.9-9.4,26c-9.1,17.2-19.1,34.1-30.7,54.8c86.9,0,167.2,0,251.6,0
		C282.2,258,280.2,243.3,271.8,235.4z M139.3,39c0-12.7,10.3-22.9,22.9-22.9c12.7,0,22.9,10.3,22.9,22.9c0,1.5-0.2,3.2-0.5,4.7
		c-6.4-1.5-13-2.5-20.1-2.5c-8.6-0.2-16.9,1-24.8,3.2C139.5,42.5,139.3,40.7,139.3,39z"/>
</g>
</svg>
