<?xml version="1.0" encoding="utf-8"?>
<!-- Generator: Adobe Illustrator 25.3.1, SVG Export Plug-In . SVG Version: 6.00 Build 0)  -->
<svg version="1.1" id="Capa_1" xmlns="http://www.w3.org/2000/svg" xmlns:xlink="http://www.w3.org/1999/xlink" x="0px" y="0px"
	 viewBox="0 0 1729.5 453.7" style="enable-background:new 0 0 1729.5 453.7;" xml:space="preserve">
<style type="text/css">
	.st0{fill:#FFFFFF;}
	.st1{fill:#EBBB00;}
	.st2{fill:#808385;}
	.st3{fill:#E6B320;}
	.st4{fill:url(#SVGID_1_);}
	.st5{fill:url(#SVGID_2_);}
	.st6{filter:url(#Adobe_OpacityMaskFilter);}
	.st7{filter:url(#Adobe_OpacityMaskFilter_1_);}
	.st8{mask:url(#SVGID_3_);fill:url(#SVGID_4_);}
	.st9{fill:url(#SVGID_5_);}
	.st10{filter:url(#Adobe_OpacityMaskFilter_2_);}
	.st11{filter:url(#Adobe_OpacityMaskFilter_3_);}
	.st12{mask:url(#SVGID_6_);fill:url(#SVGID_7_);}
	.st13{opacity:0.4;fill:url(#SVGID_8_);}
	.st14{filter:url(#Adobe_OpacityMaskFilter_4_);}
	.st15{filter:url(#Adobe_OpacityMaskFilter_5_);}
	.st16{mask:url(#SVGID_9_);fill:url(#SVGID_10_);}
	.st17{opacity:0.74;fill:url(#SVGID_11_);}
	.st18{fill:#808283;}
	.st19{fill:#808284;}
	.st20{fill:url(#SVGID_12_);}
	.st21{fill:url(#SVGID_13_);}
	.st22{filter:url(#Adobe_OpacityMaskFilter_6_);}
	.st23{filter:url(#Adobe_OpacityMaskFilter_7_);}
	.st24{mask:url(#SVGID_14_);fill:url(#SVGID_15_);}
	.st25{fill:url(#SVGID_16_);}
	.st26{filter:url(#Adobe_OpacityMaskFilter_8_);}
	.st27{filter:url(#Adobe_OpacityMaskFilter_9_);}
	.st28{mask:url(#SVGID_17_);fill:url(#SVGID_18_);}
	.st29{opacity:0.4;fill:url(#SVGID_19_);}
	.st30{filter:url(#Adobe_OpacityMaskFilter_10_);}
	.st31{filter:url(#Adobe_OpacityMaskFilter_11_);}
	.st32{mask:url(#SVGID_20_);fill:url(#SVGID_21_);}
	.st33{opacity:0.74;fill:url(#SVGID_22_);}
	.st34{fill:none;stroke:#E6B320;stroke-width:8;stroke-miterlimit:10;}
	.st35{fill:#FFFFFF;stroke:#E6B320;stroke-width:10;stroke-miterlimit:10;}
</style>
<g>
	<polygon class="st0" points="4070,471.6 4035,196.1 4372.2,126 4372.2,471.6 	"/>
	<path class="st1" d="M4368.2,131v336.6h-294.7l-34.1-268.3L4368.2,131 M4376.2,121.1l-345.6,71.8l35.9,282.7h309.7V121.1
		L4376.2,121.1z"/>
</g>
<g>
	<g>
		<polygon class="st1" points="4236.4,191.9 4185.7,191.9 4160.3,235.8 4185.7,279.8 4236.4,279.8 4261.8,235.8 		"/>
	</g>
</g>
<g>
	<g>
		<g>
			<path class="st0" d="M4211.1,250.8c-8.3,0-15-6.7-15-15c0-8.3,6.7-15,15-15c8.3,0,15,6.7,15,15
				C4226,244.1,4219.3,250.8,4211.1,250.8z M4211.1,223c-7.1,0-12.8,5.8-12.8,12.8s5.8,12.8,12.8,12.8s12.8-5.8,12.8-12.8
				S4218.1,223,4211.1,223z"/>
		</g>
		<g>
			<path class="st0" d="M4211.1,257c-11.6,0-21.1-9.5-21.1-21.1c0-11.6,9.5-21.1,21.1-21.1c11.6,0,21.1,9.5,21.1,21.1
				C4232.2,247.5,4222.7,257,4211.1,257z M4211.1,217.8c-10,0-18.1,8.1-18.1,18.1s8.1,18.1,18.1,18.1s18.1-8.1,18.1-18.1
				S4221,217.8,4211.1,217.8z"/>
		</g>
		<g>
			<path class="st0" d="M4211.1,264.1c-15.6,0-28.3-12.7-28.3-28.3s12.7-28.3,28.3-28.3s28.3,12.7,28.3,28.3
				S4226.7,264.1,4211.1,264.1z M4211.1,211.6c-13.4,0-24.2,10.9-24.2,24.2c0,13.4,10.9,24.2,24.2,24.2s24.2-10.9,24.2-24.2
				C4235.3,222.5,4224.4,211.6,4211.1,211.6z"/>
		</g>
	</g>
</g>
<g>
	<g>
		<polygon class="st1" points="4232.5,295.2 4189.6,295.2 4168.2,332.4 4189.6,369.6 4232.5,369.6 4254,332.4 		"/>
	</g>
</g>
<g>
	<g>
		<g>
			<path class="st0" d="M4211.1,345.1c-7,0-12.7-5.7-12.7-12.7c0-7,5.7-12.7,12.7-12.7c7,0,12.7,5.7,12.7,12.7
				C4223.7,339.4,4218,345.1,4211.1,345.1z M4211.1,321.5c-6,0-10.8,4.9-10.8,10.8c0,6,4.9,10.8,10.8,10.8s10.8-4.9,10.8-10.8
				C4221.9,326.4,4217,321.5,4211.1,321.5z"/>
		</g>
		<g>
			<path class="st0" d="M4211.1,350.2c-9.8,0-17.9-8-17.9-17.9c0-9.8,8-17.9,17.9-17.9c9.8,0,17.9,8,17.9,17.9
				C4228.9,342.2,4220.9,350.2,4211.1,350.2z M4211.1,317.1c-8.4,0-15.3,6.9-15.3,15.3s6.9,15.3,15.3,15.3s15.3-6.9,15.3-15.3
				S4219.5,317.1,4211.1,317.1z"/>
		</g>
		<g>
			<path class="st0" d="M4211.1,356.3c-13.2,0-23.9-10.7-23.9-23.9c0-13.2,10.7-23.9,23.9-23.9s23.9,10.7,23.9,23.9
				C4235,345.6,4224.3,356.3,4211.1,356.3z M4211.1,311.9c-11.3,0-20.5,9.2-20.5,20.5s9.2,20.5,20.5,20.5c11.3,0,20.5-9.2,20.5-20.5
				S4222.4,311.9,4211.1,311.9z"/>
		</g>
	</g>
</g>
<g>
	<g>
		<polygon class="st1" points="4151,243.6 4100.2,243.6 4074.9,287.5 4100.2,331.5 4151,331.5 4176.4,287.5 		"/>
	</g>
</g>
<g>
	<g>
		<g>
			<path class="st0" d="M4125.6,302.5c-8.3,0-15-6.7-15-15c0-8.3,6.7-15,15-15c8.3,0,15,6.7,15,15
				C4140.6,295.8,4133.9,302.5,4125.6,302.5z M4125.6,274.7c-7.1,0-12.8,5.8-12.8,12.8c0,7.1,5.8,12.8,12.8,12.8
				c7.1,0,12.8-5.8,12.8-12.8C4138.5,280.4,4132.7,274.7,4125.6,274.7z"/>
		</g>
		<g>
			<path class="st0" d="M4125.6,308.6c-11.6,0-21.1-9.5-21.1-21.1c0-11.6,9.5-21.1,21.1-21.1c11.6,0,21.1,9.5,21.1,21.1
				C4146.7,299.2,4137.3,308.6,4125.6,308.6z M4125.6,269.4c-10,0-18.1,8.1-18.1,18.1c0,10,8.1,18.1,18.1,18.1
				c10,0,18.1-8.1,18.1-18.1C4143.7,277.5,4135.6,269.4,4125.6,269.4z"/>
		</g>
		<g>
			<path class="st0" d="M4125.6,315.8c-15.6,0-28.3-12.7-28.3-28.3c0-15.6,12.7-28.3,28.3-28.3c15.6,0,28.3,12.7,28.3,28.3
				C4153.9,303.1,4141.2,315.8,4125.6,315.8z M4125.6,263.3c-13.4,0-24.2,10.9-24.2,24.2c0,13.4,10.9,24.2,24.2,24.2
				c13.4,0,24.2-10.9,24.2-24.2C4149.9,274.1,4139,263.3,4125.6,263.3z"/>
		</g>
	</g>
</g>
<g>
	<g>
		<polygon class="st1" points="4321.9,243.6 4271.1,243.6 4245.8,287.5 4271.1,331.5 4321.9,331.5 4347.3,287.5 		"/>
	</g>
</g>
<g>
	<g>
		<g>
			<path class="st0" d="M4296.5,302.5c-8.3,0-15-6.7-15-15c0-8.3,6.7-15,15-15c8.3,0,15,6.7,15,15
				C4311.5,295.8,4304.8,302.5,4296.5,302.5z M4296.5,274.7c-7.1,0-12.8,5.8-12.8,12.8c0,7.1,5.8,12.8,12.8,12.8s12.8-5.8,12.8-12.8
				C4309.3,280.4,4303.6,274.7,4296.5,274.7z"/>
		</g>
		<g>
			<path class="st0" d="M4296.5,308.6c-11.6,0-21.1-9.5-21.1-21.1c0-11.6,9.5-21.1,21.1-21.1c11.6,0,21.1,9.5,21.1,21.1
				C4317.6,299.2,4308.1,308.6,4296.5,308.6z M4296.5,269.4c-10,0-18.1,8.1-18.1,18.1c0,10,8.1,18.1,18.1,18.1s18.1-8.1,18.1-18.1
				C4314.6,277.5,4306.5,269.4,4296.5,269.4z"/>
		</g>
		<g>
			<path class="st0" d="M4296.5,315.8c-15.6,0-28.3-12.7-28.3-28.3c0-15.6,12.7-28.3,28.3-28.3s28.3,12.7,28.3,28.3
				C4324.8,303.1,4312.1,315.8,4296.5,315.8z M4296.5,263.3c-13.4,0-24.2,10.9-24.2,24.2c0,13.4,10.9,24.2,24.2,24.2
				s24.2-10.9,24.2-24.2C4320.8,274.1,4309.9,263.3,4296.5,263.3z"/>
		</g>
	</g>
</g>
<g>
	<g>
		<polygon class="st1" points="4297.9,343 4266.8,343 4251.2,369.9 4266.8,396.9 4297.9,396.9 4313.5,369.9 		"/>
	</g>
</g>
<g>
	<g>
		<g>
			<path class="st0" d="M4282.4,379.1c-5.1,0-9.2-4.1-9.2-9.2s4.1-9.2,9.2-9.2s9.2,4.1,9.2,9.2S4287.4,379.1,4282.4,379.1z
				 M4282.4,362.1c-4.3,0-7.9,3.5-7.9,7.9s3.5,7.9,7.9,7.9c4.3,0,7.9-3.5,7.9-7.9S4286.7,362.1,4282.4,362.1z"/>
		</g>
		<g>
			<path class="st0" d="M4282.4,382.9c-7.2,0-13-5.8-13-13c0-7.2,5.8-13,13-13s13,5.8,13,13C4295.3,377.1,4289.5,382.9,4282.4,382.9
				z M4282.4,358.8c-6.1,0-11.1,5-11.1,11.1s5,11.1,11.1,11.1s11.1-5,11.1-11.1S4288.5,358.8,4282.4,358.8z"/>
		</g>
		<g>
			<path class="st0" d="M4282.4,387.3c-9.6,0-17.4-7.8-17.4-17.4c0-9.6,7.8-17.4,17.4-17.4c9.6,0,17.4,7.8,17.4,17.4
				C4299.7,379.5,4291.9,387.3,4282.4,387.3z M4282.4,355.1c-8.2,0-14.9,6.7-14.9,14.9c0,8.2,6.7,14.9,14.9,14.9
				c8.2,0,14.9-6.7,14.9-14.9C4297.3,361.7,4290.6,355.1,4282.4,355.1z"/>
		</g>
	</g>
</g>
<g>
	<g>
		<polygon class="st1" points="4293.6,407.3 4271.1,407.3 4259.9,426.7 4271.1,446.2 4293.6,446.2 4304.8,426.7 		"/>
	</g>
</g>
<g>
	<g>
		<g>
			<path class="st0" d="M4282.4,433.4c-3.7,0-6.6-3-6.6-6.6c0-3.7,3-6.6,6.6-6.6s6.6,3,6.6,6.6C4289,430.4,4286,433.4,4282.4,433.4z
				 M4282.4,421c-3.1,0-5.7,2.6-5.7,5.7c0,3.1,2.6,5.7,5.7,5.7s5.7-2.6,5.7-5.7C4288,423.6,4285.5,421,4282.4,421z"/>
		</g>
		<g>
			<path class="st0" d="M4282.4,436.1c-5.2,0-9.4-4.2-9.4-9.4c0-5.2,4.2-9.4,9.4-9.4s9.4,4.2,9.4,9.4
				C4291.7,431.9,4287.5,436.1,4282.4,436.1z M4282.4,418.7c-4.4,0-8,3.6-8,8c0,4.4,3.6,8,8,8s8-3.6,8-8
				C4290.4,422.3,4286.8,418.7,4282.4,418.7z"/>
		</g>
		<g>
			<path class="st0" d="M4282.4,439.3c-6.9,0-12.5-5.6-12.5-12.5c0-6.9,5.6-12.5,12.5-12.5s12.5,5.6,12.5,12.5
				C4294.9,433.6,4289.3,439.3,4282.4,439.3z M4282.4,416c-5.9,0-10.7,4.8-10.7,10.7c0,5.9,4.8,10.7,10.7,10.7s10.7-4.8,10.7-10.7
				C4293.1,420.8,4288.3,416,4282.4,416z"/>
		</g>
	</g>
</g>
<g>
	<g>
		<g>
			<path class="st2" d="M4196.4,403.5c2.4,0,4.4,2,4.4,4.4v32.7c0,2.4-2,4.4-4.4,4.4h-96.9c-2.4,0-4.4-2-4.4-4.4v-32.7
				c0-2.4,2-4.4,4.4-4.4H4196.4 M4196.4,401.3h-96.9c-3.6,0-6.5,2.9-6.5,6.5v32.7c0,3.6,2.9,6.5,6.5,6.5h96.9c3.6,0,6.5-2.9,6.5-6.5
				v-32.7C4203,404.3,4200,401.3,4196.4,401.3L4196.4,401.3z"/>
		</g>
	</g>
	<g>
		<g>
			<path class="st2" d="M4123.5,429.3c0,0.9-0.2,1.7-0.5,2.4c-0.4,0.7-0.9,1.3-1.5,1.7c-0.6,0.5-1.4,0.8-2.2,1.1
				c-0.8,0.2-1.7,0.4-2.7,0.4h-10.4v-21.4h11.5c0.7,0,1.4,0.2,2,0.5c0.6,0.3,1.1,0.7,1.5,1.3c0.4,0.5,0.7,1.1,1,1.8s0.3,1.3,0.3,2
				c0,1-0.3,2-0.8,2.9c-0.5,0.9-1.3,1.6-2.3,2c1.2,0.4,2.2,1,2.9,1.9C4123.2,426.8,4123.5,427.9,4123.5,429.3z M4110.5,417v5.4h5.6
				c0.7,0,1.3-0.2,1.8-0.7c0.5-0.5,0.7-1.1,0.7-2c0-0.8-0.2-1.5-0.7-2c-0.5-0.5-1-0.7-1.7-0.7H4110.5z M4119.4,428.5
				c0-0.4-0.1-0.7-0.2-1.1c-0.1-0.4-0.3-0.7-0.5-0.9c-0.2-0.3-0.5-0.5-0.8-0.6c-0.3-0.2-0.6-0.2-1-0.2h-6.4v5.6h6.2
				c0.4,0,0.7-0.1,1.1-0.2c0.3-0.1,0.6-0.3,0.9-0.6c0.2-0.3,0.4-0.5,0.6-0.9C4119.3,429.3,4119.4,428.9,4119.4,428.5z"/>
			<path class="st2" d="M4132.5,413.4h3.7l8.1,21.4h-4.3l-2-5.3h-7.5l-2,5.3h-4.3L4132.5,413.4z M4137.2,426.6l-3-8.4l-3.1,8.4
				H4137.2z"/>
			<path class="st2" d="M4159.1,419c-0.1-0.1-0.4-0.3-0.8-0.6c-0.4-0.2-0.8-0.5-1.4-0.7c-0.5-0.2-1.1-0.4-1.7-0.6
				c-0.6-0.2-1.3-0.2-1.9-0.2c-1.1,0-2,0.2-2.6,0.6c-0.6,0.4-0.8,1-0.8,1.8c0,0.4,0.1,0.8,0.3,1.1c0.2,0.3,0.5,0.5,0.9,0.8
				c0.4,0.2,0.9,0.4,1.5,0.6c0.6,0.2,1.3,0.4,2.1,0.6c1,0.3,2,0.6,2.9,0.9c0.9,0.3,1.6,0.7,2.2,1.2c0.6,0.5,1.1,1.1,1.4,1.7
				s0.5,1.5,0.5,2.5c0,1.1-0.2,2.1-0.6,2.9c-0.4,0.8-1,1.5-1.8,2s-1.6,0.9-2.5,1.1c-1,0.2-2,0.3-3,0.3c-1.6,0-3.2-0.2-4.8-0.7
				c-1.6-0.5-3-1.2-4.2-2.1l1.8-3.6c0.2,0.2,0.5,0.4,1,0.7c0.5,0.3,1,0.6,1.7,0.9c0.6,0.3,1.4,0.5,2.1,0.7s1.6,0.3,2.4,0.3
				c2.3,0,3.4-0.7,3.4-2.2c0-0.5-0.1-0.9-0.4-1.2c-0.3-0.3-0.6-0.6-1.1-0.8c-0.5-0.2-1.1-0.5-1.8-0.7c-0.7-0.2-1.4-0.4-2.3-0.7
				c-1-0.3-1.9-0.6-2.7-0.9s-1.4-0.7-1.9-1.2c-0.5-0.5-0.9-1-1.1-1.6c-0.3-0.6-0.4-1.3-0.4-2.1c0-1.1,0.2-2.1,0.6-2.9
				c0.4-0.8,1-1.5,1.7-2.1c0.7-0.6,1.5-1,2.5-1.3c0.9-0.3,2-0.4,3-0.4c1.5,0,2.9,0.2,4.2,0.7c1.3,0.5,2.4,1,3.3,1.7L4159.1,419z"/>
			<path class="st2" d="M4164.8,434.9v-21.4h4.2v21.4H4164.8z"/>
			<path class="st2" d="M4172.1,424c0-1.3,0.2-2.6,0.7-3.9c0.5-1.3,1.2-2.4,2.1-3.4c0.9-1,2-1.8,3.3-2.4c1.3-0.6,2.8-0.9,4.5-0.9
				c2,0,3.7,0.4,5.1,1.3c1.4,0.9,2.5,2,3.2,3.4l-3.2,2.2c-0.3-0.6-0.6-1.1-1-1.5c-0.4-0.4-0.8-0.7-1.3-1c-0.5-0.2-0.9-0.4-1.4-0.5
				c-0.5-0.1-1-0.2-1.5-0.2c-1,0-2,0.2-2.7,0.6c-0.8,0.4-1.4,1-1.9,1.6c-0.5,0.7-0.9,1.4-1.2,2.3c-0.3,0.9-0.4,1.7-0.4,2.5
				c0,0.9,0.2,1.9,0.5,2.7c0.3,0.9,0.7,1.6,1.3,2.3c0.6,0.7,1.2,1.2,2,1.6c0.8,0.4,1.6,0.6,2.6,0.6c0.5,0,1-0.1,1.5-0.2
				c0.5-0.1,1-0.3,1.5-0.6c0.5-0.3,0.9-0.6,1.3-1c0.4-0.4,0.7-0.9,1-1.5l3.4,2c-0.3,0.8-0.8,1.5-1.5,2.1s-1.3,1.1-2.1,1.6
				c-0.8,0.4-1.6,0.7-2.5,1c-0.9,0.2-1.8,0.3-2.7,0.3c-1.5,0-2.9-0.3-4.2-1s-2.4-1.5-3.3-2.5c-0.9-1-1.6-2.2-2.1-3.5
				C4172.4,426.7,4172.1,425.4,4172.1,424z"/>
		</g>
	</g>
</g>
<g>
	<g>
		<path class="st2" d="M2840.1,1641.1v-52h34.9v8.9h-24.8v13.4h20.7v8.2h-20.7v21.5H2840.1z"/>
		<path class="st2" d="M2882.1,1641.1v-52h23c2.4,0,4.6,0.5,6.6,1.5s3.8,2.3,5.2,4c1.5,1.6,2.6,3.5,3.4,5.6s1.2,4.2,1.2,6.3
			c0,3.4-0.8,6.4-2.5,9.2c-1.7,2.8-4,4.7-6.8,6l11.9,19.6h-11.4l-10.6-17.4h-10v17.4H2882.1z M2892.2,1614.8h12.7
			c0.9,0,1.8-0.2,2.6-0.7c0.8-0.4,1.5-1,2.1-1.8c0.6-0.8,1.1-1.6,1.4-2.7c0.3-1,0.5-2.1,0.5-3.3c0-1.2-0.2-2.3-0.6-3.4
			c-0.4-1-0.9-1.9-1.6-2.7c-0.7-0.8-1.4-1.3-2.3-1.8c-0.9-0.4-1.7-0.6-2.6-0.6h-12.2V1614.8z"/>
		<path class="st2" d="M2966.9,1632.2v8.9h-36.1v-52h35.4v8.9h-25.3v12.5h21.9v8.2h-21.9v13.5H2966.9z"/>
		<path class="st2" d="M3010.9,1632.2v8.9h-36.1v-52h35.4v8.9h-25.3v12.5h21.9v8.2h-21.9v13.5H3010.9z"/>
	</g>
</g>
<g>
	<text transform="matrix(1 0 0 1 3790.0222 848.149)" class="st0" style="font-family:'Raleway-Bold'; font-size:50.5494px;">PRO</text>
</g>
<g>
	<text transform="matrix(1 0 0 1 3607.5618 1039.9747)" class="st0" style="font-family:'Raleway-Bold'; font-size:164.9391px;">active</text>
</g>
<g>
	<polygon class="st1" points="3927.2,486.1 3617.4,486.1 3581.5,203.4 3927.2,131.6 	"/>
	<g>
		<g>
			<g>
				<g>
					<polygon class="st0" points="3787.4,202.4 3736.7,202.4 3711.3,246.3 3736.7,290.3 3787.4,290.3 3812.8,246.3 					"/>
				</g>
				<g>
					<g>
						<g>
							<path class="st1" d="M3762.1,261.3c-8.3,0-15-6.7-15-15c0-8.3,6.7-15,15-15c8.3,0,15,6.7,15,15
								C3777,254.6,3770.3,261.3,3762.1,261.3z M3762.1,233.5c-7.1,0-12.8,5.8-12.8,12.8s5.8,12.8,12.8,12.8
								c7.1,0,12.8-5.8,12.8-12.8S3769.1,233.5,3762.1,233.5z"/>
						</g>
						<g>
							<path class="st1" d="M3762.1,267.5c-11.6,0-21.1-9.5-21.1-21.1c0-11.6,9.5-21.1,21.1-21.1c11.6,0,21.1,9.5,21.1,21.1
								C3783.2,258,3773.7,267.5,3762.1,267.5z M3762.1,228.3c-10,0-18.1,8.1-18.1,18.1c0,10,8.1,18.1,18.1,18.1
								c10,0,18.1-8.1,18.1-18.1C3780.2,236.4,3772,228.3,3762.1,228.3z"/>
						</g>
						<g>
							<path class="st1" d="M3762.1,274.6c-15.6,0-28.3-12.7-28.3-28.3s12.7-28.3,28.3-28.3c15.6,0,28.3,12.7,28.3,28.3
								S3777.7,274.6,3762.1,274.6z M3762.1,222.1c-13.4,0-24.2,10.9-24.2,24.2c0,13.4,10.9,24.2,24.2,24.2
								c13.4,0,24.2-10.9,24.2-24.2C3786.3,233,3775.4,222.1,3762.1,222.1z"/>
						</g>
					</g>
				</g>
			</g>
			<g>
				<g>
					<polygon class="st0" points="3783.5,305.7 3740.6,305.7 3719.2,342.9 3740.6,380.1 3783.5,380.1 3805,342.9 					"/>
				</g>
				<g>
					<g>
						<g>
							<path class="st1" d="M3762.1,355.6c-7,0-12.7-5.7-12.7-12.7c0-7,5.7-12.7,12.7-12.7c7,0,12.7,5.7,12.7,12.7
								C3774.7,349.9,3769,355.6,3762.1,355.6z M3762.1,332c-6,0-10.8,4.9-10.8,10.8c0,6,4.9,10.8,10.8,10.8c6,0,10.8-4.9,10.8-10.8
								C3772.9,336.9,3768,332,3762.1,332z"/>
						</g>
						<g>
							<path class="st1" d="M3762.1,360.7c-9.8,0-17.9-8-17.9-17.9c0-9.8,8-17.9,17.9-17.9s17.9,8,17.9,17.9
								C3779.9,352.7,3771.9,360.7,3762.1,360.7z M3762.1,327.6c-8.4,0-15.3,6.9-15.3,15.3s6.9,15.3,15.3,15.3
								c8.4,0,15.3-6.9,15.3-15.3S3770.5,327.6,3762.1,327.6z"/>
						</g>
						<g>
							<path class="st1" d="M3762.1,366.8c-13.2,0-23.9-10.7-23.9-23.9c0-13.2,10.7-23.9,23.9-23.9c13.2,0,23.9,10.7,23.9,23.9
								C3786,356.1,3775.3,366.8,3762.1,366.8z M3762.1,322.4c-11.3,0-20.5,9.2-20.5,20.5s9.2,20.5,20.5,20.5
								c11.3,0,20.5-9.2,20.5-20.5S3773.4,322.4,3762.1,322.4z"/>
						</g>
					</g>
				</g>
			</g>
		</g>
		<g>
			<g>
				<g>
					<polygon class="st0" points="3702,254.1 3651.2,254.1 3625.9,298 3651.2,342 3702,342 3727.4,298 					"/>
				</g>
				<g>
					<g>
						<g>
							<path class="st1" d="M3676.6,313c-8.3,0-15-6.7-15-15c0-8.3,6.7-15,15-15s15,6.7,15,15C3691.6,306.3,3684.9,313,3676.6,313z
								 M3676.6,285.2c-7.1,0-12.8,5.8-12.8,12.8c0,7.1,5.8,12.8,12.8,12.8c7.1,0,12.8-5.8,12.8-12.8
								C3689.5,290.9,3683.7,285.2,3676.6,285.2z"/>
						</g>
						<g>
							<path class="st1" d="M3676.6,319.1c-11.6,0-21.1-9.5-21.1-21.1c0-11.6,9.5-21.1,21.1-21.1c11.6,0,21.1,9.5,21.1,21.1
								C3697.7,309.7,3688.3,319.1,3676.6,319.1z M3676.6,279.9c-10,0-18.1,8.1-18.1,18.1c0,10,8.1,18.1,18.1,18.1
								c10,0,18.1-8.1,18.1-18.1C3694.7,288,3686.6,279.9,3676.6,279.9z"/>
						</g>
						<g>
							<path class="st1" d="M3676.6,326.3c-15.6,0-28.3-12.7-28.3-28.3c0-15.6,12.7-28.3,28.3-28.3c15.6,0,28.3,12.7,28.3,28.3
								C3704.9,313.6,3692.2,326.3,3676.6,326.3z M3676.6,273.8c-13.4,0-24.2,10.9-24.2,24.2c0,13.4,10.9,24.2,24.2,24.2
								s24.2-10.9,24.2-24.2C3700.9,284.6,3690,273.8,3676.6,273.8z"/>
						</g>
					</g>
				</g>
			</g>
			<g>
				<g>
					<polygon class="st0" points="3872.9,254.1 3822.1,254.1 3796.8,298 3822.1,342 3872.9,342 3898.3,298 					"/>
				</g>
				<g>
					<g>
						<g>
							<path class="st1" d="M3847.5,313c-8.3,0-15-6.7-15-15c0-8.3,6.7-15,15-15c8.3,0,15,6.7,15,15
								C3862.5,306.3,3855.8,313,3847.5,313z M3847.5,285.2c-7.1,0-12.8,5.8-12.8,12.8c0,7.1,5.8,12.8,12.8,12.8
								c7.1,0,12.8-5.8,12.8-12.8C3860.3,290.9,3854.6,285.2,3847.5,285.2z"/>
						</g>
						<g>
							<path class="st1" d="M3847.5,319.1c-11.6,0-21.1-9.5-21.1-21.1c0-11.6,9.5-21.1,21.1-21.1c11.6,0,21.1,9.5,21.1,21.1
								C3868.6,309.7,3859.1,319.1,3847.5,319.1z M3847.5,279.9c-10,0-18.1,8.1-18.1,18.1c0,10,8.1,18.1,18.1,18.1
								c10,0,18.1-8.1,18.1-18.1C3865.6,288,3857.5,279.9,3847.5,279.9z"/>
						</g>
						<g>
							<path class="st1" d="M3847.5,326.3c-15.6,0-28.3-12.7-28.3-28.3c0-15.6,12.7-28.3,28.3-28.3c15.6,0,28.3,12.7,28.3,28.3
								C3875.8,313.6,3863.1,326.3,3847.5,326.3z M3847.5,273.8c-13.4,0-24.2,10.9-24.2,24.2c0,13.4,10.9,24.2,24.2,24.2
								c13.4,0,24.2-10.9,24.2-24.2C3871.8,284.6,3860.9,273.8,3847.5,273.8z"/>
						</g>
					</g>
				</g>
			</g>
		</g>
	</g>
	<g>
		<g>
			<polygon class="st0" points="3848.9,353.5 3817.8,353.5 3802.2,380.4 3817.8,407.4 3848.9,407.4 3864.5,380.4 			"/>
		</g>
		<g>
			<g>
				<g>
					<path class="st1" d="M3833.4,389.6c-5.1,0-9.2-4.1-9.2-9.2s4.1-9.2,9.2-9.2c5.1,0,9.2,4.1,9.2,9.2S3838.4,389.6,3833.4,389.6z
						 M3833.4,372.6c-4.3,0-7.9,3.5-7.9,7.9s3.5,7.9,7.9,7.9c4.3,0,7.9-3.5,7.9-7.9S3837.7,372.6,3833.4,372.6z"/>
				</g>
				<g>
					<path class="st1" d="M3833.4,393.4c-7.2,0-13-5.8-13-13c0-7.2,5.8-13,13-13s13,5.8,13,13
						C3846.3,387.6,3840.5,393.4,3833.4,393.4z M3833.4,369.3c-6.1,0-11.1,5-11.1,11.1s5,11.1,11.1,11.1c6.1,0,11.1-5,11.1-11.1
						S3839.5,369.3,3833.4,369.3z"/>
				</g>
				<g>
					<path class="st1" d="M3833.4,397.8c-9.6,0-17.4-7.8-17.4-17.4c0-9.6,7.8-17.4,17.4-17.4c9.6,0,17.4,7.8,17.4,17.4
						C3850.7,390,3842.9,397.8,3833.4,397.8z M3833.4,365.6c-8.2,0-14.9,6.7-14.9,14.9c0,8.2,6.7,14.9,14.9,14.9s14.9-6.7,14.9-14.9
						C3848.3,372.2,3841.6,365.6,3833.4,365.6z"/>
				</g>
			</g>
		</g>
	</g>
	<g>
		<g>
			<polygon class="st0" points="3844.6,417.8 3822.1,417.8 3810.9,437.2 3822.1,456.7 3844.6,456.7 3855.8,437.2 			"/>
		</g>
		<g>
			<g>
				<g>
					<path class="st1" d="M3833.4,443.9c-3.7,0-6.6-3-6.6-6.6c0-3.7,3-6.6,6.6-6.6s6.6,3,6.6,6.6
						C3840,440.9,3837,443.9,3833.4,443.9z M3833.4,431.5c-3.1,0-5.7,2.6-5.7,5.7c0,3.1,2.6,5.7,5.7,5.7c3.1,0,5.7-2.6,5.7-5.7
						C3839,434.1,3836.5,431.5,3833.4,431.5z"/>
				</g>
				<g>
					<path class="st1" d="M3833.4,446.6c-5.2,0-9.4-4.2-9.4-9.4c0-5.2,4.2-9.4,9.4-9.4c5.2,0,9.4,4.2,9.4,9.4
						C3842.7,442.4,3838.5,446.6,3833.4,446.6z M3833.4,429.2c-4.4,0-8,3.6-8,8c0,4.4,3.6,8,8,8c4.4,0,8-3.6,8-8
						C3841.4,432.8,3837.8,429.2,3833.4,429.2z"/>
				</g>
				<g>
					<path class="st1" d="M3833.4,449.8c-6.9,0-12.5-5.6-12.5-12.5c0-6.9,5.6-12.5,12.5-12.5s12.5,5.6,12.5,12.5
						C3845.9,444.1,3840.3,449.8,3833.4,449.8z M3833.4,426.5c-5.9,0-10.7,4.8-10.7,10.7c0,5.9,4.8,10.7,10.7,10.7
						s10.7-4.8,10.7-10.7C3844.1,431.3,3839.3,426.5,3833.4,426.5z"/>
				</g>
			</g>
		</g>
	</g>
	<g>
		<path class="st0" d="M3661.4,454.6v-21.9h9.3c1,0,1.9,0.2,2.8,0.6s1.6,1,2.2,1.7c0.6,0.7,1.1,1.5,1.4,2.3c0.3,0.9,0.5,1.8,0.5,2.6
			c0,0.9-0.2,1.8-0.5,2.7c-0.3,0.9-0.8,1.6-1.4,2.3c-0.6,0.7-1.3,1.2-2.2,1.6c-0.8,0.4-1.8,0.6-2.8,0.6h-5.2v7.3H3661.4z
			 M3665.7,443.6h4.9c0.8,0,1.4-0.3,2-1s0.8-1.5,0.8-2.6c0-0.6-0.1-1.1-0.2-1.5s-0.4-0.8-0.6-1.1s-0.6-0.5-0.9-0.7
			c-0.4-0.2-0.7-0.2-1.1-0.2h-4.7V443.6z"/>
		<path class="st0" d="M3680.6,454.6v-21.9h9.7c1,0,1.9,0.2,2.8,0.6s1.6,1,2.2,1.7c0.6,0.7,1.1,1.5,1.4,2.3c0.3,0.9,0.5,1.8,0.5,2.6
			c0,1.4-0.4,2.7-1.1,3.9c-0.7,1.2-1.7,2-2.9,2.5l5,8.2h-4.8l-4.5-7.3h-4.2v7.3H3680.6z M3684.9,443.6h5.3c0.4,0,0.8-0.1,1.1-0.3
			c0.3-0.2,0.6-0.4,0.9-0.8c0.2-0.3,0.4-0.7,0.6-1.1c0.1-0.4,0.2-0.9,0.2-1.4c0-0.5-0.1-1-0.2-1.4c-0.2-0.4-0.4-0.8-0.7-1.1
			s-0.6-0.6-1-0.7c-0.4-0.2-0.7-0.3-1.1-0.3h-5.1V443.6z"/>
		<path class="st0" d="M3710.4,454.8c-1.6,0-3.1-0.3-4.4-0.9s-2.4-1.5-3.4-2.5c-0.9-1-1.7-2.2-2.2-3.6c-0.5-1.3-0.8-2.7-0.8-4.1
			c0-1.5,0.3-2.9,0.8-4.2c0.5-1.3,1.3-2.5,2.2-3.5s2.1-1.8,3.4-2.4s2.7-0.9,4.3-0.9c1.6,0,3,0.3,4.3,1s2.4,1.5,3.3,2.5
			s1.6,2.2,2.2,3.6c0.5,1.3,0.8,2.7,0.8,4.1c0,1.5-0.3,2.8-0.8,4.2c-0.5,1.3-1.3,2.5-2.2,3.5s-2.1,1.8-3.4,2.4
			C3713.4,454.5,3712,454.8,3710.4,454.8z M3704.1,443.7c0,0.9,0.1,1.9,0.4,2.7c0.3,0.9,0.7,1.7,1.2,2.3s1.2,1.2,2,1.6
			c0.8,0.4,1.7,0.6,2.7,0.6c1,0,1.9-0.2,2.7-0.6c0.8-0.4,1.5-1,2-1.7c0.5-0.7,1-1.5,1.2-2.4c0.3-0.9,0.4-1.8,0.4-2.7
			c0-0.9-0.1-1.9-0.4-2.7c-0.3-0.9-0.7-1.7-1.3-2.3c-0.5-0.7-1.2-1.2-2-1.6s-1.7-0.6-2.7-0.6c-1,0-1.9,0.2-2.7,0.6s-1.5,1-2,1.7
			c-0.5,0.7-0.9,1.5-1.2,2.3C3704.2,441.9,3704.1,442.8,3704.1,443.7z"/>
	</g>
	<g>
		<path class="st0" d="M3738.7,423.4c2.4,0,4.3,1.9,4.3,4.3v31.9c0,2.4-1.9,4.3-4.3,4.3h-94.8c-2.4,0-4.3-1.9-4.3-4.3v-31.9
			c0-2.4,1.9-4.3,4.3-4.3H3738.7 M3738.7,421.3h-94.8c-3.5,0-6.4,2.9-6.4,6.4v31.9c0,3.5,2.9,6.4,6.4,6.4h94.8
			c3.5,0,6.4-2.9,6.4-6.4v-31.9C3745,424.2,3742.2,421.3,3738.7,421.3L3738.7,421.3z"/>
	</g>
</g>
<g>
	<g>
		<g>
			<path class="st0" d="M2644.2,1185c-1.7,0-3.2-0.4-4.7-1.3c-1.5-0.9-2.6-2-3.4-3.4v4.3h-1.9v-29.9h2v13.2c1-1.5,2.2-2.7,3.6-3.6
				c1.4-0.9,3-1.4,4.8-1.4c1.5,0,2.9,0.3,4.1,1c1.2,0.6,2.2,1.5,3.1,2.5c0.8,1.1,1.5,2.2,1.9,3.6c0.4,1.3,0.7,2.7,0.7,4
				c0,1.5-0.3,2.9-0.8,4.2c-0.5,1.3-1.2,2.5-2.2,3.5c-0.9,1-2,1.8-3.2,2.4C2647,1184.7,2645.6,1185,2644.2,1185z M2643.8,1183.1
				c1.3,0,2.4-0.3,3.4-0.8c1-0.5,1.9-1.2,2.7-2.1c0.8-0.9,1.3-1.8,1.8-2.9c0.4-1.1,0.6-2.2,0.6-3.4c0-1.2-0.2-2.4-0.6-3.5
				c-0.4-1.1-1-2.1-1.7-3c-0.7-0.9-1.6-1.6-2.6-2.1c-1-0.5-2.1-0.8-3.3-0.8c-0.9,0-1.8,0.2-2.5,0.5c-0.8,0.3-1.5,0.7-2.2,1.2
				c-0.7,0.5-1.3,1.1-1.8,1.8c-0.5,0.7-1,1.4-1.3,2.1v7.1c0.1,0.8,0.4,1.5,0.9,2.2c0.5,0.7,1.1,1.3,1.9,1.8c0.7,0.5,1.5,0.9,2.4,1.2
				C2642.2,1183,2643,1183.1,2643.8,1183.1z"/>
			<path class="st0" d="M2660,1191.8c0.1,0,0.3,0,0.6,0c0.3,0,0.5,0,0.8,0c0.2,0,0.5-0.1,0.7-0.2c0.2-0.1,0.3-0.2,0.5-0.3
				c0.1-0.2,0.3-0.5,0.6-0.9c0.2-0.5,0.6-1.1,0.9-2c0.4-0.9,0.9-2.1,1.6-3.7l-9.5-21.3h2.1l8.5,19.3l7.9-19.3h2l-11.7,28
				c-0.3,0.8-0.8,1.4-1.5,1.8c-0.7,0.4-1.6,0.6-2.7,0.6c-0.1,0-0.2,0-0.3,0c-0.1,0-0.3,0-0.4,0V1191.8z"/>
		</g>
	</g>
	<path class="st3" d="M2772.1,1063.2c0,0,0-149.1,0-203.3s50-54.2,50-54.2v257.4H2772.1z"/>
	<path class="st3" d="M2858,960.7 M2908.1,906 M2908.1,943.6 M2858,1020v43.2h93.5c19.3,0,36.8-3.1,52.4-9.2
		c15.6-6.2,28.9-14.9,40.1-26.1c11.1-11.2,19.6-24.8,25.6-40.6c5.9-15.8,8.9-33.5,8.9-53.1c0-17.6-2.7-34.2-8-49.8
		c-5.3-15.6-13.3-29.2-23.9-40.8c-10.6-11.6-23.9-20.8-39.7-27.5c-15.8-6.8-34.3-10.2-55.3-10.2H2858v126.4c0,0,50,3.9,50-39.8
		c0-23.8,0-42.8,0-42.8h43.5c12.1,0,22.9,2,32.5,6.2c9.5,4.1,17.6,9.9,24.1,17.4c6.5,7.5,11.5,16.4,14.9,26.8
		c3.4,10.4,5.1,21.8,5.1,34.1c0,12.1-1.7,23.3-5.1,33.7c-3.4,10.4-8.3,19.4-14.7,27c-6.4,7.6-14.4,13.6-23.9,17.9
		c-9.5,4.4-20.5,6.5-32.8,6.5h-43.5L2858,1020z"/>
	<g>
		<g>
			<path class="st0" d="M2641.2,1173c-1.7,0-3.2-0.4-4.7-1.3c-1.5-0.9-2.6-2-3.4-3.4v4.3h-1.9v-29.9h2v13.2c1-1.5,2.2-2.7,3.6-3.6
				c1.4-0.9,3-1.4,4.8-1.4c1.5,0,2.9,0.3,4.1,1c1.2,0.6,2.2,1.5,3.1,2.5c0.8,1.1,1.5,2.2,1.9,3.6c0.4,1.3,0.7,2.7,0.7,4
				c0,1.5-0.3,2.9-0.8,4.2c-0.5,1.3-1.2,2.5-2.2,3.5c-0.9,1-2,1.8-3.2,2.4C2644,1172.7,2642.6,1173,2641.2,1173z M2640.8,1171.1
				c1.3,0,2.4-0.3,3.4-0.8c1-0.5,1.9-1.2,2.7-2.1c0.8-0.9,1.3-1.8,1.8-2.9c0.4-1.1,0.6-2.2,0.6-3.4c0-1.2-0.2-2.4-0.6-3.5
				c-0.4-1.1-1-2.1-1.7-3c-0.7-0.9-1.6-1.6-2.6-2.1c-1-0.5-2.1-0.8-3.3-0.8c-0.9,0-1.8,0.2-2.5,0.5c-0.8,0.3-1.5,0.7-2.2,1.2
				c-0.7,0.5-1.3,1.1-1.8,1.8c-0.5,0.7-1,1.4-1.3,2.1v7.1c0.1,0.8,0.4,1.5,0.9,2.2c0.5,0.7,1.1,1.3,1.9,1.8c0.7,0.5,1.5,0.9,2.4,1.2
				C2639.2,1171,2640,1171.1,2640.8,1171.1z"/>
			<path class="st0" d="M2657,1179.8c0.1,0,0.3,0,0.6,0c0.3,0,0.5,0,0.8,0c0.2,0,0.5-0.1,0.7-0.2c0.2-0.1,0.3-0.2,0.5-0.3
				c0.1-0.2,0.3-0.5,0.6-0.9c0.2-0.5,0.6-1.1,0.9-2c0.4-0.9,0.9-2.1,1.6-3.7l-9.5-21.3h2.1l8.5,19.3l7.9-19.3h2l-11.7,28
				c-0.3,0.8-0.8,1.4-1.5,1.8c-0.7,0.4-1.6,0.6-2.7,0.6c-0.1,0-0.2,0-0.3,0c-0.1,0-0.3,0-0.4,0V1179.8z"/>
		</g>
	</g>
	<g>
		<g>
			
				<linearGradient id="SVGID_1_" gradientUnits="userSpaceOnUse" x1="3915.0188" y1="-528.4908" x2="3898.165" y2="-525.2147" gradientTransform="matrix(0.714 -0.7002 0.7002 0.714 329.8068 4245.29)">
				<stop  offset="0" style="stop-color:#EDBD00"/>
				<stop  offset="0.8848" style="stop-color:#CF5500"/>
			</linearGradient>
			<path class="st4" d="M2740.8,1120.5c2.4,5.6,15.8,46.9,15.7,27.1c-0.2-1.6-0.1-3-0.2-4.3c-1.2-8.5-2.7-14.9-5.3-18.6
				C2748.7,1121.3,2745,1120,2740.8,1120.5z"/>
			
				<linearGradient id="SVGID_2_" gradientUnits="userSpaceOnUse" x1="6373.9824" y1="4903.6587" x2="6503.9507" y2="4903.6587" gradientTransform="matrix(-0.714 0.7002 -0.7002 -0.714 10744.542 128.2437)">
				<stop  offset="0" style="stop-color:#CF5500"/>
				<stop  offset="1" style="stop-color:#FBEC27"/>
			</linearGradient>
			<path class="st5" d="M2755.1,1110.4c-3.1-33.6-15.2-36.7-42.9-17.8c-1.7,1.2-5.3,3.8-8.9,6.4c-9.6,7.5-18.3,13.7-24.7,18.7
				c-6.5,5-11.2,8.8-13.8,11.9c-2.6,3.1-4.1,5.5-4.4,7.2c-0.3,1.7-0.2,3,0.2,3.9c1.1,2.2,3.1,3.1,6.7,3.4c3.6,0.2,7.6,0,11.9-0.9
				c4.3-0.8,8-1.7,11-2.7c3.1-1,5.2-1.7,6.4-2.3c16.7-6.3,24.4-9.6,36.7-15.3c6.8-3.4,13.9-3.4,17.6,1.9c2.5,3.7,4,10,5.3,18.6
				c0.2,1.3,0.1,2.6,0.4,4.2C2756.1,1134.8,2756.2,1122,2755.1,1110.4z"/>
			<defs>
				<filter id="Adobe_OpacityMaskFilter" filterUnits="userSpaceOnUse" x="2661.1" y="1082" width="94.2" height="61.2">
					<feFlood  style="flood-color:white;flood-opacity:1" result="back"/>
					<feBlend  in="SourceGraphic" in2="back" mode="normal"/>
				</filter>
			</defs>
			<mask maskUnits="userSpaceOnUse" x="2661.1" y="1082" width="94.2" height="61.2" id="SVGID_3_">
				<g class="st6">
					<defs>
						<filter id="Adobe_OpacityMaskFilter_1_" filterUnits="userSpaceOnUse" x="2661.1" y="1082" width="94.2" height="61.2">
							<feFlood  style="flood-color:white;flood-opacity:1" result="back"/>
							<feBlend  in="SourceGraphic" in2="back" mode="normal"/>
						</filter>
					</defs>
					<mask maskUnits="userSpaceOnUse" x="2661.1" y="1082" width="94.2" height="61.2" id="SVGID_3_">
						<g class="st7">
						</g>
					</mask>
					
						<radialGradient id="SVGID_4_" cx="6438.7397" cy="-557.618" r="50.9921" gradientTransform="matrix(-7.740000e-02 -0.997 0.997 -7.740000e-02 3750.7346 7514)" gradientUnits="userSpaceOnUse">
						<stop  offset="0" style="stop-color:#FFFFFF"/>
						<stop  offset="1" style="stop-color:#000000"/>
					</radialGradient>
					<path class="st8" d="M2754.4,1113.4c0.5,6.5,0.7,13.5,0.9,20.5c-1-4.4-2.2-7.5-3.7-9.7c-3.6-5.3-10.8-6.1-18.8-2.2
						c-12,5.6-19.8,8.9-36.6,15.3c-1.3,0.6-3.4,1.3-6.3,2.3c-2.9,0.9-6.5,1.8-10.9,2.7c-4,0.8-7.9,1.1-11.7,0.8
						c-3.8-0.2-5.1-1.3-5.9-2.8c-0.1-0.3-0.2-0.7-0.3-1.1c-0.1-0.6,0-1.3,0.2-2.1c0.3-1.5,1.7-3.8,4.2-6.8c2.6-3,7.1-6.7,13.6-11.8
						c2.6-2,5.6-4.2,8.9-6.6c4.8-3.5,10.1-7.6,15.9-12c3.6-2.7,7.4-5.4,8.8-6.4c14.9-10.1,24.3-13.3,30.5-10.4
						c5.9,2.8,9.4,11.5,10.9,27.4C2754.3,1111.5,2754.4,1112.4,2754.4,1113.4L2754.4,1113.4z"/>
				</g>
			</mask>
			
				<radialGradient id="SVGID_5_" cx="6438.7397" cy="-557.618" r="50.9921" gradientTransform="matrix(-7.740000e-02 -0.997 0.997 -7.740000e-02 3750.7346 7514)" gradientUnits="userSpaceOnUse">
				<stop  offset="0" style="stop-color:#FFFFFF"/>
				<stop  offset="1" style="stop-color:#FFFFFF"/>
			</radialGradient>
			<path class="st9" d="M2754.4,1113.4c0.5,6.5,0.7,13.5,0.9,20.5c-1-4.4-2.2-7.5-3.7-9.7c-3.6-5.3-10.8-6.1-18.8-2.2
				c-12,5.6-19.8,8.9-36.6,15.3c-1.3,0.6-3.4,1.3-6.3,2.3c-2.9,0.9-6.5,1.8-10.9,2.7c-4,0.8-7.9,1.1-11.7,0.8
				c-3.8-0.2-5.1-1.3-5.9-2.8c-0.1-0.3-0.2-0.7-0.3-1.1c-0.1-0.6,0-1.3,0.2-2.1c0.3-1.5,1.7-3.8,4.2-6.8c2.6-3,7.1-6.7,13.6-11.8
				c2.6-2,5.6-4.2,8.9-6.6c4.8-3.5,10.1-7.6,15.9-12c3.6-2.7,7.4-5.4,8.8-6.4c14.9-10.1,24.3-13.3,30.5-10.4
				c5.9,2.8,9.4,11.5,10.9,27.4C2754.3,1111.5,2754.4,1112.4,2754.4,1113.4L2754.4,1113.4z"/>
			<defs>
				<filter id="Adobe_OpacityMaskFilter_2_" filterUnits="userSpaceOnUse" x="2661.2" y="1082" width="94.2" height="58.5">
					<feFlood  style="flood-color:white;flood-opacity:1" result="back"/>
					<feBlend  in="SourceGraphic" in2="back" mode="normal"/>
				</filter>
			</defs>
			<mask maskUnits="userSpaceOnUse" x="2661.2" y="1082" width="94.2" height="58.5" id="SVGID_6_">
				<g class="st10">
					<defs>
						<filter id="Adobe_OpacityMaskFilter_3_" filterUnits="userSpaceOnUse" x="2661.2" y="1082" width="94.2" height="58.5">
							<feFlood  style="flood-color:white;flood-opacity:1" result="back"/>
							<feBlend  in="SourceGraphic" in2="back" mode="normal"/>
						</filter>
					</defs>
					<mask maskUnits="userSpaceOnUse" x="2661.2" y="1082" width="94.2" height="58.5" id="SVGID_6_">
						<g class="st11">
						</g>
					</mask>
					
						<radialGradient id="SVGID_7_" cx="2117.0127" cy="2371.9263" r="107.3066" gradientTransform="matrix(0.9021 0.4315 -0.4315 0.9021 1774.3003 -1912.5543)" gradientUnits="userSpaceOnUse">
						<stop  offset="0" style="stop-color:#FFFFFF"/>
						<stop  offset="1" style="stop-color:#000000"/>
					</radialGradient>
					<path class="st12" d="M2661.4,1140.3c0,0.1,0.1,0.1,0.1,0.2c3.1-2.3,7.1-4.8,12-7.8c7.4-4.5,17-10.1,27.6-16.7
						c3.8-2.3,7.7-4.5,9.5-5.5c28.4-15.3,40.3-12,44.1,18.7c0.1,1.2,0.3,2.4,0.4,3.6c0.1,0.3,0.2,0.7,0.3,1.1
						c-0.2-8-0.5-16.1-1.2-23.4c-1.5-15.9-4.9-24.6-10.8-27.4c-6.2-3-15.7,0.2-30.6,10.3c-1.4,1-5.2,3.7-8.8,6.4
						c-5.7,4.5-11.1,8.5-15.9,12c-3.3,2.4-6.2,4.7-8.9,6.7c-6.5,5-11.1,8.7-13.6,11.8c-2.5,2.9-3.9,5.2-4.2,6.8
						C2661,1139,2661.2,1139.9,2661.4,1140.3z"/>
				</g>
			</mask>
			
				<radialGradient id="SVGID_8_" cx="2117.0127" cy="2371.9263" r="107.3066" gradientTransform="matrix(0.9021 0.4315 -0.4315 0.9021 1774.3003 -1912.5543)" gradientUnits="userSpaceOnUse">
				<stop  offset="0" style="stop-color:#FFFFFF"/>
				<stop  offset="1" style="stop-color:#FFFFFF"/>
			</radialGradient>
			<path class="st13" d="M2661.4,1140.3c0,0.1,0.1,0.1,0.1,0.2c3.1-2.3,7.1-4.8,12-7.8c7.4-4.5,17-10.1,27.6-16.7
				c3.8-2.3,7.7-4.5,9.5-5.5c28.4-15.3,40.3-12,44.1,18.7c0.1,1.2,0.3,2.4,0.4,3.6c0.1,0.3,0.2,0.7,0.3,1.1
				c-0.2-8-0.5-16.1-1.2-23.4c-1.5-15.9-4.9-24.6-10.8-27.4c-6.2-3-15.7,0.2-30.6,10.3c-1.4,1-5.2,3.7-8.8,6.4
				c-5.7,4.5-11.1,8.5-15.9,12c-3.3,2.4-6.2,4.7-8.9,6.7c-6.5,5-11.1,8.7-13.6,11.8c-2.5,2.9-3.9,5.2-4.2,6.8
				C2661,1139,2661.2,1139.9,2661.4,1140.3z"/>
			<defs>
				<filter id="Adobe_OpacityMaskFilter_4_" filterUnits="userSpaceOnUse" x="2665" y="1119.6" width="90.9" height="24.5">
					<feFlood  style="flood-color:white;flood-opacity:1" result="back"/>
					<feBlend  in="SourceGraphic" in2="back" mode="normal"/>
				</filter>
			</defs>
			<mask maskUnits="userSpaceOnUse" x="2665" y="1119.6" width="90.9" height="24.5" id="SVGID_9_">
				<g class="st14">
					<defs>
						<filter id="Adobe_OpacityMaskFilter_5_" filterUnits="userSpaceOnUse" x="2665" y="1119.6" width="90.9" height="24.5">
							<feFlood  style="flood-color:white;flood-opacity:1" result="back"/>
							<feBlend  in="SourceGraphic" in2="back" mode="normal"/>
						</filter>
					</defs>
					<mask maskUnits="userSpaceOnUse" x="2665" y="1119.6" width="90.9" height="24.5" id="SVGID_9_">
						<g class="st15">
						</g>
					</mask>
					
						<radialGradient id="SVGID_10_" cx="2180.7532" cy="2319.407" r="17.142" gradientTransform="matrix(0.9021 0.4315 -0.4315 0.9021 1774.3003 -1912.5543)" gradientUnits="userSpaceOnUse">
						<stop  offset="0" style="stop-color:#FFFFFF"/>
						<stop  offset="1" style="stop-color:#000000"/>
					</radialGradient>
					<path class="st16" d="M2755.3,1133.9c-1-4.4-2.3-7.5-3.7-9.7c-1.1-1.5-2.4-2.7-4.1-3.5c-3.9-1.9-9.3-1.4-14.7,1.3
						c-12.1,5.6-19.8,8.9-36.6,15.3c-1.3,0.6-3.4,1.3-6.3,2.3c-2.9,0.9-6.5,1.8-10.9,2.7c-4,0.8-7.9,1.1-11.7,0.8
						c-0.9-0.1-1.6-0.2-2.3-0.3c0,0.3,0,0.7,0,1c0.7,0.1,1.4,0.2,2.3,0.3c3.6,0.2,7.6,0,11.9-0.9c4.3-0.8,8-1.7,11-2.7
						c3.1-1,5.2-1.7,6.4-2.3c16.7-6.3,24.4-9.6,36.7-15.3c6.8-3.4,13.9-3.4,17.6,1.9c2.4,3.5,3.9,9.4,5.1,17.4
						C2756,1139,2755.9,1136.4,2755.3,1133.9z"/>
				</g>
			</mask>
			
				<radialGradient id="SVGID_11_" cx="2180.7532" cy="2319.407" r="17.142" gradientTransform="matrix(0.9021 0.4315 -0.4315 0.9021 1774.3003 -1912.5543)" gradientUnits="userSpaceOnUse">
				<stop  offset="0" style="stop-color:#FFFFFF"/>
				<stop  offset="1" style="stop-color:#FFFFFF"/>
			</radialGradient>
			<path class="st17" d="M2755.3,1133.9c-1-4.4-2.3-7.5-3.7-9.7c-1.1-1.5-2.4-2.7-4.1-3.5c-3.9-1.9-9.3-1.4-14.7,1.3
				c-12.1,5.6-19.8,8.9-36.6,15.3c-1.3,0.6-3.4,1.3-6.3,2.3c-2.9,0.9-6.5,1.8-10.9,2.7c-4,0.8-7.9,1.1-11.7,0.8
				c-0.9-0.1-1.6-0.2-2.3-0.3c0,0.3,0,0.7,0,1c0.7,0.1,1.4,0.2,2.3,0.3c3.6,0.2,7.6,0,11.9-0.9c4.3-0.8,8-1.7,11-2.7
				c3.1-1,5.2-1.7,6.4-2.3c16.7-6.3,24.4-9.6,36.7-15.3c6.8-3.4,13.9-3.4,17.6,1.9c2.4,3.5,3.9,9.4,5.1,17.4
				C2756,1139,2755.9,1136.4,2755.3,1133.9z"/>
		</g>
		<g>
			<path class="st18" d="M2736.1,1136l21.1,48.5h-6.3l-6.8-14.8H2727l2.3-4.6h12.6l-9.1-22.3l-18.3,41.7h-6.8l21.7-48.5H2736.1z"/>
			<path class="st18" d="M2768.2,1135.7h20.5h21.7c0.9,0,1.6,0.3,2.3,0.7c0.7,0.4,1.2,0.9,1.5,1.4c0.2,0.3,0.3,0.6,0.5,1.1
				c0.1,0.4,0.2,0.8,0.2,1.2c0,0.4,0.1,0.8,0.1,1.1c0,0.4,0,0.6,0,0.7v11.4h-6.3v-12h-34.2v37.7h34.2v-9.7h6.3v8.6
				c0,0.1,0,0.4,0,0.9c0,0.4,0,0.9-0.1,1.5c-0.1,0.5-0.2,1.1-0.5,1.6c-0.2,0.6-0.6,1-1,1.5c-0.3,0.2-0.6,0.5-1,0.6
				c-0.4,0.2-0.8,0.3-1.2,0.5c-0.4,0.1-0.8,0.2-1.1,0.3c-0.4,0-0.6,0.1-0.7,0.1h-41.1V1135.7z"/>
			<path class="st18" d="M2825.9,1135.7h20.5h21.7c0.9,0,1.6,0.3,2.3,0.7c0.7,0.4,1.2,0.9,1.5,1.4c0.2,0.3,0.3,0.6,0.5,1.1
				c0.1,0.4,0.2,0.8,0.2,1.2c0,0.4,0.1,0.8,0.1,1.1c0,0.4,0,0.6,0,0.7v11.4h-6.3v-12h-34.2v37.7h34.2v-9.7h6.3v8.6
				c0,0.1,0,0.4,0,0.9c0,0.4,0,0.9-0.1,1.5c-0.1,0.5-0.2,1.1-0.5,1.6c-0.2,0.6-0.6,1-1,1.5c-0.3,0.2-0.6,0.5-1,0.6
				c-0.4,0.2-0.8,0.3-1.2,0.5c-0.4,0.1-0.8,0.2-1.1,0.3c-0.4,0-0.6,0.1-0.8,0.1h-41.1V1135.7z"/>
			<g>
				<polygon class="st18" points="2883.6,1136 2921.3,1136 2921.3,1141.2 2889.9,1141.2 2889.9,1180 2921.9,1180 2921.9,1184.5 
					2883.6,1184.5 				"/>
				<rect x="2895" y="1157.7" class="st18" width="22.8" height="5.1"/>
			</g>
			<path class="st18" d="M2940.8,1140.9v19.4h36c0.6,0,1.3,0.1,2.2,0.2c0.9,0.1,1.8,0.4,2.7,1c0.5,0.3,1,0.6,1.3,1
				c0.3,0.4,0.6,0.8,0.7,1.2c0.2,0.4,0.3,0.8,0.3,1.1c0,0.3,0.1,0.5,0.1,0.7v13.1c0,0.3-0.1,0.9-0.2,1.9c-0.2,1-0.7,1.9-1.5,2.7
				c-0.4,0.4-0.9,0.8-1.5,1c-0.5,0.2-1.1,0.4-1.6,0.5c-0.5,0.1-0.9,0.2-1.3,0.2c-0.4,0-0.6,0-0.8,0h-37.7c-0.1,0-0.4,0-0.9,0
				c-0.4,0-0.9-0.1-1.5-0.2c-0.5-0.1-1.1-0.2-1.7-0.5c-0.6-0.2-1.1-0.5-1.6-0.9c-0.4-0.3-0.6-0.7-0.8-1.2c-0.1-0.5-0.3-1-0.4-1.6
				c-0.1-0.6-0.1-1.2-0.1-1.9v-5.1h6.3v6.3h38.8v-14.3h-37.7c-0.3,0-0.9-0.1-1.8-0.3c-0.9-0.2-1.9-0.8-3-1.9c-0.4-0.5-0.7-1-0.9-1.5
				c-0.2-0.5-0.3-1-0.4-1.5c-0.1-0.5-0.2-1.1-0.2-1.6V1142c0-0.1,0-0.4,0-0.8c0-0.4,0.1-0.8,0.3-1.3c0.2-0.5,0.4-1,0.7-1.5
				c0.3-0.5,0.8-0.9,1.4-1.3c1.2-0.8,2.3-1.2,3.2-1.3c0.9-0.1,1.5-0.1,1.8-0.1h36c0.3,0,0.9,0.1,1.7,0.3c0.9,0.2,1.6,0.7,2.4,1.3
				c0.8,0.7,1.2,1.5,1.4,2.4c0.2,0.9,0.2,1.4,0.2,1.7v3.1v2.1h-6.3v-5.7H2940.8z"/>
			<path class="st18" d="M3028.8,1143.2c0-0.6,0.1-1.4,0.3-2.5c0.2-1.1,0.7-2,1.5-2.9c0.4-0.4,0.9-0.8,1.4-1.1
				c0.5-0.3,1-0.5,1.6-0.6c0.5-0.1,1-0.2,1.5-0.3c0.5,0,0.9-0.1,1.1-0.1h35.4c0.1,0,0.4,0,0.8,0c0.4,0,0.8,0.1,1.3,0.2
				c0.5,0.1,1,0.3,1.6,0.6c0.5,0.3,1,0.6,1.5,1c0.4,0.4,0.8,0.9,1,1.5c0.2,0.6,0.4,1.2,0.5,1.7c0.1,0.5,0.2,1,0.2,1.3
				c0,0.4,0,0.5,0,0.5v35.3c0,0.3,0,0.7-0.1,1.1c-0.1,0.5-0.2,1-0.3,1.5c-0.1,0.5-0.3,1-0.6,1.4c-0.2,0.5-0.5,0.8-0.9,1.1
				c-0.9,0.7-1.8,1.1-2.8,1.4c-1,0.2-1.7,0.4-2.2,0.4h-35.4c-0.2,0-0.5,0-1,0c-0.5,0-1-0.1-1.5-0.2c-0.6-0.1-1.1-0.3-1.7-0.5
				c-0.6-0.2-1.1-0.6-1.5-1c-0.4-0.4-0.8-0.9-1-1.5c-0.2-0.6-0.4-1.2-0.5-1.7c-0.1-0.6-0.2-1.1-0.2-1.5c0-0.5,0-0.7,0-0.9V1143.2z
				 M3035.1,1179.1h37.1v-38.2h-37.1V1179.1z"/>
			<rect x="2995.1" y="1157.7" class="st18" width="22.8" height="5.1"/>
		</g>
	</g>
	<path class="st19" d="M1767.6,825v-52h52.4v52H1767.6z M1767.6,1058.6v-205h52.4v205H1767.6z"/>
	<path class="st19" d="M1947.6,1059.8c-13.8,0-26.3-2.7-37.6-8.2c-11.2-5.5-20.9-13-29.1-22.5c-8.2-9.5-14.5-20.5-19-33.1
		c-4.4-12.5-6.7-25.8-6.7-39.9c0-14.9,2.3-28.7,7-41.5c4.7-12.8,11.2-24,19.6-33.6c8.3-9.6,18.4-17.2,30.1-22.7
		c11.7-5.5,24.6-8.2,38.7-8.2c15.9,0,29.9,3.6,41.9,10.8c12,7.2,21.9,16.8,29.7,28.8v-36h45.8v195.2c0,15.1-2.9,28.7-8.6,40.7
		c-5.7,12-13.6,22.2-23.7,30.5c-10,8.3-22,14.7-36,19.2c-14,4.4-29.1,6.7-45.6,6.7c-22.4,0-41.3-3.7-56.5-11.1
		c-15.3-7.4-28.4-17.9-39.3-31.5l28.6-27.8c7.8,9.6,17.7,17.2,29.5,22.7c11.9,5.5,24.5,8.2,37.8,8.2c8.1,0,15.8-1.1,23.3-3.3
		c7.4-2.2,14-5.7,19.8-10.4c5.7-4.7,10.2-10.7,13.5-18c3.3-7.3,4.9-15.9,4.9-25.8V1023c-6.8,11.7-16.3,20.8-28.6,27.2
		C1974.8,1056.6,1961.7,1059.8,1947.6,1059.8z M1965.2,1017.9c5.7,0,11.2-0.9,16.4-2.7c5.2-1.8,10-4.3,14.5-7.4
		c4.4-3.1,8.3-6.8,11.7-11c3.4-4.2,6-8.6,7.8-13.3v-48.9c-4.7-12-12.1-21.6-22.1-28.9c-10-7.3-20.5-11-31.5-11
		c-8.1,0-15.4,1.8-21.9,5.3c-6.5,3.5-12.1,8.2-16.8,14.1c-4.7,5.9-8.3,12.6-10.8,20.1c-2.5,7.6-3.7,15.4-3.7,23.5
		c0,8.3,1.4,16.2,4.3,23.5c2.9,7.3,6.8,13.7,11.9,19.2c5.1,5.5,11,9.8,17.8,12.9C1949.7,1016.3,1957.1,1017.9,1965.2,1017.9z"/>
	<path class="st19" d="M2305.9,1058.6h-52.4v-115c0-16.4-2.9-28.4-8.6-36c-5.7-7.6-13.7-11.3-23.9-11.3c-5.2,0-10.6,1-16,3.1
		c-5.5,2.1-10.6,5-15.5,8.8c-4.8,3.8-9.2,8.3-13.1,13.5c-3.9,5.2-6.8,11-8.6,17.2v119.7h-52.4v-205h47.3v37.9
		c7.6-13,18.5-23.2,32.9-30.5c14.3-7.3,30.5-11,48.5-11c12.8,0,23.2,2.3,31.3,7c8.1,4.7,14.3,10.8,18.8,18.4
		c4.4,7.6,7.5,16.2,9.2,25.8c1.7,9.7,2.5,19.4,2.5,29.3V1058.6z"/>
	<path class="st19" d="M2414.3,1062.5c-21.1,0-37.2-6.8-48.1-20.3c-11-13.6-16.4-33.6-16.4-60.2V853.6h52.4v117
		c0,31.6,11.3,47.3,34,47.3c10.2,0,20-3.1,29.5-9.2c9.5-6.1,17.3-15.5,23.3-28V853.6h52.4v144.7c0,5.5,1,9.4,2.9,11.7
		c2,2.3,5.1,3.7,9.6,3.9v44.6c-5.2,1-9.6,1.7-13.1,2c-3.5,0.3-6.7,0.4-9.6,0.4c-9.4,0-17-2.2-22.9-6.5c-5.9-4.3-9.3-10.2-10.4-17.8
		l-1.2-16.4c-9.1,14.1-20.9,24.6-35.2,31.7C2447.3,1059,2431.5,1062.5,2414.3,1062.5z"/>
	<path class="st19" d="M2670.9,1062.5c-17.2,0-34-2.7-50.5-8.2c-16.4-5.5-30.5-13.3-42.2-23.5l19.6-32.9
		c12.5,8.9,24.7,15.6,36.6,20.1c11.9,4.6,23.7,6.8,35.4,6.8c10.4,0,18.6-2,24.6-5.9c6-3.9,9-9.5,9-16.8c0-7.3-3.5-12.6-10.6-16
		c-7-3.4-18.5-7.3-34.4-11.7c-13.3-3.7-24.6-7.2-34-10.6c-9.4-3.4-17-7.2-22.7-11.5c-5.7-4.3-9.9-9.3-12.5-14.9
		c-2.6-5.6-3.9-12.3-3.9-20.1c0-10.4,2-19.8,6.1-28.2c4-8.3,9.7-15.5,17-21.3c7.3-5.9,15.8-10.4,25.6-13.5
		c9.8-3.1,20.4-4.7,31.9-4.7c15.4,0,29.8,2.2,43.2,6.7c13.4,4.4,25.8,11.6,37,21.5l-21.1,31.7c-10.4-7.8-20.5-13.6-30.3-17.2
		c-9.8-3.7-19.5-5.5-29.1-5.5c-8.9,0-16.3,1.8-22.3,5.5c-6,3.7-9,9.5-9,17.6c0,3.7,0.7,6.7,2.2,9c1.4,2.3,3.7,4.4,6.8,6.3
		c3.1,1.8,7.2,3.6,12.3,5.3c5.1,1.7,11.4,3.5,19,5.3c14.1,3.7,26.1,7.3,36.2,11c10,3.7,18.3,7.8,24.6,12.5
		c6.4,4.7,11.1,10.1,14.1,16.2c3,6.1,4.5,13.5,4.5,22.1c0,20.1-7.4,35.9-22.3,47.5C2716.7,1056.7,2696.5,1062.5,2670.9,1062.5z"/>
	<path class="st3" d="M1505.8,773h208.7v276.8c0,57.3-46.5,103.8-103.8,103.8H1402V876.8C1402,819.5,1448.5,773,1505.8,773z"/>
	<path class="st0" d="M1676.7,859.3c-12.8,0-24.3,1.6-34.5,4.7c-10.2,3.1-18.2,7.4-24.2,12.7c-4.1,3.8-7.7,8-11,12.7
		c-3.3,4.7-6.1,10.4-8.4,17.1c-2.3,6.7-4.2,14.8-5.4,24.2c-1.3,9.4-1.9,20.3-1.9,32.8c0,11.3-0.5,22.9-1.6,35
		c-1.1,12-3.3,23.8-6.6,35.2c-3.3,11.4-8.2,22.5-14.8,33.3c-6.6,10.8-15.2,20.6-25.8,29.3c-12.8,10.6-27.8,18.4-44.8,23.2
		c-17.1,4.9-36.4,7.1-58,6.8v-58.7c10.9,0,22.3-1.2,34-3.8c11.7-2.5,21.7-7.2,29.8-14.1c3.8-3.1,7.3-7,10.6-11.5
		c3.3-4.5,6-10.2,8.2-16.9c2.2-6.7,3.9-14.8,5.2-24.2c1.2-9.4,1.9-20.6,1.9-33.8c0-31.3,3.8-57.4,11.5-78.4
		c7.7-21,19.9-38.8,36.8-53.5c11.9-10.6,26.2-18.5,42.9-23.5c16.7-5,35.4-7.7,56.1-8V859.3z"/>
</g>
<g>
	<g>
		<g>
			<path class="st0" d="M205.7,1547.5c-1.7,0-3.2-0.4-4.7-1.3c-1.5-0.9-2.6-2-3.4-3.4v4.3h-1.9v-29.9h2v13.2c1-1.5,2.2-2.7,3.6-3.6
				c1.4-0.9,3-1.4,4.8-1.4c1.5,0,2.9,0.3,4.1,1c1.2,0.6,2.2,1.5,3.1,2.5c0.8,1.1,1.5,2.2,1.9,3.6c0.4,1.3,0.7,2.7,0.7,4
				c0,1.5-0.3,2.9-0.8,4.2c-0.5,1.3-1.2,2.5-2.2,3.5c-0.9,1-2,1.8-3.2,2.4C208.5,1547.2,207.1,1547.5,205.7,1547.5z M205.3,1545.6
				c1.3,0,2.4-0.3,3.4-0.8c1-0.5,1.9-1.2,2.7-2.1s1.3-1.8,1.8-2.9c0.4-1.1,0.6-2.2,0.6-3.4c0-1.2-0.2-2.4-0.6-3.5
				c-0.4-1.1-1-2.1-1.7-3c-0.7-0.9-1.6-1.6-2.6-2.1c-1-0.5-2.1-0.8-3.3-0.8c-0.9,0-1.8,0.2-2.5,0.5c-0.8,0.3-1.5,0.7-2.2,1.2
				c-0.7,0.5-1.3,1.1-1.8,1.8c-0.5,0.7-1,1.4-1.3,2.1v7.1c0.1,0.8,0.4,1.5,0.9,2.2c0.5,0.7,1.1,1.3,1.9,1.8c0.7,0.5,1.5,0.9,2.4,1.2
				C203.7,1545.5,204.5,1545.6,205.3,1545.6z"/>
			<path class="st0" d="M221.5,1554.3c0.1,0,0.3,0,0.6,0c0.3,0,0.5,0,0.8,0c0.2,0,0.5-0.1,0.7-0.2c0.2-0.1,0.3-0.2,0.5-0.3
				c0.1-0.2,0.3-0.5,0.6-0.9c0.2-0.5,0.6-1.1,0.9-2c0.4-0.9,0.9-2.1,1.6-3.7l-9.5-21.3h2.1l8.5,19.3l7.9-19.3h2l-11.7,28
				c-0.3,0.8-0.8,1.4-1.5,1.8c-0.7,0.4-1.6,0.6-2.7,0.6c-0.1,0-0.2,0-0.3,0c-0.1,0-0.3,0-0.4,0V1554.3z"/>
		</g>
	</g>
	<path class="st3" d="M333.6,1425.7c0,0,0-149.1,0-203.3s50-54.2,50-54.2v257.4H333.6z"/>
	<path class="st3" d="M419.5,1323.2 M469.6,1268.5 M469.6,1306.1 M419.5,1382.5v43.2h93.5c19.3,0,36.8-3.1,52.4-9.2
		s28.9-14.9,40.1-26.1c11.1-11.2,19.6-24.8,25.6-40.6c5.9-15.8,8.9-33.5,8.9-53.1c0-17.6-2.7-34.2-8-49.8
		c-5.3-15.6-13.3-29.2-23.9-40.8c-10.6-11.6-23.9-20.8-39.7-27.5c-15.8-6.8-34.3-10.2-55.3-10.2h-93.5v126.4c0,0,50,3.9,50-39.8
		c0-23.8,0-42.8,0-42.8h43.5c12.1,0,22.9,2,32.5,6.2c9.5,4.1,17.6,9.9,24.1,17.4c6.5,7.5,11.5,16.4,14.9,26.8
		c3.4,10.4,5.1,21.8,5.1,34.1c0,12.1-1.7,23.3-5.1,33.7c-3.4,10.4-8.3,19.4-14.7,27c-6.4,7.6-14.4,13.6-23.9,17.9
		s-20.5,6.5-32.8,6.5h-43.5L419.5,1382.5z"/>
	<g>
		<g>
			<path class="st0" d="M202.7,1535.5c-1.7,0-3.2-0.4-4.7-1.3c-1.5-0.9-2.6-2-3.4-3.4v4.3h-1.9v-29.9h2v13.2c1-1.5,2.2-2.7,3.6-3.6
				c1.4-0.9,3-1.4,4.8-1.4c1.5,0,2.9,0.3,4.1,1c1.2,0.6,2.2,1.5,3.1,2.5c0.8,1.1,1.5,2.2,1.9,3.6c0.4,1.3,0.7,2.7,0.7,4
				c0,1.5-0.3,2.9-0.8,4.2c-0.5,1.3-1.2,2.5-2.2,3.5c-0.9,1-2,1.8-3.2,2.4C205.5,1535.2,204.1,1535.5,202.7,1535.5z M202.3,1533.6
				c1.3,0,2.4-0.3,3.4-0.8c1-0.5,1.9-1.2,2.7-2.1s1.3-1.8,1.8-2.9c0.4-1.1,0.6-2.2,0.6-3.4c0-1.2-0.2-2.4-0.6-3.5
				c-0.4-1.1-1-2.1-1.7-3c-0.7-0.9-1.6-1.6-2.6-2.1c-1-0.5-2.1-0.8-3.3-0.8c-0.9,0-1.8,0.2-2.5,0.5c-0.8,0.3-1.5,0.7-2.2,1.2
				c-0.7,0.5-1.3,1.1-1.8,1.8c-0.5,0.7-1,1.4-1.3,2.1v7.1c0.1,0.8,0.4,1.5,0.9,2.2c0.5,0.7,1.1,1.3,1.9,1.8c0.7,0.5,1.5,0.9,2.4,1.2
				C200.7,1533.5,201.5,1533.6,202.3,1533.6z"/>
			<path class="st0" d="M218.5,1542.3c0.1,0,0.3,0,0.6,0c0.3,0,0.5,0,0.8,0c0.2,0,0.5-0.1,0.7-0.2c0.2-0.1,0.3-0.2,0.5-0.3
				c0.1-0.2,0.3-0.5,0.6-0.9c0.2-0.5,0.6-1.1,0.9-2c0.4-0.9,0.9-2.1,1.6-3.7l-9.5-21.3h2.1l8.5,19.3l7.9-19.3h2l-11.7,28
				c-0.3,0.8-0.8,1.4-1.5,1.8c-0.7,0.4-1.6,0.6-2.7,0.6c-0.1,0-0.2,0-0.3,0c-0.1,0-0.3,0-0.4,0V1542.3z"/>
		</g>
	</g>
	<g>
		<g>
			
				<linearGradient id="SVGID_12_" gradientUnits="userSpaceOnUse" x1="1920.2589" y1="-1976.9933" x2="1903.4052" y2="-1973.7173" gradientTransform="matrix(0.714 -0.7002 0.7002 0.714 329.8068 4245.29)">
				<stop  offset="0" style="stop-color:#EDBD00"/>
				<stop  offset="0.8848" style="stop-color:#CF5500"/>
			</linearGradient>
			<path class="st20" d="M302.3,1483c2.4,5.6,15.8,46.9,15.7,27.1c-0.2-1.6-0.1-3-0.2-4.3c-1.2-8.5-2.7-14.9-5.3-18.6
				C310.2,1483.8,306.5,1482.5,302.3,1483z"/>
			
				<linearGradient id="SVGID_13_" gradientUnits="userSpaceOnUse" x1="8368.7422" y1="6352.1611" x2="8498.7109" y2="6352.1611" gradientTransform="matrix(-0.714 0.7002 -0.7002 -0.714 10744.542 128.2437)">
				<stop  offset="0" style="stop-color:#CF5500"/>
				<stop  offset="1" style="stop-color:#FBEC27"/>
			</linearGradient>
			<path class="st21" d="M316.6,1472.9c-3.1-33.6-15.2-36.7-42.9-17.8c-1.7,1.2-5.3,3.8-8.9,6.4c-9.6,7.5-18.3,13.7-24.7,18.7
				c-6.5,5-11.2,8.8-13.8,11.9c-2.6,3.1-4.1,5.5-4.4,7.2c-0.3,1.7-0.2,3,0.2,3.9c1.1,2.2,3.1,3.1,6.7,3.4c3.6,0.2,7.6,0,11.9-0.9
				c4.3-0.8,8-1.7,11-2.7c3.1-1,5.2-1.7,6.4-2.3c16.7-6.3,24.4-9.6,36.7-15.3c6.8-3.4,13.9-3.4,17.6,1.9c2.5,3.7,4,10,5.3,18.6
				c0.2,1.3,0.1,2.6,0.4,4.2C317.6,1497.3,317.7,1484.5,316.6,1472.9z"/>
			<defs>
				<filter id="Adobe_OpacityMaskFilter_6_" filterUnits="userSpaceOnUse" x="222.6" y="1444.5" width="94.2" height="61.2">
					<feFlood  style="flood-color:white;flood-opacity:1" result="back"/>
					<feBlend  in="SourceGraphic" in2="back" mode="normal"/>
				</filter>
			</defs>
			<mask maskUnits="userSpaceOnUse" x="222.6" y="1444.5" width="94.2" height="61.2" id="SVGID_14_">
				<g class="st22">
					<defs>
						<filter id="Adobe_OpacityMaskFilter_7_" filterUnits="userSpaceOnUse" x="222.6" y="1444.5" width="94.2" height="61.2">
							<feFlood  style="flood-color:white;flood-opacity:1" result="back"/>
							<feBlend  in="SourceGraphic" in2="back" mode="normal"/>
						</filter>
					</defs>
					<mask maskUnits="userSpaceOnUse" x="222.6" y="1444.5" width="94.2" height="61.2" id="SVGID_14_">
						<g class="st23">
						</g>
					</mask>
					
						<radialGradient id="SVGID_15_" cx="6266.0669" cy="-3016.8606" r="50.9921" gradientTransform="matrix(-7.740000e-02 -0.997 0.997 -7.740000e-02 3750.7346 7514)" gradientUnits="userSpaceOnUse">
						<stop  offset="0" style="stop-color:#FFFFFF"/>
						<stop  offset="1" style="stop-color:#000000"/>
					</radialGradient>
					<path class="st24" d="M315.9,1475.9c0.5,6.5,0.7,13.5,0.9,20.5c-1-4.4-2.2-7.5-3.7-9.7c-3.6-5.3-10.8-6.1-18.8-2.2
						c-12,5.6-19.8,8.9-36.6,15.3c-1.3,0.6-3.4,1.3-6.3,2.3c-2.9,0.9-6.5,1.8-10.9,2.7c-4,0.8-7.9,1.1-11.7,0.8
						c-3.8-0.2-5.1-1.3-5.9-2.8c-0.1-0.3-0.2-0.7-0.3-1.1c-0.1-0.6,0-1.3,0.2-2.1c0.3-1.5,1.7-3.8,4.2-6.8c2.6-3,7.1-6.7,13.6-11.8
						c2.6-2,5.6-4.2,8.9-6.6c4.8-3.5,10.1-7.6,15.9-12c3.6-2.7,7.4-5.4,8.8-6.4c14.9-10.1,24.3-13.3,30.5-10.4
						c5.9,2.8,9.4,11.5,10.9,27.4C315.8,1474,315.9,1474.9,315.9,1475.9L315.9,1475.9z"/>
				</g>
			</mask>
			
				<radialGradient id="SVGID_16_" cx="6266.0669" cy="-3016.8606" r="50.9921" gradientTransform="matrix(-7.740000e-02 -0.997 0.997 -7.740000e-02 3750.7346 7514)" gradientUnits="userSpaceOnUse">
				<stop  offset="0" style="stop-color:#FFFFFF"/>
				<stop  offset="1" style="stop-color:#FFFFFF"/>
			</radialGradient>
			<path class="st25" d="M315.9,1475.9c0.5,6.5,0.7,13.5,0.9,20.5c-1-4.4-2.2-7.5-3.7-9.7c-3.6-5.3-10.8-6.1-18.8-2.2
				c-12,5.6-19.8,8.9-36.6,15.3c-1.3,0.6-3.4,1.3-6.3,2.3c-2.9,0.9-6.5,1.8-10.9,2.7c-4,0.8-7.9,1.1-11.7,0.8
				c-3.8-0.2-5.1-1.3-5.9-2.8c-0.1-0.3-0.2-0.7-0.3-1.1c-0.1-0.6,0-1.3,0.2-2.1c0.3-1.5,1.7-3.8,4.2-6.8c2.6-3,7.1-6.7,13.6-11.8
				c2.6-2,5.6-4.2,8.9-6.6c4.8-3.5,10.1-7.6,15.9-12c3.6-2.7,7.4-5.4,8.8-6.4c14.9-10.1,24.3-13.3,30.5-10.4
				c5.9,2.8,9.4,11.5,10.9,27.4C315.8,1474,315.9,1474.9,315.9,1475.9L315.9,1475.9z"/>
			<defs>
				<filter id="Adobe_OpacityMaskFilter_8_" filterUnits="userSpaceOnUse" x="222.7" y="1444.5" width="94.2" height="58.5">
					<feFlood  style="flood-color:white;flood-opacity:1" result="back"/>
					<feBlend  in="SourceGraphic" in2="back" mode="normal"/>
				</filter>
			</defs>
			<mask maskUnits="userSpaceOnUse" x="222.7" y="1444.5" width="94.2" height="58.5" id="SVGID_17_">
				<g class="st26">
					<defs>
						<filter id="Adobe_OpacityMaskFilter_9_" filterUnits="userSpaceOnUse" x="222.7" y="1444.5" width="94.2" height="58.5">
							<feFlood  style="flood-color:white;flood-opacity:1" result="back"/>
							<feBlend  in="SourceGraphic" in2="back" mode="normal"/>
						</filter>
					</defs>
					<mask maskUnits="userSpaceOnUse" x="222.7" y="1444.5" width="94.2" height="58.5" id="SVGID_17_">
						<g class="st27">
						</g>
					</mask>
					
						<radialGradient id="SVGID_18_" cx="73.6129" cy="3751.1824" r="107.3066" gradientTransform="matrix(0.9021 0.4315 -0.4315 0.9021 1774.3003 -1912.5543)" gradientUnits="userSpaceOnUse">
						<stop  offset="0" style="stop-color:#FFFFFF"/>
						<stop  offset="1" style="stop-color:#000000"/>
					</radialGradient>
					<path class="st28" d="M222.9,1502.8c0,0.1,0.1,0.1,0.1,0.2c3.1-2.3,7.1-4.8,12-7.8c7.4-4.5,17-10.1,27.6-16.7
						c3.8-2.3,7.7-4.5,9.5-5.5c28.4-15.3,40.3-12,44.1,18.7c0.1,1.2,0.3,2.4,0.4,3.6c0.1,0.3,0.2,0.7,0.3,1.1
						c-0.2-8-0.5-16.1-1.2-23.4c-1.5-15.9-4.9-24.6-10.8-27.4c-6.2-3-15.7,0.2-30.6,10.3c-1.4,1-5.2,3.7-8.8,6.4
						c-5.7,4.5-11.1,8.5-15.9,12c-3.3,2.4-6.2,4.7-8.9,6.7c-6.5,5-11.1,8.7-13.6,11.8c-2.5,2.9-3.9,5.2-4.2,6.8
						C222.5,1501.5,222.7,1502.4,222.9,1502.8z"/>
				</g>
			</mask>
			
				<radialGradient id="SVGID_19_" cx="73.6129" cy="3751.1824" r="107.3066" gradientTransform="matrix(0.9021 0.4315 -0.4315 0.9021 1774.3003 -1912.5543)" gradientUnits="userSpaceOnUse">
				<stop  offset="0" style="stop-color:#FFFFFF"/>
				<stop  offset="1" style="stop-color:#FFFFFF"/>
			</radialGradient>
			<path class="st29" d="M222.9,1502.8c0,0.1,0.1,0.1,0.1,0.2c3.1-2.3,7.1-4.8,12-7.8c7.4-4.5,17-10.1,27.6-16.7
				c3.8-2.3,7.7-4.5,9.5-5.5c28.4-15.3,40.3-12,44.1,18.7c0.1,1.2,0.3,2.4,0.4,3.6c0.1,0.3,0.2,0.7,0.3,1.1
				c-0.2-8-0.5-16.1-1.2-23.4c-1.5-15.9-4.9-24.6-10.8-27.4c-6.2-3-15.7,0.2-30.6,10.3c-1.4,1-5.2,3.7-8.8,6.4
				c-5.7,4.5-11.1,8.5-15.9,12c-3.3,2.4-6.2,4.7-8.9,6.7c-6.5,5-11.1,8.7-13.6,11.8c-2.5,2.9-3.9,5.2-4.2,6.8
				C222.5,1501.5,222.7,1502.4,222.9,1502.8z"/>
			<defs>
				<filter id="Adobe_OpacityMaskFilter_10_" filterUnits="userSpaceOnUse" x="226.5" y="1482.1" width="90.9" height="24.5">
					<feFlood  style="flood-color:white;flood-opacity:1" result="back"/>
					<feBlend  in="SourceGraphic" in2="back" mode="normal"/>
				</filter>
			</defs>
			<mask maskUnits="userSpaceOnUse" x="226.5" y="1482.1" width="90.9" height="24.5" id="SVGID_20_">
				<g class="st30">
					<defs>
						<filter id="Adobe_OpacityMaskFilter_11_" filterUnits="userSpaceOnUse" x="226.5" y="1482.1" width="90.9" height="24.5">
							<feFlood  style="flood-color:white;flood-opacity:1" result="back"/>
							<feBlend  in="SourceGraphic" in2="back" mode="normal"/>
						</filter>
					</defs>
					<mask maskUnits="userSpaceOnUse" x="226.5" y="1482.1" width="90.9" height="24.5" id="SVGID_20_">
						<g class="st31">
						</g>
					</mask>
					
						<radialGradient id="SVGID_21_" cx="137.3533" cy="3698.6631" r="17.142" gradientTransform="matrix(0.9021 0.4315 -0.4315 0.9021 1774.3003 -1912.5543)" gradientUnits="userSpaceOnUse">
						<stop  offset="0" style="stop-color:#FFFFFF"/>
						<stop  offset="1" style="stop-color:#000000"/>
					</radialGradient>
					<path class="st32" d="M316.8,1496.4c-1-4.4-2.3-7.5-3.7-9.7c-1.1-1.5-2.4-2.7-4.1-3.5c-3.9-1.9-9.3-1.4-14.7,1.3
						c-12.1,5.6-19.8,8.9-36.6,15.3c-1.3,0.6-3.4,1.3-6.3,2.3c-2.9,0.9-6.5,1.8-10.9,2.7c-4,0.8-7.9,1.1-11.7,0.8
						c-0.9-0.1-1.6-0.2-2.3-0.3c0,0.3,0,0.7,0,1c0.7,0.1,1.4,0.2,2.3,0.3c3.6,0.2,7.6,0,11.9-0.9c4.3-0.8,8-1.7,11-2.7
						c3.1-1,5.2-1.7,6.4-2.3c16.7-6.3,24.4-9.6,36.7-15.3c6.8-3.4,13.9-3.4,17.6,1.9c2.4,3.5,3.9,9.4,5.1,17.4
						C317.5,1501.5,317.4,1498.9,316.8,1496.4z"/>
				</g>
			</mask>
			
				<radialGradient id="SVGID_22_" cx="137.3533" cy="3698.6631" r="17.142" gradientTransform="matrix(0.9021 0.4315 -0.4315 0.9021 1774.3003 -1912.5543)" gradientUnits="userSpaceOnUse">
				<stop  offset="0" style="stop-color:#FFFFFF"/>
				<stop  offset="1" style="stop-color:#FFFFFF"/>
			</radialGradient>
			<path class="st33" d="M316.8,1496.4c-1-4.4-2.3-7.5-3.7-9.7c-1.1-1.5-2.4-2.7-4.1-3.5c-3.9-1.9-9.3-1.4-14.7,1.3
				c-12.1,5.6-19.8,8.9-36.6,15.3c-1.3,0.6-3.4,1.3-6.3,2.3c-2.9,0.9-6.5,1.8-10.9,2.7c-4,0.8-7.9,1.1-11.7,0.8
				c-0.9-0.1-1.6-0.2-2.3-0.3c0,0.3,0,0.7,0,1c0.7,0.1,1.4,0.2,2.3,0.3c3.6,0.2,7.6,0,11.9-0.9c4.3-0.8,8-1.7,11-2.7
				c3.1-1,5.2-1.7,6.4-2.3c16.7-6.3,24.4-9.6,36.7-15.3c6.8-3.4,13.9-3.4,17.6,1.9c2.4,3.5,3.9,9.4,5.1,17.4
				C317.5,1501.5,317.4,1498.9,316.8,1496.4z"/>
		</g>
		<g>
			<path class="st18" d="M297.6,1498.5l21.1,48.5h-6.3l-6.8-14.8h-17.1l2.3-4.6h12.6l-9.1-22.3l-18.3,41.7h-6.8l21.7-48.5H297.6z"/>
			<path class="st18" d="M329.7,1498.2h20.5h21.7c0.9,0,1.6,0.3,2.3,0.7c0.7,0.4,1.2,0.9,1.5,1.4c0.2,0.3,0.3,0.6,0.5,1.1
				c0.1,0.4,0.2,0.8,0.2,1.2c0,0.4,0.1,0.8,0.1,1.1c0,0.4,0,0.6,0,0.7v11.4h-6.3v-12H336v37.7h34.2v-9.7h6.3v8.6c0,0.1,0,0.4,0,0.9
				c0,0.4,0,0.9-0.1,1.5c-0.1,0.5-0.2,1.1-0.5,1.6c-0.2,0.6-0.6,1-1,1.5c-0.3,0.2-0.6,0.5-1,0.6c-0.4,0.2-0.8,0.3-1.2,0.5
				c-0.4,0.1-0.8,0.2-1.1,0.3c-0.4,0-0.6,0.1-0.7,0.1h-41.1V1498.2z"/>
			<path class="st18" d="M387.4,1498.2H408h21.7c0.9,0,1.6,0.3,2.3,0.7c0.7,0.4,1.2,0.9,1.5,1.4c0.2,0.3,0.3,0.6,0.5,1.1
				c0.1,0.4,0.2,0.8,0.2,1.2c0,0.4,0.1,0.8,0.1,1.1c0,0.4,0,0.6,0,0.7v11.4h-6.3v-12h-34.2v37.7h34.2v-9.7h6.3v8.6
				c0,0.1,0,0.4,0,0.9c0,0.4,0,0.9-0.1,1.5c-0.1,0.5-0.2,1.1-0.5,1.6c-0.2,0.6-0.6,1-1,1.5c-0.3,0.2-0.6,0.5-1,0.6
				c-0.4,0.2-0.8,0.3-1.2,0.5c-0.4,0.1-0.8,0.2-1.1,0.3c-0.4,0-0.6,0.1-0.8,0.1h-41.1V1498.2z"/>
			<g>
				<polygon class="st18" points="445.1,1498.5 482.8,1498.5 482.8,1503.7 451.4,1503.7 451.4,1542.5 483.4,1542.5 483.4,1547 
					445.1,1547 				"/>
				<rect x="456.5" y="1520.2" class="st18" width="22.8" height="5.1"/>
			</g>
			<path class="st18" d="M502.3,1503.4v19.4h36c0.6,0,1.3,0.1,2.2,0.2c0.9,0.1,1.8,0.4,2.7,1c0.5,0.3,1,0.6,1.3,1
				c0.3,0.4,0.6,0.8,0.7,1.2c0.2,0.4,0.3,0.8,0.3,1.1c0,0.3,0.1,0.5,0.1,0.7v13.1c0,0.3-0.1,0.9-0.2,1.9c-0.2,1-0.7,1.9-1.5,2.7
				c-0.4,0.4-0.9,0.8-1.5,1c-0.5,0.2-1.1,0.4-1.6,0.5c-0.5,0.1-0.9,0.2-1.3,0.2c-0.4,0-0.6,0-0.8,0h-37.7c-0.1,0-0.4,0-0.9,0
				c-0.4,0-0.9-0.1-1.5-0.2c-0.5-0.1-1.1-0.2-1.7-0.5c-0.6-0.2-1.1-0.5-1.6-0.9c-0.4-0.3-0.6-0.7-0.8-1.2c-0.1-0.5-0.3-1-0.4-1.6
				c-0.1-0.6-0.1-1.2-0.1-1.9v-5.1h6.3v6.3h38.8v-14.3h-37.7c-0.3,0-0.9-0.1-1.8-0.3c-0.9-0.2-1.9-0.8-3-1.9c-0.4-0.5-0.7-1-0.9-1.5
				c-0.2-0.5-0.3-1-0.4-1.5c-0.1-0.5-0.2-1.1-0.2-1.6v-16.6c0-0.1,0-0.4,0-0.8c0-0.4,0.1-0.8,0.3-1.3c0.2-0.5,0.4-1,0.7-1.5
				c0.3-0.5,0.8-0.9,1.4-1.3c1.2-0.8,2.3-1.2,3.2-1.3c0.9-0.1,1.5-0.1,1.8-0.1h36c0.3,0,0.9,0.1,1.7,0.3c0.9,0.2,1.6,0.7,2.4,1.3
				c0.8,0.7,1.2,1.5,1.4,2.4c0.2,0.9,0.2,1.4,0.2,1.7v3.1v2.1h-6.3v-5.7H502.3z"/>
			<path class="st18" d="M590.3,1505.7c0-0.6,0.1-1.4,0.3-2.5c0.2-1.1,0.7-2,1.5-2.9c0.4-0.4,0.9-0.8,1.4-1.1c0.5-0.3,1-0.5,1.6-0.6
				c0.5-0.1,1-0.2,1.5-0.3c0.5,0,0.9-0.1,1.1-0.1h35.4c0.1,0,0.4,0,0.8,0c0.4,0,0.8,0.1,1.3,0.2c0.5,0.1,1,0.3,1.6,0.6
				c0.5,0.3,1,0.6,1.5,1c0.4,0.4,0.8,0.9,1,1.5c0.2,0.6,0.4,1.2,0.5,1.7c0.1,0.5,0.2,1,0.2,1.3c0,0.4,0,0.5,0,0.5v35.3
				c0,0.3,0,0.7-0.1,1.1c-0.1,0.5-0.2,1-0.3,1.5c-0.1,0.5-0.3,1-0.6,1.4c-0.2,0.5-0.5,0.8-0.9,1.1c-0.9,0.7-1.8,1.1-2.8,1.4
				c-1,0.2-1.7,0.4-2.2,0.4h-35.4c-0.2,0-0.5,0-1,0c-0.5,0-1-0.1-1.5-0.2c-0.6-0.1-1.1-0.3-1.7-0.5c-0.6-0.2-1.1-0.6-1.5-1
				c-0.4-0.4-0.8-0.9-1-1.5c-0.2-0.6-0.4-1.2-0.5-1.7c-0.1-0.6-0.2-1.1-0.2-1.5c0-0.5,0-0.7,0-0.9V1505.7z M596.6,1541.6h37.1v-38.2
				h-37.1V1541.6z"/>
			<rect x="556.6" y="1520.2" class="st18" width="22.8" height="5.1"/>
		</g>
	</g>
	<path class="st19" d="M-670.9,1187.5v-52h52.4v52H-670.9z M-670.9,1421.1v-205h52.4v205H-670.9z"/>
	<path class="st19" d="M-490.9,1422.3c-13.8,0-26.3-2.7-37.6-8.2c-11.2-5.5-20.9-13-29.1-22.5c-8.2-9.5-14.5-20.5-19-33.1
		c-4.4-12.5-6.7-25.8-6.7-39.9c0-14.9,2.3-28.7,7-41.5c4.7-12.8,11.2-24,19.6-33.6c8.3-9.6,18.4-17.2,30.1-22.7
		c11.7-5.5,24.6-8.2,38.7-8.2c15.9,0,29.9,3.6,41.9,10.8c12,7.2,21.9,16.8,29.7,28.8v-36h45.8v195.2c0,15.1-2.9,28.7-8.6,40.7
		c-5.7,12-13.6,22.2-23.7,30.5c-10,8.3-22,14.7-36,19.2c-14,4.4-29.1,6.7-45.6,6.7c-22.4,0-41.3-3.7-56.5-11.1
		c-15.3-7.4-28.4-17.9-39.3-31.5l28.6-27.8c7.8,9.6,17.7,17.2,29.5,22.7c11.9,5.5,24.5,8.2,37.8,8.2c8.1,0,15.8-1.1,23.3-3.3
		c7.4-2.2,14-5.7,19.8-10.4c5.7-4.7,10.2-10.7,13.5-18c3.3-7.3,4.9-15.9,4.9-25.8v-25.8c-6.8,11.7-16.3,20.8-28.6,27.2
		C-463.7,1419.1-476.8,1422.3-490.9,1422.3z M-473.3,1380.4c5.7,0,11.2-0.9,16.4-2.7c5.2-1.8,10-4.3,14.5-7.4
		c4.4-3.1,8.3-6.8,11.7-11c3.4-4.2,6-8.6,7.8-13.3v-48.9c-4.7-12-12.1-21.6-22.1-28.9c-10-7.3-20.5-11-31.5-11
		c-8.1,0-15.4,1.8-21.9,5.3c-6.5,3.5-12.1,8.2-16.8,14.1c-4.7,5.9-8.3,12.6-10.8,20.1c-2.5,7.6-3.7,15.4-3.7,23.5
		c0,8.3,1.4,16.2,4.3,23.5c2.9,7.3,6.8,13.7,11.9,19.2c5.1,5.5,11,9.8,17.8,12.9C-488.8,1378.8-481.4,1380.4-473.3,1380.4z"/>
	<path class="st19" d="M-132.6,1421.1H-185v-115c0-16.4-2.9-28.4-8.6-36c-5.7-7.6-13.7-11.3-23.9-11.3c-5.2,0-10.6,1-16,3.1
		c-5.5,2.1-10.6,5-15.5,8.8c-4.8,3.8-9.2,8.3-13.1,13.5c-3.9,5.2-6.8,11-8.6,17.2v119.7h-52.4v-205h47.3v37.9
		c7.6-13,18.5-23.2,32.9-30.5c14.3-7.3,30.5-11,48.5-11c12.8,0,23.2,2.3,31.3,7c8.1,4.7,14.3,10.8,18.8,18.4
		c4.4,7.6,7.5,16.2,9.2,25.8c1.7,9.7,2.5,19.4,2.5,29.3V1421.1z"/>
	<path class="st19" d="M-24.2,1425c-21.1,0-37.2-6.8-48.1-20.3c-11-13.6-16.4-33.6-16.4-60.2v-128.3h52.4v117
		c0,31.6,11.3,47.3,34,47.3c10.2,0,20-3.1,29.5-9.2c9.5-6.1,17.3-15.5,23.3-28v-127.1h52.4v144.7c0,5.5,1,9.4,2.9,11.7
		c2,2.3,5.1,3.7,9.6,3.9v44.6c-5.2,1-9.6,1.7-13.1,2c-3.5,0.3-6.7,0.4-9.6,0.4c-9.4,0-17-2.2-22.9-6.5c-5.9-4.3-9.3-10.2-10.4-17.8
		l-1.2-16.4c-9.1,14.1-20.9,24.6-35.2,31.7C8.8,1421.5-7,1425-24.2,1425z"/>
	<path class="st19" d="M232.4,1425c-17.2,0-34-2.7-50.5-8.2c-16.4-5.5-30.5-13.3-42.2-23.5l19.6-32.9c12.5,8.9,24.7,15.6,36.6,20.1
		c11.9,4.6,23.7,6.8,35.4,6.8c10.4,0,18.6-2,24.6-5.9c6-3.9,9-9.5,9-16.8c0-7.3-3.5-12.6-10.6-16c-7-3.4-18.5-7.3-34.4-11.7
		c-13.3-3.7-24.6-7.2-34-10.6c-9.4-3.4-17-7.2-22.7-11.5c-5.7-4.3-9.9-9.3-12.5-14.9c-2.6-5.6-3.9-12.3-3.9-20.1
		c0-10.4,2-19.8,6.1-28.2c4-8.3,9.7-15.5,17-21.3c7.3-5.9,15.8-10.4,25.6-13.5s20.4-4.7,31.9-4.7c15.4,0,29.8,2.2,43.2,6.7
		c13.4,4.4,25.8,11.6,37,21.5l-21.1,31.7c-10.4-7.8-20.5-13.6-30.3-17.2c-9.8-3.7-19.5-5.5-29.1-5.5c-8.9,0-16.3,1.8-22.3,5.5
		c-6,3.7-9,9.5-9,17.6c0,3.7,0.7,6.7,2.2,9c1.4,2.3,3.7,4.4,6.8,6.3c3.1,1.8,7.2,3.6,12.3,5.3c5.1,1.7,11.4,3.5,19,5.3
		c14.1,3.7,26.1,7.3,36.2,11c10,3.7,18.3,7.8,24.6,12.5c6.4,4.7,11.1,10.1,14.1,16.2c3,6.1,4.5,13.5,4.5,22.1
		c0,20.1-7.4,35.9-22.3,47.5C278.2,1419.2,258,1425,232.4,1425z"/>
	<path class="st3" d="M-932.7,1135.5H-724v276.8c0,57.3-46.5,103.8-103.8,103.8h-208.7v-276.8C-1036.5,1182-990,1135.5-932.7,1135.5
		z"/>
	<path class="st0" d="M-761.8,1221.8c-12.8,0-24.3,1.6-34.5,4.7c-10.2,3.1-18.2,7.4-24.2,12.7c-4.1,3.8-7.7,8-11,12.7
		c-3.3,4.7-6.1,10.4-8.4,17.1c-2.3,6.7-4.2,14.8-5.4,24.2c-1.3,9.4-1.9,20.3-1.9,32.8c0,11.3-0.5,22.9-1.6,35
		c-1.1,12-3.3,23.8-6.6,35.2c-3.3,11.4-8.2,22.5-14.8,33.3c-6.6,10.8-15.2,20.6-25.8,29.3c-12.8,10.6-27.8,18.4-44.8,23.2
		c-17.1,4.9-36.4,7.1-58,6.8v-58.7c10.9,0,22.3-1.2,34-3.8c11.7-2.5,21.7-7.2,29.8-14.1c3.8-3.1,7.3-7,10.6-11.5
		c3.3-4.5,6-10.2,8.2-16.9c2.2-6.7,3.9-14.8,5.2-24.2c1.2-9.4,1.9-20.6,1.9-33.8c0-31.3,3.8-57.4,11.5-78.4
		c7.7-21,19.9-38.8,36.8-53.5c11.9-10.6,26.2-18.5,42.9-23.5c16.7-5,35.4-7.7,56.1-8V1221.8z"/>
</g>
<g>
	<g>
		<path class="st2" d="M3064.2,1580c5.3,0,9.7,4.3,9.7,9.7v50.8c0,5.3-4.3,9.7-9.7,9.7h-277.3c-5.3,0-9.7-4.3-9.7-9.7v-50.8
			c0-5.3,4.3-9.7,9.7-9.7H3064.2 M3064.2,1575.3h-277.3c-7.9,0-14.3,6.4-14.3,14.3v50.8c0,7.9,6.4,14.3,14.3,14.3h277.3
			c7.9,0,14.3-6.4,14.3-14.3v-50.8C3078.5,1581.8,3072.1,1575.3,3064.2,1575.3L3064.2,1575.3z"/>
	</g>
</g>
<g>
	<g>
		<g>
			<path class="st2" d="M2849.3,2120.4c0,2.2-0.4,4.1-1.3,5.7c-0.9,1.6-2,3-3.6,4.1c-1.5,1.1-3.3,1.9-5.3,2.5s-4.1,0.9-6.4,0.9
				h-24.7v-51.1h27.3c1.8,0,3.4,0.4,4.8,1.2c1.4,0.8,2.7,1.8,3.7,3c1,1.2,1.8,2.6,2.3,4.2c0.6,1.6,0.8,3.1,0.8,4.7
				c0,2.5-0.6,4.8-1.9,7c-1.2,2.2-3.1,3.8-5.5,4.9c2.9,0.9,5.2,2.4,6.9,4.6C2848.5,2114.2,2849.3,2117,2849.3,2120.4z
				 M2818.1,2090.9v12.9h13.2c1.7,0,3.1-0.6,4.3-1.7c1.2-1.2,1.8-2.7,1.8-4.7c0-2-0.5-3.5-1.6-4.7c-1.1-1.2-2.4-1.7-4-1.7H2818.1z
				 M2839.3,2118.5c0-0.9-0.2-1.8-0.5-2.6c-0.3-0.8-0.7-1.6-1.3-2.2c-0.5-0.6-1.2-1.1-1.9-1.5c-0.7-0.4-1.5-0.5-2.4-0.5h-15.2v13.5
				h14.7c0.9,0,1.8-0.2,2.6-0.5c0.8-0.3,1.5-0.8,2-1.4c0.6-0.6,1-1.3,1.4-2.1C2839.1,2120.3,2839.3,2119.4,2839.3,2118.5z"/>
			<path class="st2" d="M2870.5,2082.4h8.8l19.4,51.1h-10.2l-4.7-12.7h-17.8l-4.7,12.7H2851L2870.5,2082.4z M2882,2113.8l-7-20.1
				l-7.3,20.1H2882z"/>
			<path class="st2" d="M2934,2095.8c-0.3-0.3-0.9-0.8-1.8-1.4c-0.9-0.6-2-1.1-3.2-1.7c-1.3-0.6-2.6-1-4.1-1.4
				c-1.5-0.4-3-0.6-4.5-0.6c-2.7,0-4.8,0.5-6.1,1.5c-1.3,1-2,2.4-2,4.2c0,1.1,0.3,1.9,0.8,2.6c0.5,0.7,1.2,1.3,2.2,1.8
				c1,0.5,2.2,1,3.6,1.4c1.5,0.4,3.2,0.9,5.1,1.4c2.5,0.7,4.8,1.4,6.8,2.2c2,0.8,3.8,1.7,5.2,2.9c1.4,1.2,2.5,2.5,3.3,4.1
				c0.8,1.6,1.2,3.6,1.2,5.9c0,2.7-0.5,5.1-1.5,7c-1,1.9-2.4,3.5-4.2,4.7c-1.8,1.2-3.8,2.1-6,2.6s-4.7,0.8-7.2,0.8
				c-3.8,0-7.6-0.6-11.4-1.7c-3.7-1.2-7.1-2.8-10.1-4.9l4.4-8.6c0.4,0.4,1.2,1,2.3,1.7c1.1,0.7,2.5,1.4,4,2.1
				c1.5,0.7,3.2,1.3,5.1,1.8c1.9,0.5,3.8,0.7,5.8,0.7c5.5,0,8.2-1.8,8.2-5.3c0-1.1-0.3-2-0.9-2.8c-0.6-0.8-1.5-1.4-2.7-2
				c-1.2-0.6-2.5-1.1-4.2-1.6c-1.6-0.5-3.5-1-5.5-1.6c-2.4-0.7-4.6-1.4-6.4-2.2c-1.8-0.8-3.3-1.7-4.5-2.8c-1.2-1.1-2.1-2.3-2.7-3.7
				c-0.6-1.4-0.9-3.1-0.9-5.1c0-2.6,0.5-4.9,1.4-6.9c1-2,2.3-3.7,4-5c1.7-1.3,3.7-2.4,5.9-3.1c2.3-0.7,4.7-1,7.3-1
				c3.6,0,6.9,0.6,9.9,1.7c3,1.1,5.7,2.5,7.9,4L2934,2095.8z"/>
			<path class="st2" d="M2947.6,2133.5v-51.1h9.9v51.1H2947.6z"/>
			<path class="st2" d="M2965.1,2107.6c0-3.1,0.6-6.2,1.7-9.2c1.1-3,2.8-5.8,4.9-8.2c2.2-2.4,4.8-4.3,7.9-5.8
				c3.1-1.5,6.7-2.2,10.6-2.2c4.7,0,8.8,1,12.2,3.1c3.4,2.1,6,4.7,7.7,8.1l-7.6,5.2c-0.7-1.4-1.5-2.6-2.4-3.6c-1-1-2-1.8-3.1-2.3
				s-2.3-1-3.5-1.3c-1.2-0.3-2.4-0.4-3.5-0.4c-2.5,0-4.7,0.5-6.5,1.5c-1.8,1-3.4,2.3-4.6,3.9c-1.2,1.6-2.1,3.4-2.8,5.5
				c-0.6,2-0.9,4.1-0.9,6.1c0,2.3,0.4,4.4,1.1,6.5c0.7,2.1,1.7,3.9,3.1,5.5c1.3,1.6,2.9,2.9,4.7,3.8c1.8,1,3.9,1.4,6.1,1.4
				c1.2,0,2.3-0.1,3.6-0.4c1.2-0.3,2.4-0.7,3.6-1.4c1.1-0.6,2.2-1.4,3.1-2.4c1-1,1.7-2.2,2.3-3.6l8.1,4.7c-0.8,1.9-2,3.6-3.5,5.1
				c-1.5,1.5-3.2,2.7-5.1,3.7c-1.9,1-3.9,1.8-6.1,2.3c-2.2,0.5-4.3,0.8-6.3,0.8c-3.6,0-7-0.8-10-2.3c-3-1.5-5.6-3.5-7.8-6
				c-2.2-2.5-3.9-5.3-5.1-8.4C2965.7,2114.1,2965.1,2110.9,2965.1,2107.6z"/>
		</g>
	</g>
	<g>
		<g>
			<path class="st2" d="M3048.2,2073c5.3,0,9.7,4.3,9.7,9.7v50.8c0,5.3-4.3,9.7-9.7,9.7h-277.3c-5.3,0-9.7-4.3-9.7-9.7v-50.8
				c0-5.3,4.3-9.7,9.7-9.7H3048.2 M3048.2,2068.3h-277.3c-7.9,0-14.3,6.4-14.3,14.3v50.8c0,7.9,6.4,14.3,14.3,14.3h277.3
				c7.9,0,14.3-6.4,14.3-14.3v-50.8C3062.5,2074.8,3056.1,2068.3,3048.2,2068.3L3048.2,2068.3z"/>
		</g>
	</g>
</g>
<g>
	<g>
		<g>
			<path class="st2" d="M2853.5,2646.7v-51.3h21.7c2.4,0,4.5,0.5,6.5,1.5c2,1,3.7,2.3,5.2,3.9c1.4,1.6,2.6,3.4,3.4,5.5
				c0.8,2,1.2,4.1,1.2,6.2c0,2.2-0.4,4.3-1.2,6.3s-1.9,3.9-3.2,5.5c-1.4,1.6-3.1,2.9-5.1,3.8c-2,1-4.1,1.4-6.5,1.4h-12.1v17.2
				H2853.5z M2863.5,2620.8h11.6c1.8,0,3.4-0.7,4.6-2.2c1.2-1.5,1.8-3.5,1.8-6.1c0-1.3-0.2-2.5-0.6-3.5c-0.4-1-0.9-1.9-1.5-2.6
				c-0.6-0.7-1.4-1.3-2.2-1.6c-0.8-0.4-1.7-0.5-2.6-0.5h-11.1V2620.8z"/>
			<path class="st2" d="M2898.5,2646.7v-51.3h22.7c2.4,0,4.5,0.5,6.5,1.5c2,1,3.7,2.3,5.2,3.9c1.4,1.6,2.6,3.4,3.4,5.5
				c0.8,2,1.2,4.1,1.2,6.2c0,3.3-0.8,6.3-2.5,9.1c-1.7,2.7-3.9,4.7-6.8,5.9l11.7,19.3h-11.2l-10.5-17.2h-9.8v17.2H2898.5z
				 M2908.5,2620.8h12.5c0.9,0,1.8-0.2,2.6-0.7c0.8-0.4,1.5-1,2.1-1.8c0.6-0.7,1-1.6,1.4-2.6c0.3-1,0.5-2.1,0.5-3.2
				c0-1.2-0.2-2.3-0.6-3.3c-0.4-1-0.9-1.9-1.6-2.6c-0.7-0.7-1.4-1.3-2.2-1.7c-0.8-0.4-1.7-0.6-2.6-0.6h-12.1V2620.8z"/>
			<path class="st2" d="M2968.4,2647.1c-3.8,0-7.2-0.7-10.2-2.2c-3.1-1.5-5.7-3.4-7.9-5.9c-2.2-2.4-3.9-5.2-5.1-8.3
				c-1.2-3.1-1.8-6.3-1.8-9.6c0-3.4,0.6-6.7,1.9-9.8c1.3-3.1,3-5.9,5.3-8.3c2.2-2.4,4.9-4.3,8-5.7c3.1-1.4,6.4-2.1,10-2.1
				c3.7,0,7.1,0.8,10.1,2.3c3.1,1.5,5.7,3.5,7.8,6c2.2,2.5,3.9,5.2,5.1,8.4c1.2,3.1,1.8,6.3,1.8,9.5c0,3.4-0.6,6.7-1.9,9.8
				c-1.3,3.1-3,5.8-5.2,8.2c-2.2,2.4-4.9,4.3-7.9,5.7C2975.4,2646.4,2972,2647.1,2968.4,2647.1z M2953.5,2621.1c0,2.2,0.3,4.4,1,6.4
				c0.7,2.1,1.6,3.9,2.9,5.5c1.3,1.6,2.8,2.9,4.7,3.8c1.9,1,4,1.4,6.3,1.4c2.4,0,4.5-0.5,6.4-1.5c1.9-1,3.4-2.3,4.7-3.9
				c1.3-1.6,2.2-3.5,2.9-5.5s1-4.1,1-6.2c0-2.2-0.4-4.4-1-6.4c-0.7-2.1-1.7-3.9-3-5.5c-1.3-1.6-2.8-2.9-4.7-3.8
				c-1.9-0.9-3.9-1.4-6.2-1.4c-2.4,0-4.6,0.5-6.4,1.5c-1.9,1-3.4,2.3-4.7,3.9c-1.3,1.6-2.2,3.4-2.9,5.5
				C2953.9,2616.9,2953.5,2619,2953.5,2621.1z"/>
		</g>
	</g>
	<g>
		<g>
			<path class="st2" d="M3062.2,2586c5.3,0,9.7,4.3,9.7,9.7v50.8c0,5.3-4.3,9.7-9.7,9.7h-277.3c-5.3,0-9.7-4.3-9.7-9.7v-50.8
				c0-5.3,4.3-9.7,9.7-9.7H3062.2 M3062.2,2581.3h-277.3c-7.9,0-14.3,6.4-14.3,14.3v50.8c0,7.9,6.4,14.3,14.3,14.3h277.3
				c7.9,0,14.3-6.4,14.3-14.3v-50.8C3076.5,2587.8,3070.1,2581.3,3062.2,2581.3L3062.2,2581.3z"/>
		</g>
	</g>
</g>
<g>
	<g>
		<path class="st0" d="M2644.2,1677c-1.7,0-3.2-0.4-4.7-1.3c-1.5-0.9-2.6-2-3.4-3.4v4.3h-1.9v-29.9h2v13.2c1-1.5,2.2-2.7,3.6-3.6
			c1.4-0.9,3-1.4,4.8-1.4c1.5,0,2.9,0.3,4.1,1c1.2,0.6,2.2,1.5,3.1,2.5c0.8,1.1,1.5,2.2,1.9,3.6c0.4,1.3,0.7,2.7,0.7,4
			c0,1.5-0.3,2.9-0.8,4.2c-0.5,1.3-1.2,2.5-2.2,3.5c-0.9,1-2,1.8-3.2,2.4C2647,1676.7,2645.6,1677,2644.2,1677z M2643.8,1675.1
			c1.3,0,2.4-0.3,3.4-0.8c1-0.5,1.9-1.2,2.7-2.1c0.8-0.9,1.3-1.8,1.8-2.9c0.4-1.1,0.6-2.2,0.6-3.4c0-1.2-0.2-2.4-0.6-3.5
			c-0.4-1.1-1-2.1-1.7-3c-0.7-0.9-1.6-1.6-2.6-2.1c-1-0.5-2.1-0.8-3.3-0.8c-0.9,0-1.8,0.2-2.5,0.5c-0.8,0.3-1.5,0.7-2.2,1.2
			c-0.7,0.5-1.3,1.1-1.8,1.8c-0.5,0.7-1,1.4-1.3,2.1v7.1c0.1,0.8,0.4,1.5,0.9,2.2c0.5,0.7,1.1,1.3,1.9,1.8c0.7,0.5,1.5,0.9,2.4,1.2
			C2642.2,1675,2643,1675.1,2643.8,1675.1z"/>
		<path class="st0" d="M2660,1683.8c0.1,0,0.3,0,0.6,0c0.3,0,0.5,0,0.8,0c0.2,0,0.5-0.1,0.7-0.2c0.2-0.1,0.3-0.2,0.5-0.3
			c0.1-0.2,0.3-0.5,0.6-0.9c0.2-0.5,0.6-1.1,0.9-2c0.4-0.9,0.9-2.1,1.6-3.7l-9.5-21.3h2.1l8.5,19.3l7.9-19.3h2l-11.7,28
			c-0.3,0.8-0.8,1.4-1.5,1.8c-0.7,0.4-1.6,0.6-2.7,0.6c-0.1,0-0.2,0-0.3,0c-0.1,0-0.3,0-0.4,0V1683.8z"/>
	</g>
</g>
<path class="st3" d="M2772.1,1555.2c0,0,0-149.1,0-203.3s50-54.2,50-54.2v257.4H2772.1z"/>
<path class="st3" d="M2858,1452.7 M2908.1,1398 M2908.1,1435.6 M2858,1512v43.2h93.5c19.3,0,36.8-3.1,52.4-9.2
	c15.6-6.2,28.9-14.9,40.1-26.1c11.1-11.2,19.6-24.8,25.6-40.6c5.9-15.8,8.9-33.5,8.9-53.1c0-17.6-2.7-34.2-8-49.8
	c-5.3-15.6-13.3-29.2-23.9-40.8c-10.6-11.6-23.9-20.8-39.7-27.5c-15.8-6.8-34.3-10.2-55.3-10.2H2858v126.4c0,0,50,3.9,50-39.8
	c0-23.8,0-42.8,0-42.8h43.5c12.1,0,22.9,2,32.5,6.2c9.5,4.1,17.6,9.9,24.1,17.4c6.5,7.5,11.5,16.4,14.9,26.8
	c3.4,10.4,5.1,21.8,5.1,34.1c0,12.1-1.7,23.3-5.1,33.7c-3.4,10.4-8.3,19.4-14.7,27c-6.4,7.6-14.4,13.6-23.9,17.9s-20.5,6.5-32.8,6.5
	h-43.5L2858,1512z"/>
<path class="st19" d="M1767.6,1317v-52h52.4v52H1767.6z M1767.6,1550.6v-205h52.4v205H1767.6z"/>
<path class="st19" d="M1947.6,1551.8c-13.8,0-26.3-2.7-37.6-8.2c-11.2-5.5-20.9-13-29.1-22.5c-8.2-9.5-14.5-20.5-19-33.1
	c-4.4-12.5-6.7-25.8-6.7-39.9c0-14.9,2.3-28.7,7-41.5c4.7-12.8,11.2-24,19.6-33.6c8.3-9.6,18.4-17.2,30.1-22.7
	c11.7-5.5,24.6-8.2,38.7-8.2c15.9,0,29.9,3.6,41.9,10.8c12,7.2,21.9,16.8,29.7,28.8v-36h45.8v195.2c0,15.1-2.9,28.7-8.6,40.7
	c-5.7,12-13.6,22.2-23.7,30.5c-10,8.3-22,14.7-36,19.2c-14,4.4-29.1,6.7-45.6,6.7c-22.4,0-41.3-3.7-56.5-11.1
	c-15.3-7.4-28.4-17.9-39.3-31.5l28.6-27.8c7.8,9.6,17.7,17.2,29.5,22.7c11.9,5.5,24.5,8.2,37.8,8.2c8.1,0,15.8-1.1,23.3-3.3
	c7.4-2.2,14-5.7,19.8-10.4c5.7-4.7,10.2-10.7,13.5-18c3.3-7.3,4.9-15.9,4.9-25.8V1515c-6.8,11.7-16.3,20.8-28.6,27.2
	C1974.8,1548.6,1961.7,1551.8,1947.6,1551.8z M1965.2,1509.9c5.7,0,11.2-0.9,16.4-2.7c5.2-1.8,10-4.3,14.5-7.4
	c4.4-3.1,8.3-6.8,11.7-11c3.4-4.2,6-8.6,7.8-13.3v-48.9c-4.7-12-12.1-21.6-22.1-28.9c-10-7.3-20.5-11-31.5-11
	c-8.1,0-15.4,1.8-21.9,5.3c-6.5,3.5-12.1,8.2-16.8,14.1c-4.7,5.9-8.3,12.6-10.8,20.1c-2.5,7.6-3.7,15.4-3.7,23.5
	c0,8.3,1.4,16.2,4.3,23.5c2.9,7.3,6.8,13.7,11.9,19.2c5.1,5.5,11,9.8,17.8,12.9C1949.7,1508.3,1957.1,1509.9,1965.2,1509.9z"/>
<path class="st19" d="M2305.9,1550.6h-52.4v-115c0-16.4-2.9-28.4-8.6-36c-5.7-7.6-13.7-11.3-23.9-11.3c-5.2,0-10.6,1-16,3.1
	c-5.5,2.1-10.6,5-15.5,8.8c-4.8,3.8-9.2,8.3-13.1,13.5c-3.9,5.2-6.8,11-8.6,17.2v119.7h-52.4v-205h47.3v37.9
	c7.6-13,18.5-23.2,32.9-30.5c14.3-7.3,30.5-11,48.5-11c12.8,0,23.2,2.3,31.3,7c8.1,4.7,14.3,10.8,18.8,18.4
	c4.4,7.6,7.5,16.2,9.2,25.8c1.7,9.7,2.5,19.4,2.5,29.3V1550.6z"/>
<path class="st19" d="M2414.3,1554.5c-21.1,0-37.2-6.8-48.1-20.3c-11-13.6-16.4-33.6-16.4-60.2v-128.3h52.4v117
	c0,31.6,11.3,47.3,34,47.3c10.2,0,20-3.1,29.5-9.2c9.5-6.1,17.3-15.5,23.3-28v-127.1h52.4v144.7c0,5.5,1,9.4,2.9,11.7
	s5.1,3.7,9.6,3.9v44.6c-5.2,1-9.6,1.7-13.1,2c-3.5,0.3-6.7,0.4-9.6,0.4c-9.4,0-17-2.2-22.9-6.5c-5.9-4.3-9.3-10.2-10.4-17.8
	l-1.2-16.4c-9.1,14.1-20.9,24.6-35.2,31.7C2447.3,1551,2431.5,1554.5,2414.3,1554.5z"/>
<path class="st19" d="M2670.9,1554.5c-17.2,0-34-2.7-50.5-8.2c-16.4-5.5-30.5-13.3-42.2-23.5l19.6-32.9
	c12.5,8.9,24.7,15.6,36.6,20.1c11.9,4.6,23.7,6.8,35.4,6.8c10.4,0,18.6-2,24.6-5.9c6-3.9,9-9.5,9-16.8c0-7.3-3.5-12.6-10.6-16
	c-7-3.4-18.5-7.3-34.4-11.7c-13.3-3.7-24.6-7.2-34-10.6c-9.4-3.4-17-7.2-22.7-11.5c-5.7-4.3-9.9-9.3-12.5-14.9
	c-2.6-5.6-3.9-12.3-3.9-20.1c0-10.4,2-19.8,6.1-28.2c4-8.3,9.7-15.5,17-21.3c7.3-5.9,15.8-10.4,25.6-13.5c9.8-3.1,20.4-4.7,31.9-4.7
	c15.4,0,29.8,2.2,43.2,6.7c13.4,4.4,25.8,11.6,37,21.5l-21.1,31.7c-10.4-7.8-20.5-13.6-30.3-17.2c-9.8-3.7-19.5-5.5-29.1-5.5
	c-8.9,0-16.3,1.8-22.3,5.5c-6,3.7-9,9.5-9,17.6c0,3.7,0.7,6.7,2.2,9c1.4,2.3,3.7,4.4,6.8,6.3c3.1,1.8,7.2,3.6,12.3,5.3
	c5.1,1.7,11.4,3.5,19,5.3c14.1,3.7,26.1,7.3,36.2,11c10,3.7,18.3,7.8,24.6,12.5c6.4,4.7,11.1,10.1,14.1,16.2
	c3,6.1,4.5,13.5,4.5,22.1c0,20.1-7.4,35.9-22.3,47.5C2716.7,1548.7,2696.5,1554.5,2670.9,1554.5z"/>
<path class="st3" d="M1505.8,1265h208.7v276.8c0,57.3-46.5,103.8-103.8,103.8H1402v-276.8C1402,1311.5,1448.5,1265,1505.8,1265z"/>
<path class="st0" d="M1676.7,1351.3c-12.8,0-24.3,1.6-34.5,4.7c-10.2,3.1-18.2,7.4-24.2,12.7c-4.1,3.8-7.7,8-11,12.7
	c-3.3,4.7-6.1,10.4-8.4,17.1c-2.3,6.7-4.2,14.8-5.4,24.2c-1.3,9.4-1.9,20.3-1.9,32.8c0,11.3-0.5,22.9-1.6,35
	c-1.1,12-3.3,23.8-6.6,35.2c-3.3,11.4-8.2,22.5-14.8,33.3c-6.6,10.8-15.2,20.6-25.8,29.3c-12.8,10.6-27.8,18.4-44.8,23.2
	c-17.1,4.9-36.4,7.1-58,6.8v-58.7c10.9,0,22.3-1.2,34-3.8c11.7-2.5,21.7-7.2,29.8-14.1c3.8-3.1,7.3-7,10.6-11.5
	c3.3-4.5,6-10.2,8.2-16.9c2.2-6.7,3.9-14.8,5.2-24.2c1.2-9.4,1.9-20.6,1.9-33.8c0-31.3,3.8-57.4,11.5-78.4
	c7.7-21,19.9-38.8,36.8-53.5c11.9-10.6,26.2-18.5,42.9-23.5c16.7-5,35.4-7.7,56.1-8V1351.3z"/>
<path class="st3" d="M2756.1,2049.2c0,0,0-149.1,0-203.3s50-54.2,50-54.2v257.4H2756.1z"/>
<path class="st3" d="M2842,1946.7 M2892.1,1892 M2892.1,1929.6 M2842,2006v43.2h93.5c19.3,0,36.8-3.1,52.4-9.2
	c15.6-6.2,28.9-14.9,40.1-26.1c11.1-11.2,19.6-24.8,25.6-40.6c5.9-15.8,8.9-33.5,8.9-53.1c0-17.6-2.7-34.2-8-49.8
	c-5.3-15.6-13.3-29.2-23.9-40.8c-10.6-11.6-23.9-20.8-39.7-27.5c-15.8-6.8-34.3-10.2-55.3-10.2H2842v126.4c0,0,50,3.9,50-39.8
	c0-23.8,0-42.8,0-42.8h43.5c12.1,0,22.9,2,32.5,6.2c9.5,4.1,17.6,9.9,24.1,17.4c6.5,7.5,11.5,16.4,14.9,26.8
	c3.4,10.4,5.1,21.8,5.1,34.1c0,12.1-1.7,23.3-5.1,33.7c-3.4,10.4-8.3,19.4-14.7,27c-6.4,7.6-14.4,13.6-23.9,17.9s-20.5,6.5-32.8,6.5
	h-43.5L2842,2006z"/>
<path class="st19" d="M1751.6,1811v-52h52.4v52H1751.6z M1751.6,2044.6v-205h52.4v205H1751.6z"/>
<path class="st19" d="M1931.6,2045.8c-13.8,0-26.3-2.7-37.6-8.2c-11.2-5.5-20.9-13-29.1-22.5c-8.2-9.5-14.5-20.5-19-33.1
	c-4.4-12.5-6.7-25.8-6.7-39.9c0-14.9,2.3-28.7,7-41.5c4.7-12.8,11.2-24,19.6-33.6c8.3-9.6,18.4-17.2,30.1-22.7
	c11.7-5.5,24.6-8.2,38.7-8.2c15.9,0,29.9,3.6,41.9,10.8c12,7.2,21.9,16.8,29.7,28.8v-36h45.8v195.2c0,15.1-2.9,28.7-8.6,40.7
	c-5.7,12-13.6,22.2-23.7,30.5c-10,8.3-22,14.7-36,19.2c-14,4.4-29.1,6.7-45.6,6.7c-22.4,0-41.3-3.7-56.5-11.1
	c-15.3-7.4-28.4-17.9-39.3-31.5l28.6-27.8c7.8,9.6,17.7,17.2,29.5,22.7c11.9,5.5,24.5,8.2,37.8,8.2c8.1,0,15.8-1.1,23.3-3.3
	c7.4-2.2,14-5.7,19.8-10.4c5.7-4.7,10.2-10.7,13.5-18c3.3-7.3,4.9-15.9,4.9-25.8V2009c-6.8,11.7-16.3,20.8-28.6,27.2
	C1958.8,2042.6,1945.7,2045.8,1931.6,2045.8z M1949.2,2003.9c5.7,0,11.2-0.9,16.4-2.7c5.2-1.8,10-4.3,14.5-7.4
	c4.4-3.1,8.3-6.8,11.7-11c3.4-4.2,6-8.6,7.8-13.3v-48.9c-4.7-12-12.1-21.6-22.1-28.9c-10-7.3-20.5-11-31.5-11
	c-8.1,0-15.4,1.8-21.9,5.3c-6.5,3.5-12.1,8.2-16.8,14.1c-4.7,5.9-8.3,12.6-10.8,20.1c-2.5,7.6-3.7,15.4-3.7,23.5
	c0,8.3,1.4,16.2,4.3,23.5c2.9,7.3,6.8,13.7,11.9,19.2c5.1,5.5,11,9.8,17.8,12.9C1933.7,2002.3,1941.1,2003.9,1949.2,2003.9z"/>
<path class="st19" d="M2289.9,2044.6h-52.4v-115c0-16.4-2.9-28.4-8.6-36c-5.7-7.6-13.7-11.3-23.9-11.3c-5.2,0-10.6,1-16,3.1
	c-5.5,2.1-10.6,5-15.5,8.8c-4.8,3.8-9.2,8.3-13.1,13.5c-3.9,5.2-6.8,11-8.6,17.2v119.7h-52.4v-205h47.3v37.9
	c7.6-13,18.5-23.2,32.9-30.5c14.3-7.3,30.5-11,48.5-11c12.8,0,23.2,2.3,31.3,7c8.1,4.7,14.3,10.8,18.8,18.4
	c4.4,7.6,7.5,16.2,9.2,25.8c1.7,9.7,2.5,19.4,2.5,29.3V2044.6z"/>
<path class="st19" d="M2398.3,2048.5c-21.1,0-37.2-6.8-48.1-20.3c-11-13.6-16.4-33.6-16.4-60.2v-128.3h52.4v117
	c0,31.6,11.3,47.3,34,47.3c10.2,0,20-3.1,29.5-9.2c9.5-6.1,17.3-15.5,23.3-28v-127.1h52.4v144.7c0,5.5,1,9.4,2.9,11.7
	s5.1,3.7,9.6,3.9v44.6c-5.2,1-9.6,1.7-13.1,2c-3.5,0.3-6.7,0.4-9.6,0.4c-9.4,0-17-2.2-22.9-6.5c-5.9-4.3-9.3-10.2-10.4-17.8
	l-1.2-16.4c-9.1,14.1-20.9,24.6-35.2,31.7C2431.3,2045,2415.5,2048.5,2398.3,2048.5z"/>
<path class="st19" d="M2654.9,2048.5c-17.2,0-34-2.7-50.5-8.2c-16.4-5.5-30.5-13.3-42.2-23.5l19.6-32.9
	c12.5,8.9,24.7,15.6,36.6,20.1c11.9,4.6,23.7,6.8,35.4,6.8c10.4,0,18.6-2,24.6-5.9c6-3.9,9-9.5,9-16.8c0-7.3-3.5-12.6-10.6-16
	c-7-3.4-18.5-7.3-34.4-11.7c-13.3-3.7-24.6-7.2-34-10.6c-9.4-3.4-17-7.2-22.7-11.5c-5.7-4.3-9.9-9.3-12.5-14.9
	c-2.6-5.6-3.9-12.3-3.9-20.1c0-10.4,2-19.8,6.1-28.2c4-8.3,9.7-15.5,17-21.3c7.3-5.9,15.8-10.4,25.6-13.5c9.8-3.1,20.4-4.7,31.9-4.7
	c15.4,0,29.8,2.2,43.2,6.7c13.4,4.4,25.8,11.6,37,21.5l-21.1,31.7c-10.4-7.8-20.5-13.6-30.3-17.2c-9.8-3.7-19.5-5.5-29.1-5.5
	c-8.9,0-16.3,1.8-22.3,5.5c-6,3.7-9,9.5-9,17.6c0,3.7,0.7,6.7,2.2,9c1.4,2.3,3.7,4.4,6.8,6.3c3.1,1.8,7.2,3.6,12.3,5.3
	c5.1,1.7,11.4,3.5,19,5.3c14.1,3.7,26.1,7.3,36.2,11c10,3.7,18.3,7.8,24.6,12.5c6.4,4.7,11.1,10.1,14.1,16.2
	c3,6.1,4.5,13.5,4.5,22.1c0,20.1-7.4,35.9-22.3,47.5C2700.7,2042.7,2680.5,2048.5,2654.9,2048.5z"/>
<path class="st34" d="M1489.8,1759h208.7v276.8c0,57.3-46.5,103.8-103.8,103.8H1386v-276.8C1386,1805.5,1432.5,1759,1489.8,1759z"/>
<path class="st3" d="M1660.7,1845.3c-12.8,0-24.3,1.6-34.5,4.7c-10.2,3.1-18.2,7.4-24.2,12.7c-4.1,3.8-7.7,8-11,12.7
	c-3.3,4.7-6.1,10.4-8.4,17.1c-2.3,6.7-4.2,14.8-5.4,24.2c-1.3,9.4-1.9,20.3-1.9,32.8c0,11.3-0.5,22.9-1.6,35
	c-1.1,12-3.3,23.8-6.6,35.2c-3.3,11.4-8.2,22.5-14.8,33.3c-6.6,10.8-15.2,20.6-25.8,29.3c-12.8,10.6-27.8,18.4-44.8,23.2
	c-17.1,4.9-36.4,7.1-58,6.8v-58.7c10.9,0,22.3-1.2,34-3.8c11.7-2.5,21.7-7.2,29.8-14.1c3.8-3.1,7.3-7,10.6-11.5
	c3.3-4.5,6-10.2,8.2-16.9c2.2-6.7,3.9-14.8,5.2-24.2c1.2-9.4,1.9-20.6,1.9-33.8c0-31.3,3.8-57.4,11.5-78.4
	c7.7-21,19.9-38.8,36.8-53.5c11.9-10.6,26.2-18.5,42.9-23.5c16.7-5,35.4-7.7,56.1-8V1845.3z"/>
<g>
	<g>
		<g>
			<g>
				<path class="st2" d="M1489.8,393.8c0,2.2-0.4,4.1-1.3,5.7c-0.9,1.6-2,3-3.6,4.1c-1.5,1.1-3.3,1.9-5.3,2.5
					c-2,0.6-4.1,0.9-6.4,0.9h-24.7v-51.1h27.3c1.8,0,3.4,0.4,4.8,1.2c1.4,0.8,2.7,1.8,3.7,3c1,1.2,1.8,2.6,2.3,4.2
					c0.6,1.6,0.8,3.1,0.8,4.7c0,2.5-0.6,4.8-1.9,7c-1.2,2.2-3.1,3.8-5.5,4.9c2.9,0.9,5.2,2.4,6.9,4.6
					C1489,387.6,1489.8,390.4,1489.8,393.8z M1458.6,364.4v12.9h13.2c1.7,0,3.1-0.6,4.3-1.7c1.2-1.2,1.8-2.7,1.8-4.7
					c0-2-0.5-3.5-1.6-4.7c-1.1-1.2-2.4-1.7-4-1.7H1458.6z M1479.8,391.9c0-0.9-0.2-1.8-0.5-2.6c-0.3-0.8-0.7-1.6-1.3-2.2
					c-0.5-0.6-1.2-1.1-1.9-1.5c-0.7-0.4-1.5-0.5-2.4-0.5h-15.2v13.5h14.7c0.9,0,1.8-0.2,2.6-0.5c0.8-0.3,1.5-0.8,2-1.4
					c0.6-0.6,1-1.3,1.4-2.1C1479.6,393.7,1479.8,392.8,1479.8,391.9z"/>
				<path class="st2" d="M1511,355.9h8.8l19.4,51.1H1529l-4.7-12.7h-17.8l-4.7,12.7h-10.2L1511,355.9z M1522.5,387.2l-7-20.1
					l-7.3,20.1H1522.5z"/>
				<path class="st2" d="M1574.5,369.3c-0.3-0.3-0.9-0.8-1.8-1.4c-0.9-0.6-2-1.1-3.2-1.7c-1.3-0.6-2.6-1-4.1-1.4
					c-1.5-0.4-3-0.6-4.5-0.6c-2.7,0-4.8,0.5-6.1,1.5c-1.3,1-2,2.4-2,4.2c0,1.1,0.3,1.9,0.8,2.6c0.5,0.7,1.2,1.3,2.2,1.8
					c1,0.5,2.2,1,3.6,1.4c1.5,0.4,3.2,0.9,5.1,1.4c2.5,0.7,4.8,1.4,6.8,2.2c2,0.8,3.8,1.7,5.2,2.9c1.4,1.2,2.5,2.5,3.3,4.1
					s1.2,3.6,1.2,5.9c0,2.7-0.5,5.1-1.5,7c-1,1.9-2.4,3.5-4.2,4.7c-1.8,1.2-3.8,2.1-6,2.6c-2.3,0.6-4.7,0.8-7.2,0.8
					c-3.8,0-7.6-0.6-11.4-1.7c-3.7-1.2-7.1-2.8-10.1-4.9l4.4-8.6c0.4,0.4,1.2,1,2.3,1.7c1.1,0.7,2.5,1.4,4,2.1
					c1.5,0.7,3.2,1.3,5.1,1.8c1.9,0.5,3.8,0.7,5.8,0.7c5.5,0,8.2-1.8,8.2-5.3c0-1.1-0.3-2-0.9-2.8c-0.6-0.8-1.5-1.4-2.7-2
					c-1.2-0.6-2.5-1.1-4.2-1.6s-3.5-1-5.5-1.6c-2.4-0.7-4.6-1.4-6.4-2.2c-1.8-0.8-3.3-1.7-4.5-2.8c-1.2-1.1-2.1-2.3-2.7-3.7
					c-0.6-1.4-0.9-3.1-0.9-5.1c0-2.6,0.5-4.9,1.4-6.9c1-2,2.3-3.7,4-5c1.7-1.3,3.7-2.4,5.9-3.1c2.3-0.7,4.7-1,7.3-1
					c3.6,0,6.9,0.6,9.9,1.7c3,1.1,5.7,2.5,7.9,4L1574.5,369.3z"/>
				<path class="st2" d="M1588.1,407v-51.1h9.9V407H1588.1z"/>
				<path class="st2" d="M1605.6,381.1c0-3.1,0.6-6.2,1.7-9.2c1.1-3,2.8-5.8,4.9-8.2c2.2-2.4,4.8-4.3,7.9-5.8
					c3.1-1.5,6.7-2.2,10.6-2.2c4.7,0,8.8,1,12.2,3.1c3.4,2.1,6,4.7,7.7,8.1l-7.6,5.2c-0.7-1.4-1.5-2.6-2.4-3.6c-1-1-2-1.8-3.1-2.3
					s-2.3-1-3.5-1.3c-1.2-0.3-2.4-0.4-3.5-0.4c-2.5,0-4.7,0.5-6.5,1.5c-1.8,1-3.4,2.3-4.6,3.9c-1.2,1.6-2.1,3.4-2.8,5.5
					c-0.6,2-0.9,4.1-0.9,6.1c0,2.3,0.4,4.4,1.1,6.5c0.7,2.1,1.7,3.9,3.1,5.5c1.3,1.6,2.9,2.9,4.7,3.8c1.8,1,3.9,1.4,6.1,1.4
					c1.2,0,2.3-0.1,3.6-0.4c1.2-0.3,2.4-0.7,3.6-1.4c1.1-0.6,2.2-1.4,3.1-2.4c1-1,1.7-2.2,2.3-3.6l8.1,4.7c-0.8,1.9-2,3.6-3.5,5.1
					c-1.5,1.5-3.2,2.7-5.1,3.7c-1.9,1-3.9,1.8-6.1,2.3c-2.2,0.5-4.3,0.8-6.3,0.8c-3.6,0-7-0.8-10-2.3c-3-1.5-5.6-3.5-7.8-6
					c-2.2-2.5-3.9-5.3-5.1-8.4C1606.2,387.5,1605.6,384.3,1605.6,381.1z"/>
			</g>
		</g>
		<g>
			<g>
				<path class="st2" d="M1688.7,346.5c5.3,0,9.7,4.3,9.7,9.7v50.8c0,5.3-4.3,9.7-9.7,9.7h-277.3c-5.3,0-9.7-4.3-9.7-9.7v-50.8
					c0-5.3,4.3-9.7,9.7-9.7H1688.7 M1688.7,341.8h-277.3c-7.9,0-14.3,6.4-14.3,14.3v50.8c0,7.9,6.4,14.3,14.3,14.3h277.3
					c7.9,0,14.3-6.4,14.3-14.3v-50.8C1703,348.2,1696.6,341.8,1688.7,341.8L1688.7,341.8z"/>
			</g>
		</g>
	</g>
	<path class="st3" d="M1396.6,322.6c0,0,0-149.1,0-203.3s50-54.2,50-54.2v257.4H1396.6z"/>
	<path class="st3" d="M1482.5,220.1 M1532.6,165.5 M1532.6,203 M1482.5,279.5v43.2h93.5c19.3,0,36.8-3.1,52.4-9.2
		c15.6-6.2,28.9-14.9,40.1-26.1c11.1-11.2,19.6-24.8,25.6-40.6c5.9-15.8,8.9-33.5,8.9-53.1c0-17.6-2.7-34.2-8-49.8
		c-5.3-15.6-13.3-29.2-23.9-40.8c-10.6-11.6-23.9-20.8-39.7-27.5c-15.8-6.8-34.3-10.2-55.3-10.2h-93.5v126.4c0,0,50,3.9,50-39.8
		c0-23.8,0-42.8,0-42.8h43.5c12.1,0,22.9,2,32.5,6.2c9.5,4.1,17.6,9.9,24.1,17.4c6.5,7.5,11.5,16.4,14.9,26.8
		c3.4,10.4,5.1,21.8,5.1,34.1c0,12.1-1.7,23.3-5.1,33.7c-3.4,10.4-8.3,19.4-14.7,27c-6.4,7.6-14.4,13.6-23.9,17.9
		c-9.5,4.4-20.5,6.5-32.8,6.5h-43.5L1482.5,279.5z"/>
	<path class="st19" d="M392.1,84.5v-52h52.4v52H392.1z M392.1,318V113h52.4v205H392.1z"/>
	<path class="st19" d="M572.1,319.2c-13.8,0-26.3-2.7-37.6-8.2c-11.2-5.5-20.9-13-29.1-22.5c-8.2-9.5-14.5-20.5-19-33.1
		c-4.4-12.5-6.7-25.8-6.7-39.9c0-14.9,2.3-28.7,7-41.5c4.7-12.8,11.2-24,19.6-33.6c8.3-9.6,18.4-17.2,30.1-22.7
		c11.7-5.5,24.6-8.2,38.7-8.2c15.9,0,29.9,3.6,41.9,10.8c12,7.2,21.9,16.8,29.7,28.8v-36h45.8v195.2c0,15.1-2.9,28.7-8.6,40.7
		c-5.7,12-13.6,22.2-23.7,30.5c-10,8.3-22,14.7-36,19.2c-14,4.4-29.1,6.7-45.6,6.7c-22.4,0-41.3-3.7-56.5-11.1
		c-15.3-7.4-28.4-17.9-39.3-31.5l28.6-27.8c7.8,9.6,17.7,17.2,29.5,22.7c11.9,5.5,24.5,8.2,37.8,8.2c8.1,0,15.8-1.1,23.3-3.3
		c7.4-2.2,14-5.7,19.8-10.4c5.7-4.7,10.2-10.7,13.5-18c3.3-7.3,4.9-15.9,4.9-25.8v-25.8c-6.8,11.7-16.3,20.8-28.6,27.2
		C599.3,316,586.2,319.2,572.1,319.2z M589.7,277.3c5.7,0,11.2-0.9,16.4-2.7c5.2-1.8,10-4.3,14.5-7.4c4.4-3.1,8.3-6.8,11.7-11
		c3.4-4.2,6-8.6,7.8-13.3V194c-4.7-12-12.1-21.6-22.1-28.9c-10-7.3-20.5-11-31.5-11c-8.1,0-15.4,1.8-21.9,5.3
		c-6.5,3.5-12.1,8.2-16.8,14.1c-4.7,5.9-8.3,12.6-10.8,20.1c-2.5,7.6-3.7,15.4-3.7,23.5c0,8.3,1.4,16.2,4.3,23.5
		c2.9,7.3,6.8,13.7,11.9,19.2c5.1,5.5,11,9.8,17.8,12.9C574.2,275.8,581.6,277.3,589.7,277.3z"/>
	<path class="st19" d="M930.4,318H878V203c0-16.4-2.9-28.4-8.6-36c-5.7-7.6-13.7-11.3-23.9-11.3c-5.2,0-10.6,1-16,3.1
		c-5.5,2.1-10.6,5-15.5,8.8c-4.8,3.8-9.2,8.3-13.1,13.5c-3.9,5.2-6.8,11-8.6,17.2V318h-52.4V113h47.3V151
		c7.6-13,18.5-23.2,32.9-30.5c14.3-7.3,30.5-11,48.5-11c12.8,0,23.2,2.3,31.3,7c8.1,4.7,14.3,10.8,18.8,18.4
		c4.4,7.6,7.5,16.2,9.2,25.8c1.7,9.7,2.5,19.4,2.5,29.3V318z"/>
	<path class="st19" d="M1038.8,321.9c-21.1,0-37.2-6.8-48.1-20.3c-11-13.6-16.4-33.6-16.4-60.2V113h52.4v117
		c0,31.6,11.3,47.3,34,47.3c10.2,0,20-3.1,29.5-9.2c9.5-6.1,17.3-15.5,23.3-28V113h52.4v144.7c0,5.5,1,9.4,2.9,11.7
		c2,2.3,5.1,3.7,9.6,3.9V318c-5.2,1-9.6,1.7-13.1,2c-3.5,0.3-6.7,0.4-9.6,0.4c-9.4,0-17-2.2-22.9-6.5c-5.9-4.3-9.3-10.2-10.4-17.8
		l-1.2-16.4c-9.1,14.1-20.9,24.6-35.2,31.7C1071.8,318.4,1056,321.9,1038.8,321.9z"/>
	<path class="st19" d="M1295.4,321.9c-17.2,0-34-2.7-50.5-8.2c-16.4-5.5-30.5-13.3-42.2-23.5l19.6-32.9
		c12.5,8.9,24.7,15.6,36.6,20.1c11.9,4.6,23.7,6.8,35.4,6.8c10.4,0,18.6-2,24.6-5.9c6-3.9,9-9.5,9-16.8c0-7.3-3.5-12.6-10.6-16
		c-7-3.4-18.5-7.3-34.4-11.7c-13.3-3.7-24.6-7.2-34-10.6c-9.4-3.4-17-7.2-22.7-11.5c-5.7-4.3-9.9-9.3-12.5-14.9
		c-2.6-5.6-3.9-12.3-3.9-20.1c0-10.4,2-19.8,6.1-28.2c4-8.3,9.7-15.5,17-21.3c7.3-5.9,15.8-10.4,25.6-13.5
		c9.8-3.1,20.4-4.7,31.9-4.7c15.4,0,29.8,2.2,43.2,6.7c13.4,4.4,25.8,11.6,37,21.5l-21.1,31.7c-10.4-7.8-20.5-13.6-30.3-17.2
		c-9.8-3.7-19.5-5.5-29.1-5.5c-8.9,0-16.3,1.8-22.3,5.5c-6,3.7-9,9.5-9,17.6c0,3.7,0.7,6.7,2.2,9c1.4,2.3,3.7,4.4,6.8,6.3
		c3.1,1.8,7.2,3.6,12.3,5.3c5.1,1.7,11.4,3.5,19,5.3c14.1,3.7,26.1,7.3,36.2,11c10,3.7,18.3,7.8,24.6,12.5
		c6.4,4.7,11.1,10.1,14.1,16.2c3,6.1,4.5,13.5,4.5,22.1c0,20.1-7.4,35.9-22.3,47.5C1341.2,316.1,1321,321.9,1295.4,321.9z"/>
	<path class="st35" d="M130.3,32.4H339v276.8c0,57.3-46.5,103.8-103.8,103.8H26.5V136.2C26.5,78.9,73,32.4,130.3,32.4z"/>
	<path class="st3" d="M301.2,118.8c-12.8,0-24.3,1.6-34.5,4.7c-10.2,3.1-18.2,7.4-24.2,12.7c-4.1,3.8-7.7,8-11,12.7
		c-3.3,4.7-6.1,10.4-8.4,17.1c-2.3,6.7-4.2,14.8-5.4,24.2c-1.3,9.4-1.9,20.3-1.9,32.8c0,11.3-0.5,22.9-1.6,35
		c-1.1,12-3.3,23.8-6.6,35.2c-3.3,11.4-8.2,22.5-14.8,33.3c-6.6,10.8-15.2,20.6-25.8,29.3c-12.8,10.6-27.8,18.4-44.8,23.2
		c-17.1,4.9-36.4,7.1-58,6.8v-58.7c10.9,0,22.3-1.2,34-3.8c11.7-2.5,21.7-7.2,29.8-14.1c3.8-3.1,7.3-7,10.6-11.5
		c3.3-4.5,6-10.2,8.2-16.9c2.2-6.7,3.9-14.8,5.2-24.2c1.2-9.4,1.9-20.6,1.9-33.8c0-31.3,3.8-57.4,11.5-78.4
		c7.7-21,19.9-38.8,36.8-53.5c11.9-10.6,26.2-18.5,42.9-23.5c16.7-5,35.4-7.7,56.1-8V118.8z"/>
</g>
<g>
	<g>
		<path class="st0" d="M2642.2,2684c-1.7,0-3.2-0.4-4.7-1.3c-1.5-0.9-2.6-2-3.4-3.4v4.3h-1.9v-29.9h2v13.2c1-1.5,2.2-2.7,3.6-3.6
			c1.4-0.9,3-1.4,4.8-1.4c1.5,0,2.9,0.3,4.1,1c1.2,0.6,2.2,1.5,3.1,2.5c0.8,1.1,1.5,2.2,1.9,3.6c0.4,1.3,0.7,2.7,0.7,4
			c0,1.5-0.3,2.9-0.8,4.2c-0.5,1.3-1.2,2.5-2.2,3.5c-0.9,1-2,1.8-3.2,2.4C2645,2683.7,2643.6,2684,2642.2,2684z M2641.8,2682.1
			c1.3,0,2.4-0.3,3.4-0.8c1-0.5,1.9-1.2,2.7-2.1c0.8-0.9,1.3-1.8,1.8-2.9c0.4-1.1,0.6-2.2,0.6-3.4c0-1.2-0.2-2.4-0.6-3.5
			c-0.4-1.1-1-2.1-1.7-3c-0.7-0.9-1.6-1.6-2.6-2.1c-1-0.5-2.1-0.8-3.3-0.8c-0.9,0-1.8,0.2-2.5,0.5c-0.8,0.3-1.5,0.7-2.2,1.2
			c-0.7,0.5-1.3,1.1-1.8,1.8c-0.5,0.7-1,1.4-1.3,2.1v7.1c0.1,0.8,0.4,1.5,0.9,2.2c0.5,0.7,1.1,1.3,1.9,1.8c0.7,0.5,1.5,0.9,2.4,1.2
			C2640.2,2682,2641,2682.1,2641.8,2682.1z"/>
		<path class="st0" d="M2658,2690.8c0.1,0,0.3,0,0.6,0c0.3,0,0.5,0,0.8,0c0.2,0,0.5-0.1,0.7-0.2c0.2-0.1,0.3-0.2,0.5-0.3
			c0.1-0.2,0.3-0.5,0.6-0.9c0.2-0.5,0.6-1.1,0.9-2c0.4-0.9,0.9-2.1,1.6-3.7l-9.5-21.3h2.1l8.5,19.3l7.9-19.3h2l-11.7,28
			c-0.3,0.8-0.8,1.4-1.5,1.8c-0.7,0.4-1.6,0.6-2.7,0.6c-0.1,0-0.2,0-0.3,0c-0.1,0-0.3,0-0.4,0V2690.8z"/>
	</g>
</g>
<path class="st3" d="M2770.1,2562.2c0,0,0-149.1,0-203.3c0-54.2,50-54.2,50-54.2v257.4H2770.1z"/>
<path class="st3" d="M2856,2459.7 M2906.1,2405 M2906.1,2442.6 M2856,2519v43.2h93.5c19.3,0,36.8-3.1,52.4-9.2
	c15.6-6.2,28.9-14.9,40.1-26.1c11.1-11.2,19.6-24.8,25.6-40.6c5.9-15.8,8.9-33.5,8.9-53.1c0-17.6-2.7-34.2-8-49.8
	c-5.3-15.6-13.3-29.2-23.9-40.8c-10.6-11.6-23.9-20.8-39.7-27.5c-15.8-6.8-34.3-10.2-55.3-10.2H2856v126.4c0,0,50,3.9,50-39.8
	c0-23.8,0-42.8,0-42.8h43.5c12.1,0,22.9,2,32.5,6.2c9.5,4.1,17.6,9.9,24.1,17.4c6.5,7.5,11.5,16.4,14.9,26.8s5.1,21.8,5.1,34.1
	c0,12.1-1.7,23.3-5.1,33.7c-3.4,10.4-8.3,19.4-14.7,27c-6.4,7.6-14.4,13.6-23.9,17.9s-20.5,6.5-32.8,6.5h-43.5L2856,2519z"/>
<path class="st19" d="M1765.6,2324v-52h52.4v52H1765.6z M1765.6,2557.6v-205h52.4v205H1765.6z"/>
<path class="st19" d="M1945.6,2558.8c-13.8,0-26.3-2.7-37.6-8.2c-11.2-5.5-20.9-13-29.1-22.5c-8.2-9.5-14.5-20.5-19-33.1
	c-4.4-12.5-6.7-25.8-6.7-39.9c0-14.9,2.3-28.7,7-41.5c4.7-12.8,11.2-24,19.6-33.6c8.3-9.6,18.4-17.2,30.1-22.7
	c11.7-5.5,24.6-8.2,38.7-8.2c15.9,0,29.9,3.6,41.9,10.8c12,7.2,21.9,16.8,29.7,28.8v-36h45.8v195.2c0,15.1-2.9,28.7-8.6,40.7
	c-5.7,12-13.6,22.2-23.7,30.5c-10,8.3-22,14.7-36,19.2c-14,4.4-29.1,6.7-45.6,6.7c-22.4,0-41.3-3.7-56.5-11.1
	c-15.3-7.4-28.4-17.9-39.3-31.5l28.6-27.8c7.8,9.6,17.7,17.2,29.5,22.7c11.9,5.5,24.5,8.2,37.8,8.2c8.1,0,15.8-1.1,23.3-3.3
	c7.4-2.2,14-5.7,19.8-10.4c5.7-4.7,10.2-10.7,13.5-18c3.3-7.3,4.9-15.9,4.9-25.8V2522c-6.8,11.7-16.3,20.8-28.6,27.2
	C1972.8,2555.6,1959.7,2558.8,1945.6,2558.8z M1963.2,2516.9c5.7,0,11.2-0.9,16.4-2.7c5.2-1.8,10-4.3,14.5-7.4
	c4.4-3.1,8.3-6.8,11.7-11c3.4-4.2,6-8.6,7.8-13.3v-48.9c-4.7-12-12.1-21.6-22.1-28.9c-10-7.3-20.5-11-31.5-11
	c-8.1,0-15.4,1.8-21.9,5.3c-6.5,3.5-12.1,8.2-16.8,14.1c-4.7,5.9-8.3,12.6-10.8,20.1c-2.5,7.6-3.7,15.4-3.7,23.5
	c0,8.3,1.4,16.2,4.3,23.5c2.9,7.3,6.8,13.7,11.9,19.2c5.1,5.5,11,9.8,17.8,12.9C1947.7,2515.3,1955.1,2516.9,1963.2,2516.9z"/>
<path class="st19" d="M2303.9,2557.6h-52.4v-115c0-16.4-2.9-28.4-8.6-36c-5.7-7.6-13.7-11.3-23.9-11.3c-5.2,0-10.6,1-16,3.1
	c-5.5,2.1-10.6,5-15.5,8.8c-4.8,3.8-9.2,8.3-13.1,13.5c-3.9,5.2-6.8,11-8.6,17.2v119.7h-52.4v-205h47.3v37.9
	c7.6-13,18.5-23.2,32.9-30.5c14.3-7.3,30.5-11,48.5-11c12.8,0,23.2,2.3,31.3,7c8.1,4.7,14.3,10.8,18.8,18.4
	c4.4,7.6,7.5,16.2,9.2,25.8c1.7,9.7,2.5,19.4,2.5,29.3V2557.6z"/>
<path class="st19" d="M2412.3,2561.5c-21.1,0-37.2-6.8-48.1-20.3c-11-13.6-16.4-33.6-16.4-60.2v-128.3h52.4v117
	c0,31.6,11.3,47.3,34,47.3c10.2,0,20-3.1,29.5-9.2c9.5-6.1,17.3-15.5,23.3-28v-127.1h52.4v144.7c0,5.5,1,9.4,2.9,11.7
	s5.1,3.7,9.6,3.9v44.6c-5.2,1-9.6,1.7-13.1,2c-3.5,0.3-6.7,0.4-9.6,0.4c-9.4,0-17-2.2-22.9-6.5c-5.9-4.3-9.3-10.2-10.4-17.8
	l-1.2-16.4c-9.1,14.1-20.9,24.6-35.2,31.7C2445.3,2558,2429.5,2561.5,2412.3,2561.5z"/>
<path class="st19" d="M2668.9,2561.5c-17.2,0-34-2.7-50.5-8.2c-16.4-5.5-30.5-13.3-42.2-23.5l19.6-32.9
	c12.5,8.9,24.7,15.6,36.6,20.1c11.9,4.6,23.7,6.8,35.4,6.8c10.4,0,18.6-2,24.6-5.9c6-3.9,9-9.5,9-16.8c0-7.3-3.5-12.6-10.6-16
	c-7-3.4-18.5-7.3-34.4-11.7c-13.3-3.7-24.6-7.2-34-10.6c-9.4-3.4-17-7.2-22.7-11.5c-5.7-4.3-9.9-9.3-12.5-14.9
	c-2.6-5.6-3.9-12.3-3.9-20.1c0-10.4,2-19.8,6.1-28.2c4-8.3,9.7-15.5,17-21.3c7.3-5.9,15.8-10.4,25.6-13.5c9.8-3.1,20.4-4.7,31.9-4.7
	c15.4,0,29.8,2.2,43.2,6.7c13.4,4.4,25.8,11.6,37,21.5l-21.1,31.7c-10.4-7.8-20.5-13.6-30.3-17.2c-9.8-3.7-19.5-5.5-29.1-5.5
	c-8.9,0-16.3,1.8-22.3,5.5c-6,3.7-9,9.5-9,17.6c0,3.7,0.7,6.7,2.2,9c1.4,2.3,3.7,4.4,6.8,6.3c3.1,1.8,7.2,3.6,12.3,5.3
	c5.1,1.7,11.4,3.5,19,5.3c14.1,3.7,26.1,7.3,36.2,11c10,3.7,18.3,7.8,24.6,12.5c6.4,4.7,11.1,10.1,14.1,16.2
	c3,6.1,4.5,13.5,4.5,22.1c0,20.1-7.4,35.9-22.3,47.5C2714.7,2555.7,2694.5,2561.5,2668.9,2561.5z"/>
<path class="st3" d="M1503.8,2272h208.7v276.8c0,57.3-46.5,103.8-103.8,103.8H1400v-276.8C1400,2318.5,1446.5,2272,1503.8,2272z"/>
<path class="st0" d="M1674.7,2358.3c-12.8,0-24.3,1.6-34.5,4.7c-10.2,3.1-18.2,7.4-24.2,12.7c-4.1,3.8-7.7,8-11,12.7
	c-3.3,4.7-6.1,10.4-8.4,17.1c-2.3,6.7-4.2,14.8-5.4,24.2c-1.3,9.4-1.9,20.3-1.9,32.8c0,11.3-0.5,22.9-1.6,35
	c-1.1,12-3.3,23.8-6.6,35.2c-3.3,11.4-8.2,22.5-14.8,33.3c-6.6,10.8-15.2,20.6-25.8,29.3c-12.8,10.6-27.8,18.4-44.8,23.2
	c-17.1,4.9-36.4,7.1-58,6.8v-58.7c10.9,0,22.3-1.2,34-3.8c11.7-2.5,21.7-7.2,29.8-14.1c3.8-3.1,7.3-7,10.6-11.5
	c3.3-4.5,6-10.2,8.2-16.9c2.2-6.7,3.9-14.8,5.2-24.2c1.2-9.4,1.9-20.6,1.9-33.8c0-31.3,3.8-57.4,11.5-78.4
	c7.7-21,19.9-38.8,36.8-53.5c11.9-10.6,26.2-18.5,42.9-23.5c16.7-5,35.4-7.7,56.1-8V2358.3z"/>
</svg>
