<?xml version="1.0" encoding="utf-8"?>
<!-- Generator: Adobe Illustrator 25.3.1, SVG Export Plug-In . SVG Version: 6.00 Build 0)  -->
<svg version="1.1" xmlns="http://www.w3.org/2000/svg" xmlns:xlink="http://www.w3.org/1999/xlink" x="0px" y="0px"
	 viewBox="0 0 477 477" style="enable-background:new 0 0 477 477;" xml:space="preserve">
<style type="text/css">
	.st0{fill:#FFFFFF;}
	.st1{fill:none;stroke:#FFFFFF;stroke-width:15.4333;stroke-linecap:round;stroke-linejoin:round;stroke-miterlimit:10;}
	.st2{fill:none;stroke:#FFFFFF;stroke-width:20.5778;stroke-linecap:round;stroke-linejoin:round;stroke-miterlimit:10;}
</style>
<g id="Capa_1">
	<g>
		<g>
			<g>
				<path class="st0" d="M390.8,61.5l38.1,66.9H48.2l38.1-66.9H390.8 M403.1,41H73.9L13.2,149h450.7L403.1,41L403.1,41z"/>
			</g>
		</g>
		<path class="st1" d="M217.9,436V296.1c0-24.7-19.5-44.2-44.2-44.2h-37c-24.7,0-44.2,19.5-44.2,44.2V435H46.1V228.2
			c1,0,3.1,0,4.1,0c25.7,0,49.4-13.4,62.8-32.9c13.4,20.6,37,32.9,62.8,32.9s49.4-13.4,62.8-32.9c13.4,20.6,37,32.9,62.8,32.9
			c25.7,0,49.4-13.4,62.8-32.9c13.4,20.6,37,32.9,62.8,32.9c1,0,3.1,0,4.1,0V436H217.9z"/>
		<path class="st2" d="M358.9,342.4c0,5.1-4.1,9.3-9.3,9.3h-71c-5.1,0-9.3-4.1-9.3-9.3v-54.5c0-5.1,4.1-9.3,9.3-9.3h71
			c5.1,0,9.3,4.1,9.3,9.3V342.4z"/>
	</g>
</g>
<g id="Capa_2">
	<g>
		<path class="st0" d="M349.6,161.3c-4.1,23.7-24.7,41.2-48.4,41.2c-24.7,0-44.2-17.5-48.4-41.2H349.6z"/>
	</g>
	<g>
		<path class="st0" d="M225.1,161.3c-4.1,23.7-24.7,41.2-48.4,41.2s-44.2-17.5-49.4-41.2H225.1z"/>
	</g>
	<g>
		<path class="st0" d="M1.9,161.3h97.7c-4.1,23.7-24.7,41.2-49.4,41.2C26.5,202.5,6,185,1.9,161.3z"/>
	</g>
	<g>
		<path class="st0" d="M425.8,202.5c-24.7,0-44.2-17.5-48.4-41.2h97.7C471,185,450.5,202.5,425.8,202.5z"/>
	</g>
</g>
</svg>
