<?xml version="1.0" encoding="utf-8"?>
<!-- Generator: Adobe Illustrator 25.3.1, SVG Export Plug-In . SVG Version: 6.00 Build 0)  -->
<svg version="1.1" id="Capa_1" xmlns="http://www.w3.org/2000/svg" xmlns:xlink="http://www.w3.org/1999/xlink" x="0px" y="0px"
	 viewBox="0 0 46 39.2" style="enable-background:new 0 0 46 39.2;" xml:space="preserve">
<style type="text/css">
	.st0{fill:#444444;}
	.st1{fill:none;stroke:#444444;stroke-width:1.5;stroke-linecap:round;stroke-linejoin:round;stroke-miterlimit:10;}
</style>
<g>
	<g>
		<g>
			<path class="st0" d="M37.8,2l3.7,6.5h-37L8.2,2H37.8 M39,0H7L1.1,10.5h43.8L39,0L39,0z"/>
		</g>
	</g>
	<g>
		<path class="st0" d="M33.8,11.7c-0.4,2.3-2.4,4-4.7,4c-2.4,0-4.3-1.7-4.7-4H33.8z"/>
	</g>
	<g>
		<path class="st0" d="M21.7,11.7c-0.4,2.3-2.4,4-4.7,4s-4.3-1.7-4.8-4H21.7z"/>
	</g>
	<g>
		<path class="st0" d="M0,11.7h9.5c-0.4,2.3-2.4,4-4.8,4C2.4,15.7,0.4,14,0,11.7z"/>
	</g>
	<path class="st1" d="M21,38.4V24.8c0-2.4-1.9-4.3-4.3-4.3h-3.6c-2.4,0-4.3,1.9-4.3,4.3v13.5H4.3V18.2c0.1,0,0.3,0,0.4,0
		c2.5,0,4.8-1.3,6.1-3.2c1.3,2,3.6,3.2,6.1,3.2s4.8-1.3,6.1-3.2c1.3,2,3.6,3.2,6.1,3.2s4.8-1.3,6.1-3.2c1.3,2,3.6,3.2,6.1,3.2
		c0.1,0,0.3,0,0.4,0v20.2H21z"/>
	<g>
		<path class="st0" d="M41.2,15.7c-2.4,0-4.3-1.7-4.7-4H46C45.6,14,43.6,15.7,41.2,15.7z"/>
	</g>
	<path class="st1" d="M34.7,29.3c0,0.5-0.4,0.9-0.9,0.9h-6.9c-0.5,0-0.9-0.4-0.9-0.9V24c0-0.5,0.4-0.9,0.9-0.9h6.9
		c0.5,0,0.9,0.4,0.9,0.9V29.3z"/>
</g>
</svg>
