<?xml version="1.0" encoding="utf-8"?>
<!-- Generator: Adobe Illustrator 25.3.1, SVG Export Plug-In . SVG Version: 6.00 Build 0)  -->
<svg version="1.1" id="Layer_1" xmlns="http://www.w3.org/2000/svg" xmlns:xlink="http://www.w3.org/1999/xlink" x="0px" y="0px"
	 viewBox="0 0 19 21.5" style="enable-background:new 0 0 19 21.5;" xml:space="preserve">
<style type="text/css">
	.st0{fill:#8A8E94;}
</style>
<path class="st0" d="M0,0h2.9v3.6C4.6,2.3,6.7,1.5,9,1.5c5.5,0,10,4.5,10,10c0,5.5-4.5,10-10,10c-3.1,0-5.8-1.4-7.6-3.6l2.3-1.7
	C5,17.7,6.9,18.6,9,18.6c3.9,0,7.1-3.2,7.1-7.1c0-3.9-3.2-7.1-7.1-7.1c-1.6,0-3,0.5-4.2,1.3h3.7v2.9H0V0z"/>
</svg>
