<?xml version="1.0" encoding="utf-8"?>
<!-- Generator: Adobe Illustrator 25.3.1, SVG Export Plug-In . SVG Version: 6.00 Build 0)  -->
<svg version="1.1" id="Capa_1" xmlns="http://www.w3.org/2000/svg" xmlns:xlink="http://www.w3.org/1999/xlink" x="0px" y="0px"
	 viewBox="0 0 50 54.9" style="enable-background:new 0 0 50 54.9;" xml:space="preserve">
<style type="text/css">
	.st0{fill:#EBBB00;}
</style>
<g>
	<g>
		<path class="st0" d="M25,2.5c7.4,0,13.2,5.9,13.2,13.2S32.4,28.9,25,28.9S11.8,23,11.8,15.7S17.6,2.5,25,2.5 M25,0
			C16.3,0,9.3,7,9.3,15.7s7,15.7,15.7,15.7s15.7-7,15.7-15.7S33.7,0,25,0L25,0z"/>
	</g>
	<g>
		<g>
			<path class="st0" d="M9.4,33.7c4.5,4,9.9,6.1,15.6,6.1s11.2-2.2,15.6-6.1c3.9,6.2,6,12.1,6.7,18.9H2.7
				C3.4,45.7,5.5,39.8,9.4,33.7 M41.1,29.8c-4.4,4.9-10,7.6-16.1,7.6s-11.6-2.7-16.1-7.6C3.7,37.4,0.5,44.9,0,54.9h50
				C49.5,44.9,46.3,37.4,41.1,29.8L41.1,29.8z"/>
		</g>
	</g>
</g>
</svg>
