<?xml version="1.0" encoding="utf-8"?>
<!-- Generator: Adobe Illustrator 25.3.1, SVG Export Plug-In . SVG Version: 6.00 Build 0)  -->
<svg version="1.1" id="Layer_1" xmlns="http://www.w3.org/2000/svg" xmlns:xlink="http://www.w3.org/1999/xlink" x="0px" y="0px"
	 viewBox="0 0 66.4 66.4" style="enable-background:new 0 0 66.4 66.4;" xml:space="preserve">
<style type="text/css">
	.st0{fill:#FFFFFF;}
	.st1{fill:#444444;}
</style>
<circle class="st0" cx="33.2" cy="33.2" r="30"/>
<polygon class="st1" points="26.8,41.6 39.6,33.2 26.8,24.8 "/>
<path class="st1" d="M33.2,0C14.9,0,0,14.9,0,33.2s14.9,33.2,33.2,33.2s33.2-14.9,33.2-33.2l0,0C66.4,14.9,51.6,0,33.2,0
	C33.2,0,33.2,0,33.2,0z M52.5,40.9c0,3.2-2.6,5.8-5.8,5.8l0,0h-27c-3.2,0-5.8-2.6-5.8-5.8l0,0V25.5c0-3.2,2.6-5.8,5.8-5.8l0,0h27
	c3.2,0,5.8,2.6,5.8,5.8l0,0V40.9z"/>
</svg>
